
<?xml version="1.0" encoding="UTF-8"?> <svg xmlns="http://www.w3.org/2000/svg" width="133" height="132" viewBox="0 0 133 132" fill="none"><g clip-path="url(#clip0_5008_32698)"><path d="M23.3148 132L42.4048 98.9418L61.4947 66L80.4682 32.9418L83.6111 27.7037L85.0079 32.9418L90.828 54.709L84.3095 66L65.2196 98.9418L46.246 132H69.0608L88.1508 98.9418L98.045 81.8307L102.701 98.9418L111.548 132H132.034L123.188 98.9418L114.341 66L112.013 57.5026L126.214 32.9418H105.495L104.796 30.4974L97.5794 3.49206L96.6481 0H76.7434L76.2778 0.698413L57.6534 32.9418L38.5635 66L19.5899 98.9418L0.5 132H23.3148Z" fill="#3F3F3F"></path></g><defs><clipPath id="clip0_5008_32698"><rect width="132" height="132" fill="white" transform="translate(0.5)"></rect></clipPath></defs></svg> 