
<?xml version="1.0" encoding="UTF-8"?> <svg xmlns="http://www.w3.org/2000/svg" width="100" height="100" viewBox="0 0 100 100" fill="none"><g clip-path="url(#clip0_4461_18104)"><path d="M36.0642 61.3262C39.4601 61.3262 42.2131 64.0792 42.2131 67.4751V93.8521C42.2131 97.248 39.4601 100.001 36.0642 100.001C32.6688 100.001 29.9158 97.248 29.9158 93.8521V67.4751C29.9158 64.0796 32.6688 61.3266 36.0642 61.3266V61.3262Z" fill="#A4C639"></path><path d="M22.0268 29.6133C22.0065 29.8464 21.9888 30.0822 21.9888 30.3205V70.2842C21.9888 74.5821 25.3907 78.0445 29.6139 78.0445H70.2542C74.4778 78.0445 77.8797 74.5816 77.8797 70.2842V30.3205C77.8797 30.0822 77.8711 29.8456 77.8512 29.6133H22.0268Z" fill="#A4C639"></path><path d="M63.8047 61.3243C67.2006 61.3243 69.9536 64.0773 69.9536 67.4732V93.8503C69.9536 97.2462 67.2006 99.9987 63.8047 99.9987C60.4093 99.9987 57.6563 97.2462 57.6563 93.8503V67.4732C57.6563 64.0778 60.4093 61.3248 63.8047 61.3248V61.3243ZM12.1093 33.1684C15.5048 33.1684 18.2578 35.9214 18.2578 39.3173V65.6943C18.2578 69.0902 15.5048 71.8432 12.1093 71.8432C8.71344 71.8432 5.96045 69.0902 5.96045 65.6948V39.3177C5.96002 35.9218 8.71301 33.1684 12.1093 33.1684ZM87.76 33.1684C91.1554 33.1684 93.9084 35.9214 93.9084 39.3173V65.6943C93.9084 69.0902 91.1554 71.8432 87.76 71.8432C84.3641 71.8432 81.6111 69.0902 81.6111 65.6948V39.3177C81.6111 35.9218 84.3641 33.1684 87.76 33.1684ZM22.2064 26.9867C22.3773 14.7114 33.0914 4.64672 46.8442 3.32031H53.0238C66.7775 4.64715 77.4907 14.7122 77.6617 26.9867H22.2064Z" fill="#A4C639"></path><path d="M24.3451 2.13672L30.8312 13.3715M75.5245 2.13672L69.038 13.3715" stroke="#A4C639" stroke-width="4.25362" stroke-linecap="round" stroke-linejoin="round"></path><path d="M41.6743 15.9868C41.6795 17.7027 40.2594 19.0977 38.5021 19.1025C36.7456 19.1068 35.3173 17.7199 35.3121 16.0041V15.9868C35.3074 14.2705 36.7275 12.8759 38.4844 12.8711C40.2408 12.8664 41.6691 14.2528 41.6743 15.9695V15.9868ZM65.4202 15.9868C65.4253 17.7027 64.0052 19.0977 62.2479 19.1025C60.4915 19.1068 59.0632 17.7199 59.058 16.0041V15.9868C59.0532 14.2705 60.4733 12.8759 62.2302 12.8711C63.9867 12.8664 65.415 14.2528 65.4202 15.9695V15.9868Z" fill="white"></path></g><g style="mix-blend-mode:hue"><rect width="100" height="100" fill="white"></rect></g><defs><clipPath id="clip0_4461_18104"><rect width="89.1304" height="100" fill="white" transform="translate(5.5)"></rect></clipPath></defs></svg> 