<?xml version="1.0" standalone="no" ?>
<!DOCTYPE svg PUBLIC "-//W3C//DTD SVG 20010904//EN"
  "http://www.w3.org/TR/2001/REC-SVG-20010904/DTD/svg10.dtd">
<svg
  version="1.0"
  xmlns="http://www.w3.org/2000/svg"
  width="60px"
  height="60px"
  viewBox="0 0 512.000000 512.000000"
  preserveAspectRatio="xMidYMid meet"
>

<g
    transform="translate(0.000000,512.000000) scale(0.100000,-0.100000)"
    fill="#000000"
    stroke="none"
  >
<path
      d="M588 4381 c-31 -10 -72 -28 -92 -40 -55 -34 -123 -116 -148 -179
l-23 -57 -3 -1452 -2 -1453 -56 0 c-45 0 -59 -4 -79 -25 -23 -22 -25 -32 -25
-112 0 -104 21 -201 57 -263 35 -62 118 -145 179 -180 109 -63 -14 -60 2160
-60 1290 0 2000 4 2034 10 83 16 155 54 221 116 106 102 149 209 149 377 0 80
-2 90 -25 112 -20 21 -34 25 -79 25 l-56 0 -2 1453 -3 1452 -23 57 c-27 67
-97 148 -158 184 -96 57 11 54 -2059 53 -1815 0 -1913 -1 -1967 -18z m3933
-169 c39 -20 62 -41 84 -77 l30 -48 3 -1444 2 -1443 -80 0 -80 0 0 1415 0
1416 -25 24 -24 25 -1871 0 -1871 0 -24 -25 -25 -24 0 -1416 0 -1415 -80 0
-80 0 0 1433 c0 1393 1 1433 20 1475 23 51 61 88 115 113 38 18 116 19 1946
19 l1907 0 53 -28z m-201 -1652 l0 -1360 -529 0 -529 0 5 41 c6 40 4 42 -68
115 l-73 73 77 80 c88 90 91 101 48 178 l-28 51 48 37 c111 84 221 226 295
380 153 318 152 662 -4 981 -216 440 -695 687 -1181 609 -476 -78 -849 -452
-926 -930 -64 -394 101 -815 413 -1056 l33 -25 -25 -45 c-39 -68 -35 -82 49
-168 l74 -76 -74 -70 c-64 -60 -75 -75 -75 -103 0 -18 5 -42 10 -53 11 -19 2
-19 -525 -19 l-535 0 0 1360 0 1360 1760 0 1760 0 0 -1360z m-1525 1010 c182
-49 305 -120 440 -255 106 -106 169 -200 218 -325 142 -361 50 -772 -233
-1045 l-73 -70 -16 25 c-47 72 -76 82 -165 55 -68 -21 -78 -19 -31 6 174 93
323 286 376 486 28 108 28 278 0 387 -70 267 -290 487 -560 557 -105 28 -277
28 -383 0 -243 -64 -438 -237 -531 -471 -14 -36 -31 -92 -38 -125 -16 -78 -16
-234 0 -310 40 -185 152 -359 303 -470 l56 -42 -56 1 -57 1 -30 -47 c-16 -26
-34 -48 -40 -48 -23 0 -192 189 -236 265 -103 180 -134 294 -133 500 1 205 33
318 139 499 44 77 192 234 266 284 108 73 254 133 384 158 100 19 297 12 400
-16z m-136 -325 c112 -13 244 -80 335 -171 239 -239 240 -631 1 -869 -41 -42
-158 -125 -175 -125 -4 0 -13 14 -20 30 -7 17 -21 35 -31 40 -25 14 -375 13
-401 -1 -11 -6 -26 -26 -34 -45 l-14 -34 -38 19 c-139 71 -258 209 -305 356
-103 317 59 654 369 771 68 25 178 44 229 38 17 -2 54 -6 84 -9z m25 -1312
c25 -102 33 -116 82 -146 53 -32 77 -33 167 -8 l67 20 14 -22 c7 -12 29 -49
49 -82 l36 -60 -65 -66 -64 -67 0 -73 0 -73 63 -58 c53 -49 60 -60 51 -75 -10
-16 -33 -18 -240 -20 l-229 -3 45 21 c96 43 144 117 144 219 0 164 -150 275
-308 228 -56 -17 -141 -100 -155 -153 -27 -98 -7 -172 63 -240 28 -28 67 -56
86 -62 28 -9 -13 -11 -203 -12 l-237 -1 -12 25 c-10 23 -6 30 60 99 71 72 72
75 72 126 0 51 -2 54 -69 124 l-68 71 49 83 c29 49 55 82 62 79 6 -3 47 -15
90 -27 77 -21 80 -21 118 -4 57 26 81 60 102 147 l18 77 98 0 98 0 16 -67z
m-79 -419 c8 -4 23 -20 31 -36 42 -81 -58 -157 -121 -93 -63 62 6 161 90 129z
m2192 -526 c-13 -106 -79 -197 -176 -242 l-46 -21 -2015 0 -2015 0 -46 21
c-97 45 -163 136 -176 242 l-6 52 2243 0 2243 0 -6 -52z"
    />
<path
      d="M2512 3103 c-34 -29 -272 -404 -272 -428 0 -12 60 -118 133 -236 102
-163 140 -216 160 -223 57 -20 72 -4 214 223 73 118 133 224 133 236 0 24
-238 399 -272 428 -11 9 -33 17 -48 17 -15 0 -37 -8 -48 -17z m101 -286 c26
-40 47 -76 47 -79 0 -16 -102 -27 -150 -17 -27 6 -50 13 -50 17 0 9 94 152
100 152 3 0 26 -33 53 -73z m7 -276 c0 -7 -55 -91 -60 -91 -5 0 -60 84 -60 91
0 2 27 4 60 4 33 0 60 -2 60 -4z"
    />
</g>
</svg>
