
<?xml version="1.0" encoding="UTF-8"?> <svg xmlns="http://www.w3.org/2000/svg" width="133" height="132" viewBox="0 0 133 132" fill="none"><g clip-path="url(#clip0_5008_32711)"><path d="M27.7898 62.5007C27.79 61.7677 27.9349 61.042 28.2163 60.3652C28.4977 59.6883 28.91 59.0737 29.4295 58.5567C29.9491 58.0397 30.5657 57.6303 31.2439 57.3522C31.922 57.0741 32.6485 56.9327 33.3815 56.9362L42.6517 56.9664C44.1298 56.9664 45.5474 57.5536 46.5926 58.5988C47.6378 59.644 48.225 61.0615 48.225 62.5396V97.5954C49.2691 97.286 50.6053 96.956 52.0757 96.6097C53.0944 96.37 54.0023 95.7933 54.6521 94.973C55.302 94.1527 55.6557 93.1369 55.6559 92.0903V48.6093C55.6559 47.1311 56.2431 45.7134 57.2882 44.6681C58.3334 43.6227 59.7509 43.0353 61.2291 43.035H70.5275C72.0058 43.0353 73.4233 43.6227 74.4685 44.6681C75.5136 45.7134 76.1008 47.1311 76.1008 48.6093V88.9667C76.1008 88.9667 78.427 88.0254 80.6915 87.0689C81.533 86.713 82.2511 86.1172 82.7562 85.3559C83.2613 84.5945 83.531 83.7013 83.5317 82.7876V34.6758C83.5317 33.1978 84.1187 31.7804 85.1637 30.7353C86.2086 29.6901 87.6259 29.1028 89.1039 29.1025H98.3925C99.8697 29.104 101.286 29.6918 102.33 30.7368C103.374 31.7818 103.96 33.1986 103.96 34.6758V74.2942C112.013 68.458 120.175 61.4382 126.651 52.9978C127.591 51.7726 128.213 50.3339 128.461 48.81C128.71 47.2861 128.577 45.7243 128.075 44.2642C125.077 35.6388 120.312 27.7344 114.083 21.0566C107.855 14.3787 100.301 9.07462 91.9056 5.48363C83.5099 1.89264 74.4569 0.0938555 65.326 0.202388C56.1952 0.310921 47.1875 2.32438 38.8795 6.11391C30.5714 9.90345 23.146 15.3856 17.0782 22.2096C11.0105 29.0336 6.4341 37.0491 3.64192 45.7432C0.849735 54.4374 -0.0967456 63.6186 0.863034 72.6996C1.82281 81.7805 4.66772 90.561 9.21571 98.4794C10.0081 99.8453 11.1738 100.957 12.576 101.683C13.9782 102.41 15.5585 102.721 17.1314 102.58C18.8885 102.425 21.0762 102.207 23.6773 101.902C24.8093 101.773 25.8544 101.232 26.6136 100.383C27.3728 99.5331 27.793 98.4339 27.7942 97.2946V62.5007" fill="#3F3F3F"></path><path d="M27.5919 118.721C37.3828 125.844 48.9533 130.119 61.0233 131.074C73.0933 132.029 85.1922 129.626 95.9815 124.132C106.771 118.638 115.83 110.265 122.156 99.9421C128.482 89.6186 131.83 77.7463 131.828 65.6386C131.828 64.1238 131.757 62.6329 131.657 61.1462C107.677 96.9107 63.4006 113.63 27.5919 118.721Z" fill="#F0B90B"></path><g style="mix-blend-mode:hue"><rect x="-0.160339" width="132" height="132" fill="white"></rect></g></g><defs><clipPath id="clip0_5008_32711"><rect width="132.001" height="132" fill="white" transform="translate(0.499634)"></rect></clipPath></defs></svg> 