<svg width="38" height="46" viewBox="0 0 38 46" fill="none" xmlns="http://www.w3.org/2000/svg">
<path fill-rule="evenodd" clip-rule="evenodd" d="M1.00008 0C0.556519 0 0.165962 0.292191 0.0407507 0.717715C-0.0365097 0.98028 -0.00134889 1.25489 0.124512 1.48315V15.2969C0.124512 15.6368 0.297168 15.9535 0.582902 16.1375L9.96892 22.1849H1.00008C0.556519 22.1849 0.165962 22.4771 0.0407507 22.9026C-0.0365097 23.1652 -0.00134889 23.4398 0.124512 23.668V37.4818C0.124512 37.8217 0.297168 38.1383 0.582902 38.3224L12.2291 45.8259C12.3896 45.9357 12.5838 46 12.793 46H36.9999C37.5522 46 37.9999 45.5523 37.9999 45V30.7031H37.876C37.876 30.3645 37.7035 30.0409 37.4056 29.8548L27.7321 23.8151H36.9999C37.5522 23.8151 37.9999 23.3674 37.9999 22.8151V8.51819H37.876C37.876 8.17964 37.7035 7.85598 37.4056 7.66997L25.3642 0.151759C25.2053 0.0525822 25.0218 0 24.8346 0H1.00008ZM35.9999 31.7031H13.793V44H35.9999V31.7031ZM11.793 31.3282L2.12451 25.0989V36.9365L11.793 43.1658V31.3282ZM11.793 9.14334V20.9809L2.12451 14.7516V2.91404L11.793 9.14334ZM13.793 21.8151V9.51821H35.9999V21.8151H13.793ZM12.9633 7.51821L4.39852 2H24.548L33.3861 7.51821H12.9633ZM12.9633 29.7031L4.39852 24.1849H24.548L33.3861 29.7031H12.9633Z" fill="#FFDA44"/>
</svg>
