<?xml version="1.0" encoding="UTF-8"?> <svg xmlns="http://www.w3.org/2000/svg" width="72" height="72" viewBox="0 0 72 72" fill="none"><path d="M49.6739 50.4799H47.7819C47.4473 50.4799 47.1265 50.347 46.89 50.1104C46.6534 49.8739 46.5205 49.5531 46.5205 49.2185C46.5205 48.884 46.6534 48.5631 46.89 48.3266C47.1265 48.09 47.4473 47.9572 47.7819 47.9572H49.6739C50.0085 47.9572 50.3293 48.09 50.5658 48.3266C50.8024 48.5631 50.9353 48.884 50.9353 49.2185C50.9353 49.5531 50.8024 49.8739 50.5658 50.1104C50.3293 50.347 50.0085 50.4799 49.6739 50.4799Z" fill="black"></path><path d="M56.5431 50.4799H54.651C54.3165 50.4799 53.9956 50.347 53.7591 50.1104C53.5225 49.8739 53.3896 49.5531 53.3896 49.2185C53.3896 48.884 53.5225 48.5631 53.7591 48.3266C53.9956 48.09 54.3165 47.9572 54.651 47.9572H56.5431C56.8776 47.9572 57.1984 48.09 57.435 48.3266C57.6715 48.5631 57.8044 48.884 57.8044 49.2185C57.8044 49.5531 57.6715 49.8739 57.435 50.1104C57.1984 50.347 56.8776 50.4799 56.5431 50.4799Z" fill="black"></path><path d="M63.4121 50.4799H61.3844C61.0499 50.4799 60.729 50.347 60.4925 50.1104C60.2559 49.8739 60.123 49.5531 60.123 49.2185C60.123 48.884 60.2559 48.5631 60.4925 48.3266C60.729 48.09 61.0499 47.9572 61.3844 47.9572H63.4089C63.7434 47.9572 64.0643 48.09 64.3008 48.3266C64.5374 48.5631 64.6703 48.884 64.6703 49.2185C64.6703 49.5531 64.5374 49.8739 64.3008 50.1104C64.0643 50.347 63.7434 50.4799 63.4089 50.4799H63.4121Z" fill="black"></path><path d="M27.8346 63.9844C27.5096 63.9063 27.2289 63.7023 27.0542 63.4173C26.8794 63.1323 26.825 62.7896 26.9028 62.4645L29.1843 52.9286C29.2229 52.7675 29.2929 52.6156 29.3902 52.4815C29.4875 52.3475 29.6103 52.2339 29.7515 52.1473C29.8927 52.0607 30.0496 52.0027 30.2132 51.9768C30.3768 51.9508 30.5439 51.9573 30.705 51.9959C30.8661 52.0346 31.018 52.1045 31.1521 52.2018C31.2861 52.2992 31.3997 52.4219 31.4863 52.5631C31.5729 52.7044 31.6308 52.8612 31.6568 53.0249C31.6828 53.1885 31.6763 53.3556 31.6376 53.5167L29.3562 63.0463C29.3182 63.2079 29.2486 63.3605 29.1515 63.4953C29.0544 63.63 28.9316 63.7442 28.7902 63.8314C28.6489 63.9185 28.4917 63.9769 28.3277 64.0032C28.1637 64.0295 27.9961 64.0231 27.8346 63.9844Z" fill="black"></path><path d="M42.6353 63.01L40.6991 53.4804C40.6661 53.318 40.6654 53.1508 40.697 52.9882C40.7286 52.8255 40.7919 52.6707 40.8834 52.5326C40.9748 52.3945 41.0926 52.2757 41.2299 52.1831C41.3672 52.0904 41.5215 52.0258 41.6838 51.9927C41.8461 51.9597 42.0134 51.959 42.176 51.9906C42.3386 52.0222 42.4934 52.0855 42.6315 52.177C42.7697 52.2684 42.8885 52.3861 42.9811 52.5235C43.0737 52.6608 43.1384 52.8151 43.1714 52.9774L45.1076 62.507C45.1743 62.8348 45.108 63.1757 44.9234 63.4547C44.7387 63.7337 44.4508 63.9279 44.123 63.9946C43.7951 64.0613 43.4542 63.995 43.1752 63.8104C42.8962 63.6257 42.702 63.3378 42.6353 63.01Z" fill="black"></path><path d="M49.305 64.0191H22.6051C22.2706 64.0191 21.9497 63.8862 21.7132 63.6496C21.4766 63.4131 21.3438 63.0922 21.3438 62.7577C21.3438 62.4232 21.4766 62.1023 21.7132 61.8658C21.9497 61.6292 22.2706 61.4963 22.6051 61.4963H49.305C49.6396 61.4963 49.9604 61.6292 50.1969 61.8658C50.4335 62.1023 50.5664 62.4232 50.5664 62.7577C50.5664 63.0922 50.4335 63.4131 50.1969 63.6496C49.9604 63.8862 49.6396 64.0191 49.305 64.0191Z" fill="black"></path><path d="M67.4153 54.4896H4.58833C2.48974 54.4896 0.961914 52.9665 0.961914 50.8631V12.4199C0.961914 10.3497 2.55439 8.72729 4.58833 8.72729H67.4153C68.3845 8.73811 69.3098 9.13299 69.9882 9.82528C70.6666 10.5176 71.0426 11.4507 71.0338 12.4199V50.8694C71.0391 51.3462 70.9491 51.8192 70.7691 52.2607C70.5892 52.7021 70.3229 53.1033 69.9858 53.4405C69.6488 53.7776 69.2478 54.0441 68.8064 54.2243C68.365 54.4044 67.892 54.4946 67.4153 54.4896ZM4.58833 11.25C3.83309 11.25 3.48464 11.8555 3.48464 12.4199V50.8694C3.48464 51.5569 3.89616 51.9731 4.58833 51.9731H67.4153C67.5607 51.9764 67.7054 51.95 67.8403 51.8956C67.9753 51.8412 68.0977 51.7599 68.2002 51.6567C68.3028 51.5534 68.3832 51.4304 68.4366 51.295C68.4901 51.1597 68.5154 51.0149 68.5111 50.8694V12.4199C68.5167 12.1206 68.4054 11.8309 68.2008 11.6124C67.9961 11.394 67.7143 11.2639 67.4153 11.25H4.58833Z" fill="black"></path><path d="M69.7722 46.464H2.22621C1.89167 46.464 1.57084 46.3311 1.33429 46.0946C1.09774 45.858 0.964844 45.5372 0.964844 45.2026C0.964844 44.8681 1.09774 44.5473 1.33429 44.3107C1.57084 44.0742 1.89167 43.9413 2.22621 43.9413H69.7722C70.1068 43.9413 70.4276 44.0742 70.6641 44.3107C70.9007 44.5473 71.0336 44.8681 71.0336 45.2026C71.0336 45.5372 70.9007 45.858 70.6641 46.0946C70.4276 46.3311 70.1068 46.464 69.7722 46.464Z" fill="black"></path><path d="M16.2127 38.3376C15.8357 38.3376 15.7336 38.252 14.0889 37.8284C13.6991 37.726 13.3593 37.4864 13.1317 37.1538C12.9042 36.8211 12.8041 36.4176 12.8498 36.0171L12.9865 34.7465C12.6605 34.5311 12.3503 34.2927 12.0583 34.033L10.8567 34.4956C10.4807 34.6424 10.0644 34.6488 9.68401 34.5136C9.30364 34.3785 8.98469 34.1108 8.78557 33.7597L7.91894 32.2577C7.71523 31.9087 7.64497 31.4977 7.7212 31.1008C7.79742 30.7039 8.01496 30.3482 8.33348 30.0994L9.32326 29.2989C9.24621 28.9144 9.19602 28.5249 9.17307 28.1334L8.00455 27.6167C7.63551 27.4553 7.33692 27.1664 7.16344 26.8029C6.98996 26.4394 6.95318 26.0256 7.05983 25.6372L7.51041 23.958C7.61297 23.5699 7.85114 23.2314 8.18178 23.0038C8.51241 22.7762 8.91364 22.6746 9.31275 22.7174L10.5804 22.8541C10.7971 22.5281 11.036 22.2175 11.2953 21.9243L10.8327 20.7228C10.6864 20.3469 10.6802 19.931 10.8153 19.5509C10.9505 19.1709 11.2179 18.8522 11.5687 18.6531L13.0706 17.7865C13.4189 17.581 13.8299 17.5088 14.2274 17.5834C14.6249 17.6579 14.9818 17.8742 15.2319 18.192L16.031 19.1833C16.4145 19.1063 16.8029 19.0562 17.1935 19.0331L17.7101 17.8646C17.871 17.4947 18.16 17.1954 18.524 17.0216C18.8879 16.8477 19.3024 16.8111 19.6912 16.9184L21.3659 17.3689C21.7553 17.4717 22.0949 17.711 22.3227 18.0432C22.5504 18.3754 22.6511 18.7785 22.6065 19.1788L22.4698 20.4494C22.7967 20.6656 23.1083 20.9039 23.4025 21.1629L24.595 20.7018C24.9709 20.5534 25.3878 20.5462 25.7686 20.6815C26.1494 20.8168 26.4683 21.0854 26.6662 21.4377L27.5329 22.9397C27.7348 23.2886 27.805 23.6985 27.7306 24.0948C27.6562 24.491 27.4421 24.8475 27.1273 25.0995L26.136 25.9C26.213 26.2846 26.2632 26.674 26.2862 27.0655L27.4548 27.5822C27.8239 27.7439 28.1225 28.033 28.296 28.3968C28.4695 28.7606 28.5062 29.1746 28.3995 29.5632L27.9489 31.2409C27.8462 31.6304 27.6069 31.97 27.2746 32.1977C26.9424 32.4255 26.5394 32.5262 26.139 32.4815L24.8699 32.3448C24.6541 32.671 24.4157 32.9817 24.1565 33.2746L24.6191 34.4761C24.7664 34.8541 24.7715 35.2728 24.6334 35.6543C24.4952 36.0358 24.2233 36.3542 23.8681 36.5503L22.3782 37.4124C22.0292 37.6154 21.6189 37.6862 21.2221 37.6117C20.8253 37.5373 20.4685 37.3226 20.2169 37.0069L19.4178 36.0156C19.0343 36.0926 18.6458 36.1427 18.2553 36.1658L17.7387 37.3358C17.6088 37.6327 17.3954 37.8855 17.1245 38.0634C16.8536 38.2413 16.5368 38.3365 16.2127 38.3376ZM15.3115 35.6656L15.8042 35.7978L16.3839 34.4866C16.4811 34.2668 16.6419 34.0812 16.8457 33.9538C17.0494 33.8263 17.2867 33.7629 17.5269 33.7717C18.2068 33.796 18.886 33.7067 19.5365 33.5074C19.7659 33.4376 20.0109 33.4381 20.24 33.5088C20.4691 33.5795 20.6719 33.717 20.8222 33.9039L21.7233 35.0198L22.1739 34.763L21.6557 33.4202C21.5693 33.1967 21.5517 32.9523 21.6053 32.7187C21.6588 32.485 21.781 32.2727 21.9561 32.109C22.4532 31.6461 22.8694 31.1035 23.1877 30.5035C23.3002 30.291 23.4739 30.1172 23.6862 30.0045C23.8985 29.8917 24.1398 29.8453 24.3788 29.8711L25.8026 30.0213L25.9348 29.5272L24.6041 28.9489C24.3845 28.8519 24.199 28.6913 24.0716 28.4878C23.9442 28.2843 23.8806 28.0474 23.8891 27.8075C23.913 27.1266 23.8236 26.4465 23.6248 25.7949C23.5552 25.5658 23.5557 25.3212 23.626 25.0924C23.6964 24.8636 23.8335 24.661 24.0198 24.5107L25.1357 23.6095L24.8789 23.1589L23.5527 23.6816C23.3291 23.7681 23.0848 23.7856 22.8511 23.7321C22.6175 23.6786 22.4052 23.5564 22.2415 23.3812C21.778 22.8827 21.2343 22.4654 20.6329 22.1466C20.4202 22.0344 20.2461 21.8608 20.1331 21.6485C20.0201 21.4361 19.9734 21.1948 19.9991 20.9556L20.1493 19.5287L19.6566 19.3966L19.0769 20.7078C18.9797 20.9276 18.8189 21.1132 18.6151 21.2406C18.4114 21.3681 18.1741 21.4315 17.9339 21.4227C17.2554 21.3991 16.5777 21.489 15.9288 21.6885C15.6994 21.7588 15.4541 21.7587 15.2247 21.6883C14.9953 21.6179 14.7922 21.4804 14.6417 21.2935L13.7405 20.1761L13.2899 20.4329L13.8081 21.7757C13.8945 21.9992 13.9121 22.2436 13.8586 22.4772C13.805 22.7109 13.6828 22.9232 13.5077 23.0869C13.0148 23.5506 12.6026 24.0932 12.2881 24.6924C12.1749 24.9067 11.9996 25.0817 11.7852 25.1946C11.5708 25.3074 11.3272 25.3528 11.0865 25.3248L9.6627 25.1746L9.53053 25.6702L10.8402 26.2499C11.0598 26.347 11.2452 26.5076 11.3727 26.7111C11.5001 26.9146 11.5637 27.1515 11.5552 27.3914C11.5313 28.0723 11.6207 28.7524 11.8195 29.404C11.8891 29.6331 11.8886 29.8777 11.8182 30.1065C11.7479 30.3353 11.6108 30.5378 11.4245 30.6882L10.3085 31.5894L10.5654 32.04L11.9036 31.5218C12.1276 31.4347 12.3725 31.4168 12.6068 31.4703C12.8411 31.5239 13.0539 31.6464 13.2178 31.8222C13.6792 32.32 14.2209 32.7369 14.8204 33.0553C15.0323 33.1679 15.2056 33.3414 15.3181 33.5534C15.4305 33.7654 15.4769 34.0062 15.4512 34.2448L15.3115 35.6656Z" fill="black"></path><path d="M17.7372 32.1421C16.6345 32.1453 15.5683 31.7473 14.7373 31.0224C13.9063 30.2974 13.3674 29.295 13.2209 28.2021C13.0745 27.1091 13.3305 26.0002 13.9413 25.0821C14.5522 24.164 15.476 23.4993 16.5407 23.2121C17.6054 22.9249 18.7382 23.0347 19.7279 23.5211C20.7176 24.0074 21.4966 24.8371 21.9197 25.8554C22.3428 26.8738 22.3811 28.0112 22.0275 29.0557C21.6738 30.1002 20.9524 30.9804 19.9977 31.5323C19.3111 31.9311 18.5313 32.1415 17.7372 32.1421ZM17.7237 25.4584C17.1814 25.4595 16.6598 25.6667 16.2645 26.038C15.8692 26.4093 15.6299 26.9171 15.5951 27.4583C15.5602 27.9995 15.7324 28.5337 16.0767 28.9527C16.4211 29.3717 16.9118 29.6441 17.4495 29.7147C17.9872 29.7854 18.5317 29.6489 18.9726 29.3331C19.4135 29.0173 19.7178 28.5456 19.8239 28.0138C19.93 27.4819 19.8299 26.9296 19.544 26.4688C19.258 26.008 18.8076 25.6731 18.284 25.532C18.1013 25.4828 17.9129 25.4581 17.7237 25.4584Z" fill="black"></path><path d="M40.9315 35.3833C40.6128 35.3833 40.3072 35.2567 40.0818 35.0314C39.8565 34.8061 39.7299 34.5004 39.7299 34.1818V27.9352L37.477 31.7006C37.3703 31.8788 37.2193 32.0264 37.0386 32.1289C36.8578 32.2313 36.6536 32.2852 36.4459 32.2852C36.2382 32.2852 36.034 32.2313 35.8533 32.1289C35.6725 32.0264 35.5215 31.8788 35.4148 31.7006L33.1619 27.9352V34.1818C33.1619 34.5004 33.0353 34.8061 32.81 35.0314C32.5846 35.2567 32.279 35.3833 31.9603 35.3833C31.6417 35.3833 31.3361 35.2567 31.1107 35.0314C30.8854 34.8061 30.7588 34.5004 30.7588 34.1818V23.5976C30.7587 23.3347 30.8447 23.0791 31.0037 22.8699C31.1628 22.6606 31.386 22.5093 31.6393 22.4391C31.8926 22.3688 32.1619 22.3836 32.406 22.4811C32.6501 22.5786 32.8555 22.7534 32.9907 22.9788L36.4452 28.7477L39.9071 22.9788C40.0424 22.7534 40.2478 22.5786 40.4918 22.4811C40.7359 22.3836 41.0052 22.3688 41.2585 22.4391C41.5118 22.5093 41.735 22.6606 41.8941 22.8699C42.0531 23.0791 42.1392 23.3347 42.139 23.5976V34.1818C42.139 34.3401 42.1078 34.4968 42.047 34.643C41.9862 34.7892 41.8972 34.9219 41.785 35.0335C41.6728 35.1452 41.5396 35.2336 41.3931 35.2936C41.2467 35.3536 41.0898 35.3841 40.9315 35.3833Z" fill="black"></path><path d="M58.098 35.3744C57.7794 35.3744 57.4737 35.2478 57.2484 35.0225C57.0231 34.7971 56.8965 34.4915 56.8965 34.1729V23.5886C56.8965 23.27 57.0231 22.9643 57.2484 22.739C57.4737 22.5137 57.7794 22.3871 58.098 22.3871C58.4167 22.3871 58.7223 22.5137 58.9477 22.739C59.173 22.9643 59.2996 23.27 59.2996 23.5886V34.1729C59.2996 34.4915 59.173 34.7971 58.9477 35.0225C58.7223 35.2478 58.4167 35.3744 58.098 35.3744Z" fill="black"></path><path d="M62.0031 30.2543H58.098C57.7794 30.2543 57.4737 30.1277 57.2484 29.9023C57.0231 29.677 56.8965 29.3714 56.8965 29.0527C56.8965 28.734 57.0231 28.4284 57.2484 28.2031C57.4737 27.9778 57.7794 27.8512 58.098 27.8512H62.0031C62.409 27.8512 62.7983 27.6899 63.0853 27.4029C63.3723 27.1159 63.5336 26.7266 63.5336 26.3207C63.5336 25.9148 63.3723 25.5255 63.0853 25.2385C62.7983 24.9514 62.409 24.7902 62.0031 24.7902H58.098C57.7794 24.7902 57.4737 24.6636 57.2484 24.4383C57.0231 24.2129 56.8965 23.9073 56.8965 23.5886C56.8965 23.27 57.0231 22.9643 57.2484 22.739C57.4737 22.5137 57.7794 22.3871 58.098 22.3871H62.0031C62.5197 22.3871 63.0312 22.4888 63.5084 22.6865C63.9857 22.8842 64.4193 23.1739 64.7846 23.5392C65.1498 23.9045 65.4396 24.3381 65.6373 24.8154C65.835 25.2926 65.9367 25.8041 65.9367 26.3207C65.9367 26.8372 65.835 27.3488 65.6373 27.826C65.4396 28.3032 65.1498 28.7369 64.7846 29.1022C64.4193 29.4674 63.9857 29.7572 63.5084 29.9548C63.0312 30.1525 62.5197 30.2543 62.0031 30.2543Z" fill="black"></path><path d="M49.3466 35.3744C49.1149 35.3745 48.8882 35.3076 48.6937 35.1818C48.4991 35.056 48.3451 34.8767 48.2501 34.6654L43.4935 24.0827C43.4251 23.9383 43.3862 23.7817 43.3791 23.6221C43.372 23.4625 43.3968 23.3031 43.452 23.1532C43.5073 23.0032 43.5919 22.8658 43.7009 22.749C43.8098 22.6322 43.941 22.5383 44.0868 22.4727C44.2325 22.4072 44.3898 22.3714 44.5495 22.3674C44.7092 22.3635 44.8682 22.3914 45.017 22.4495C45.1658 22.5077 45.3015 22.595 45.4161 22.7062C45.5308 22.8175 45.6222 22.9505 45.6848 23.0975L49.3466 31.2425L53.0068 23.0975C53.0694 22.9505 53.1608 22.8175 53.2755 22.7062C53.3901 22.595 53.5258 22.5077 53.6746 22.4495C53.8235 22.3914 53.9824 22.3635 54.1421 22.3674C54.3018 22.3714 54.4591 22.4072 54.6049 22.4727C54.7506 22.5383 54.8818 22.6322 54.9907 22.749C55.0997 22.8658 55.1843 23.0032 55.2396 23.1532C55.2948 23.3031 55.3196 23.4625 55.3125 23.6221C55.3054 23.7817 55.2665 23.9383 55.1981 24.0827L50.4385 34.6654C50.3438 34.876 50.1905 35.0549 49.9968 35.1806C49.8032 35.3063 49.5774 35.3736 49.3466 35.3744Z" fill="black"></path></svg> 