
<?xml version="1.0" encoding="UTF-8"?> <svg xmlns="http://www.w3.org/2000/svg" width="53" height="52" viewBox="0 0 53 52" fill="none"><circle cx="26.5" cy="26" r="26" fill="#FFDA44"></circle><path d="M29.956 21.5499V35.8683C29.956 36.9097 30.8003 37.7538 31.8415 37.7538H39.12C39.3781 34.709 41.9312 32.3182 45.0421 32.3182C46.135 32.3182 47.1588 32.6138 48.0393 33.1287V16.0281C48.0393 14.9868 47.195 14.1426 46.1537 14.1426H31.8415C30.8003 14.1426 29.956 14.9868 29.956 16.0281V21.5499Z" stroke="black" stroke-width="2" stroke-miterlimit="10" stroke-linecap="round" stroke-linejoin="round"></path><path d="M12.0059 30.6932C9.5054 30.6932 7.47822 28.666 7.47822 26.1655C7.47822 23.6651 9.5054 21.6379 12.0059 21.6379C14.5074 21.6379 16.5345 23.6651 16.5345 26.1655C16.5345 28.666 14.5074 30.6932 12.0059 30.6932ZM21.701 28.2435C21.441 27.9785 21.312 27.6118 21.3547 27.2431C21.3953 26.8897 21.4156 26.5301 21.4156 26.1655C21.4156 25.8009 21.3953 25.4414 21.3547 25.0879C21.312 24.7193 21.441 24.3526 21.701 24.0886L22.4912 23.2852C23.0467 22.7195 23.1564 21.8532 22.7603 21.1676L21.7122 19.3507C21.3161 18.6651 20.5097 18.3279 19.7429 18.526L18.6531 18.8082C18.2936 18.9018 17.9097 18.8297 17.6111 18.6083C17.0363 18.1807 16.4106 17.8171 15.7454 17.5286C15.4062 17.3814 15.1523 17.0859 15.0538 16.7283L14.7552 15.6457C14.5429 14.8819 13.8482 14.3528 13.056 14.3528H10.9577C10.1656 14.3528 9.46986 14.8819 9.25861 15.6457L8.959 16.7293C8.86048 17.0859 8.60759 17.3814 8.26736 17.5286C7.60212 17.8171 6.9765 18.1807 6.40064 18.6083C6.10306 18.8297 5.71915 18.9018 5.35962 18.8082L4.26986 18.526C3.50306 18.3279 2.69767 18.6651 2.30158 19.3507L1.25244 21.1676C0.855328 21.8532 0.96603 22.7195 1.52259 23.2852L2.31173 24.0876C2.57173 24.3526 2.70072 24.7193 2.65806 25.0879C2.61744 25.4414 2.59712 25.8009 2.59712 26.1655C2.59712 26.5301 2.61744 26.8897 2.65806 27.2441C2.70072 27.6118 2.57173 27.9794 2.31173 28.2435L1.52259 29.0458C0.96603 29.6116 0.855328 30.4779 1.25244 31.1634L2.30158 32.9805C2.69767 33.666 3.50306 34.0031 4.26986 33.805L5.35962 33.5227C5.71915 33.4293 6.10306 33.5014 6.40064 33.7228C6.9765 34.1504 7.60212 34.514 8.26736 34.8024C8.60759 34.9497 8.86048 35.2452 8.959 35.6027L9.25861 36.6854C9.46986 37.4492 10.1656 37.9781 10.9577 37.9781H13.056C13.8482 37.9781 14.5429 37.4492 14.7552 36.6854L15.0538 35.6027C15.1523 35.2452 15.4062 34.9497 15.7454 34.8024C16.4106 34.514 17.0363 34.1504 17.6111 33.7228C17.9097 33.5014 18.2936 33.4293 18.6531 33.5227L19.7429 33.805C20.5097 34.0031 21.3161 33.666 21.7122 32.9805L22.7603 31.1634C23.1564 30.4779 23.0467 29.6116 22.4912 29.0458L21.701 28.2435Z" stroke="black" stroke-width="2" stroke-miterlimit="10" stroke-linecap="round" stroke-linejoin="round"></path><path d="M50.9846 38.2613C50.9846 41.5433 48.3239 44.204 45.0418 44.204C41.7597 44.204 39.0991 41.5433 39.0991 38.2613C39.0991 34.9792 41.7597 32.3185 45.0418 32.3185C48.3239 32.3185 50.9846 34.9792 50.9846 38.2613Z" stroke="black" stroke-width="2" stroke-miterlimit="10" stroke-linecap="round" stroke-linejoin="round"></path><path d="M35.0393 20.2753H43.0627" stroke="black" stroke-width="2" stroke-miterlimit="10" stroke-linecap="round" stroke-linejoin="round"></path><path d="M35.0393 25.9415H43.0627" stroke="black" stroke-width="2" stroke-miterlimit="10" stroke-linecap="round" stroke-linejoin="round"></path><path d="M35.0393 31.8107H37.7165" stroke="black" stroke-width="2" stroke-miterlimit="10" stroke-linecap="round" stroke-linejoin="round"></path><path d="M42.8817 38.6668L44.2366 40.0215L47.0052 37.253" stroke="black" stroke-width="2" stroke-miterlimit="10" stroke-linecap="round" stroke-linejoin="round"></path><path d="M36.9229 44.105C33.404 46.5125 29.1468 47.9212 24.5611 47.9212C19.4798 47.9212 14.802 46.1917 11.0848 43.2901" stroke="black" stroke-width="2" stroke-miterlimit="10" stroke-linecap="round" stroke-linejoin="round"></path><path d="M10.6388 9.0675C14.4251 5.95055 19.2747 4.07876 24.561 4.07876C29.8473 4.07876 34.697 5.95055 38.4832 9.0675" stroke="black" stroke-width="2" stroke-miterlimit="10" stroke-linecap="round" stroke-linejoin="round"></path><path d="M11.893 47.1417L11.0847 43.2781L15.0665 42.6441" stroke="black" stroke-width="2" stroke-miterlimit="10" stroke-linecap="round" stroke-linejoin="round"></path><path d="M37.6752 5.20346L38.4831 9.0675L34.5018 9.70105" stroke="black" stroke-width="2" stroke-miterlimit="10" stroke-linecap="round" stroke-linejoin="round"></path></svg> 