
<?xml version="1.0" encoding="UTF-8"?> <svg xmlns="http://www.w3.org/2000/svg" width="53" height="52" viewBox="0 0 53 52" fill="none"><circle cx="26.5" cy="26" r="26" fill="#FFDA44"></circle><path d="M41 13H45C46.6569 13 48 14.3431 48 16V23" stroke="#121519" stroke-width="1.5"></path><path d="M49 37.1667V44.9652C49 46.6356 47.6357 47.9843 45.9654 47.965L4.96543 47.4925C3.32217 47.4736 2 46.1361 2 44.4927V9" stroke="#121519" stroke-width="1.5"></path><path d="M41 8V13H6C3.79086 13 2 11.2091 2 9C2 6.79086 3.79086 5 6 5H38C39.6569 5 41 6.34315 41 8Z" stroke="#121519" stroke-width="1.5"></path><path d="M34.75 30C34.75 25.9959 37.9959 22.75 42 22.75H50.3636C50.8532 22.75 51.25 23.1468 51.25 23.6364V36.3636C51.25 36.8532 50.8532 37.25 50.3636 37.25H42C37.9959 37.25 34.75 34.0041 34.75 30Z" stroke="#121519" stroke-width="1.5"></path><circle cx="41.5" cy="30.5" r="2.75" stroke="#121519" stroke-width="1.5"></circle><g clip-path="url(#clip0_3995_16645)"><path d="M25.6565 30.9679C25.1919 30.3971 24.4907 30.005 23.5531 29.7919C24.7471 29.2134 25.2718 28.2314 25.1278 26.8458C25.0796 26.3433 24.9335 25.9079 24.6889 25.5388C24.4443 25.1696 24.1141 24.8728 23.6971 24.6483C23.2805 24.4235 22.8274 24.2523 22.3389 24.1344C21.8502 24.0164 21.2891 23.9307 20.6561 23.8775V21H18.8053V23.7975C18.4848 23.7975 17.996 23.8051 17.339 23.8204V21H15.4879V23.8775C15.2234 23.8851 14.8349 23.889 14.3221 23.889L11.774 23.8775V25.7501H13.1081C13.7171 25.7501 14.0736 26.009 14.1778 26.5266V29.8037C14.258 29.8037 14.3221 29.8077 14.3702 29.8153H14.1778V34.4053C14.1137 34.7935 13.8814 34.9877 13.4807 34.9877H12.1467L11.7741 37.0773H14.178C14.3303 37.0773 14.5505 37.0793 14.8391 37.0827C15.1275 37.0865 15.3437 37.0885 15.488 37.0885V40.0001H17.3394V37.1227C17.6758 37.1305 18.1646 37.1342 18.8056 37.1342V40.0001H20.6565V37.0885C21.3137 37.0581 21.8966 37.0013 22.4052 36.9172C22.9141 36.8332 23.401 36.7021 23.8656 36.5231C24.3302 36.3443 24.7188 36.1215 25.0312 35.8551C25.3439 35.5889 25.6021 35.25 25.8067 34.8388C26.0108 34.4277 26.1411 33.9519 26.197 33.4113C26.3017 32.3535 26.1213 31.5389 25.6565 30.9679ZM17.375 25.8754C17.4311 25.8754 17.5894 25.8735 17.8498 25.8696C18.1103 25.8657 18.3266 25.862 18.4989 25.8581C18.6712 25.8544 18.9036 25.8639 19.1962 25.8867C19.4886 25.9096 19.735 25.9401 19.9352 25.9781C20.1355 26.0161 20.3561 26.0789 20.5962 26.1664C20.8368 26.2539 21.029 26.3605 21.1731 26.4861C21.3174 26.6117 21.4396 26.7716 21.5396 26.9658C21.6399 27.1598 21.69 27.3825 21.69 27.6336C21.69 27.8468 21.654 28.041 21.5819 28.2162C21.51 28.3912 21.4016 28.5378 21.2575 28.6558C21.1134 28.7738 20.9649 28.8767 20.8126 28.9641C20.6605 29.0516 20.466 29.1221 20.2297 29.1753C19.9935 29.2286 19.7871 29.2705 19.611 29.3009C19.4346 29.3313 19.2143 29.3523 18.9499 29.3637C18.6854 29.3751 18.485 29.3828 18.3488 29.3866C18.2126 29.3903 18.0263 29.3903 17.7898 29.3866C17.5533 29.3828 17.4153 29.3808 17.3751 29.3808V25.8754H17.375V25.8754ZM22.4294 33.6513C22.3531 33.8264 22.255 33.9788 22.1349 34.1083C22.0146 34.2375 21.8563 34.3518 21.6601 34.4506C21.4639 34.5497 21.2734 34.6295 21.0893 34.6904C20.9049 34.7515 20.6824 34.8045 20.4222 34.8504C20.1615 34.8961 19.9333 34.9282 19.7367 34.9474C19.5405 34.9665 19.3062 34.9816 19.0337 34.9931C18.7614 35.0043 18.5489 35.0101 18.3967 35.0101C18.2444 35.0101 18.0521 35.0081 17.8197 35.0043C17.5872 35.0008 17.4391 34.9989 17.3749 34.9989V31.1393C17.439 31.1393 17.6293 31.1355 17.9459 31.1278C18.2625 31.1201 18.5208 31.1165 18.7211 31.1165C18.9214 31.1165 19.198 31.1278 19.5507 31.1508C19.903 31.1735 20.1995 31.2076 20.4401 31.2532C20.6804 31.299 20.9427 31.3693 21.2273 31.4646C21.5117 31.5597 21.7422 31.6757 21.9186 31.8128C22.0949 31.95 22.243 32.1248 22.3632 32.338C22.4836 32.5511 22.5437 32.7948 22.5437 33.0689C22.5436 33.2822 22.5056 33.4761 22.4294 33.6513Z" fill="#121519"></path></g><defs><clipPath id="clip0_3995_16645"><rect width="20" height="19" fill="white" transform="translate(9 21)"></rect></clipPath></defs></svg> 