
<?xml version="1.0" encoding="UTF-8"?> <svg xmlns="http://www.w3.org/2000/svg" width="53" height="52" viewBox="0 0 53 52" fill="none"><circle cx="26.5" cy="26" r="26" fill="#FFDA44"></circle><g clip-path="url(#clip0_5008_31582)"><path d="M22.6485 16.1992C22.4465 16.1992 22.2527 16.2795 22.1099 16.4224C21.967 16.5652 21.8868 16.7589 21.8868 16.961C21.8868 17.163 21.967 17.3567 22.1099 17.4996C22.2527 17.6424 22.4465 17.7227 22.6485 17.7227H24.1212V18.6367C24.1212 18.8388 24.2014 19.0325 24.3443 19.1754C24.4871 19.3182 24.6809 19.3985 24.8829 19.3985C25.0849 19.3985 25.2787 19.3182 25.4215 19.1754C25.5644 19.0325 25.6446 18.8388 25.6446 18.6367V17.7227H26.3555V18.6367C26.3555 18.8388 26.4358 19.0325 26.5786 19.1754C26.7215 19.3182 26.9152 19.3985 27.1173 19.3985C27.3193 19.3985 27.513 19.3182 27.6559 19.1754C27.7987 19.0325 27.879 18.8388 27.879 18.6367V17.5521C28.4315 17.367 28.9247 17.0378 29.3075 16.5985C29.6903 16.1592 29.9488 15.6256 30.0565 15.0529C30.1642 14.4802 30.117 13.8892 29.9199 13.3409C29.7228 12.7925 29.3829 12.3067 28.9352 11.9336C29.3829 11.5606 29.7228 11.0748 29.9199 10.5264C30.117 9.97804 30.1642 9.387 30.0565 8.81432C29.9488 8.24165 29.6903 7.70809 29.3075 7.26876C28.9247 6.82942 28.4315 6.50023 27.879 6.31519V5.2305C27.879 5.02848 27.7987 4.83473 27.6559 4.69188C27.513 4.54903 27.3193 4.46878 27.1173 4.46878C26.9152 4.46878 26.7215 4.54903 26.5786 4.69188C26.4358 4.83473 26.3555 5.02848 26.3555 5.2305V6.14456H25.6446V5.2305C25.6446 5.02848 25.5644 4.83473 25.4215 4.69188C25.2787 4.54903 25.0849 4.46878 24.8829 4.46878C24.6809 4.46878 24.4871 4.54903 24.3443 4.69188C24.2014 4.83473 24.1212 5.02848 24.1212 5.2305V6.14456H22.6485C22.4465 6.14456 22.2527 6.22481 22.1099 6.36766C21.967 6.51051 21.8868 6.70426 21.8868 6.90628C21.8868 7.1083 21.967 7.30205 22.1099 7.4449C22.2527 7.58775 22.4465 7.668 22.6485 7.668H23.5626V11.1719H22.6485C22.4465 11.1719 22.2527 11.2522 22.1099 11.395C21.967 11.5379 21.8868 11.7316 21.8868 11.9336C21.8868 12.1356 21.967 12.3294 22.1099 12.4722C22.2527 12.6151 22.4465 12.6953 22.6485 12.6953H23.5626V16.1992H22.6485ZM25.086 7.668H26.838C27.3026 7.668 27.7482 7.85258 28.0768 8.18113C28.4053 8.50969 28.5899 8.95531 28.5899 9.41995C28.5899 9.8846 28.4053 10.3302 28.0768 10.6588C27.7482 10.9873 27.3026 11.1719 26.838 11.1719H25.086V7.668ZM26.838 12.6953C27.3026 12.6953 27.7482 12.8799 28.0768 13.2085C28.4053 13.537 28.5899 13.9826 28.5899 14.4473C28.5899 14.9119 28.4053 15.3576 28.0768 15.6861C27.7482 16.0147 27.3026 16.1992 26.838 16.1992H25.086V12.6953H26.838Z" fill="black"></path><path d="M49.3594 31.84C49.5614 31.84 49.7551 31.7597 49.898 31.6169C50.0408 31.474 50.1211 31.2803 50.1211 31.0783V27.7775H51.2383C51.4403 27.7775 51.634 27.6972 51.7769 27.5544C51.9197 27.4115 52 27.2178 52 27.0158V22.9533C52.0001 22.8221 51.9663 22.6931 51.9019 22.5789C51.8375 22.4647 51.7446 22.369 51.6323 22.3012L37.766 13.9315C38.0559 12.2201 37.9689 10.466 37.5112 8.79164C37.0534 7.11729 36.2359 5.56295 35.1157 4.23702C33.9955 2.9111 32.5995 1.84552 31.0251 1.11459C29.4507 0.383671 27.7358 0.00500488 26 0.00500488C24.2642 0.00500488 22.5493 0.383671 20.9749 1.11459C19.4005 1.84552 18.0045 2.9111 16.8843 4.23702C15.764 5.56295 14.9466 7.11729 14.4888 8.79164C14.0311 10.466 13.9441 12.2201 14.234 13.9315L0.367652 22.3012C0.255494 22.3692 0.162738 22.4648 0.0983371 22.5791C0.0339364 22.6933 6.6338e-05 22.8221 -3.8147e-06 22.9533L-3.8147e-06 27.0158C-3.8147e-06 27.2178 0.0802485 27.4115 0.223098 27.5544C0.365948 27.6972 0.559695 27.7775 0.761715 27.7775H1.8789V31.0783C1.8789 31.2803 1.95915 31.474 2.102 31.6169C2.24485 31.7597 2.4386 31.84 2.64062 31.84H4.92578V42.3517H2.64062C2.4386 42.3517 2.24485 42.432 2.102 42.5748C1.95915 42.7177 1.8789 42.9114 1.8789 43.1134V46.4142H0.761715C0.559695 46.4142 0.365948 46.4945 0.223098 46.6373C0.0802485 46.7802 -3.8147e-06 46.9739 -3.8147e-06 47.1759L-3.8147e-06 51.2384C-3.8147e-06 51.4404 0.0802485 51.6342 0.223098 51.777C0.365948 51.9199 0.559695 52.0001 0.761715 52.0001H51.2383C51.4403 52.0001 51.634 51.9199 51.7769 51.777C51.9197 51.6342 52 51.4404 52 51.2384V47.1759C52 46.9739 51.9197 46.7802 51.7769 46.6373C51.634 46.4945 51.4403 46.4142 51.2383 46.4142H50.1211V43.1134C50.1211 42.9114 50.0408 42.7177 49.898 42.5748C49.7551 42.432 49.5614 42.3517 49.3594 42.3517H47.0742V31.84H49.3594ZM26 1.52358C28.0589 1.52358 30.0716 2.13412 31.7836 3.27801C33.4955 4.42189 34.8298 6.04773 35.6177 7.94994C36.4056 9.85215 36.6118 11.9453 36.2101 13.9647C35.8084 15.984 34.817 17.8389 33.3611 19.2948C31.9052 20.7507 30.0503 21.7422 28.0309 22.1439C26.0115 22.5455 23.9184 22.3394 22.0162 21.5515C20.114 20.7635 18.4882 19.4293 17.3443 17.7173C16.2004 16.0054 15.5898 13.9927 15.5898 11.9337C15.5928 9.1737 16.6905 6.52755 18.6422 4.57591C20.5938 2.62427 23.24 1.52654 26 1.52358ZM1.52343 23.3829L14.6067 15.4864C15.3643 17.9154 16.8784 20.0388 18.9281 21.5465C20.9777 23.0542 23.4556 23.8674 26 23.8674C28.5444 23.8674 31.0223 23.0542 33.0719 21.5465C35.1215 20.0388 36.6357 17.9154 37.3933 15.4864L50.4766 23.3829V26.254H1.52343V23.3829ZM3.40234 27.7775H48.5977V30.3166H3.40234V27.7775ZM34.5485 42.3517V31.84H41.4883V42.3517H34.5485ZM17.4515 31.84V42.3517H10.5117V31.84H17.4515ZM18.9749 31.84H21.514V42.3517H18.9749V31.84ZM23.0374 31.84H28.9626V42.3517H23.0374V31.84ZM30.486 31.84H33.0251V42.3517H30.486V31.84ZM6.44921 31.84H8.98828V42.3517H6.44921V31.84ZM50.4766 50.4767H1.52343V47.9376H50.4766V50.4767ZM48.5977 46.4142H3.40234V43.8751H48.5977V46.4142ZM45.5508 42.3517H43.0117V31.84H45.5508V42.3517Z" fill="black"></path></g><defs><clipPath id="clip0_5008_31582"><rect width="52" height="52" fill="white"></rect></clipPath></defs></svg> 