
<?xml version="1.0" encoding="UTF-8"?> 
<svg xmlns="http://www.w3.org/2000/svg" width="52" height="52" viewBox="0 0 52 52" fill="none"><path d="M37.2979 0.999999H14.702C12.6574 0.999999 11 2.60781 11 4.59123V44H41V4.59123C41 2.60781 39.3426 0.999999 37.2979 0.999999Z" stroke="#FFD21C" stroke-width="1.5" stroke-miterlimit="10" stroke-linecap="round" stroke-linejoin="round"></path><path d="M23.7148 47.7907H28.2852" stroke="#FFD21C" stroke-width="1.5" stroke-miterlimit="10" stroke-linecap="round" stroke-linejoin="round"></path><path d="M28.918 20.7891H24.1445C23.8641 20.7891 23.6367 20.5617 23.6367 20.2812V15.5078C23.6367 15.2273 23.8641 15 24.1445 15H28.918C29.1984 15 29.4258 15.2273 29.4258 15.5078V20.2812C29.4258 20.5617 29.1984 20.7891 28.918 20.7891Z" stroke="#FFD21C" stroke-width="1.5" stroke-miterlimit="10" stroke-linecap="round" stroke-linejoin="round"></path><path d="M20.2812 20.7891H15.5078C15.2274 20.7891 15 20.5617 15 20.2812V15.5078C15 15.2273 15.2274 15 15.5078 15H20.2812C20.5618 15 20.7891 15.2273 20.7891 15.5078V20.2812C20.7891 20.5617 20.5618 20.7891 20.2812 20.7891Z" stroke="#FFD21C" stroke-width="1.5" stroke-miterlimit="10" stroke-linecap="round" stroke-linejoin="round"></path><path d="M37.5547 20.7891H32.7812C32.5007 20.7891 32.2734 20.5617 32.2734 20.2812V15.5078C32.2734 15.2273 32.5007 15 32.7812 15H37.5547C37.8351 15 38.0625 15.2273 38.0625 15.5078V20.2812C38.0625 20.5617 37.8351 20.7891 37.5547 20.7891Z" stroke="#FFD21C" stroke-width="1.5" stroke-miterlimit="10" stroke-linecap="round" stroke-linejoin="round"></path><path d="M28.918 30.2895H24.1445C23.8641 30.2895 23.6367 30.0622 23.6367 29.7817V25.0082C23.6367 24.7278 23.8641 24.5004 24.1445 24.5004H28.918C29.1984 24.5004 29.4258 24.7278 29.4258 25.0082V29.7817C29.4258 30.0622 29.1984 30.2895 28.918 30.2895Z" stroke="#FFD21C" stroke-width="1.5" stroke-miterlimit="10" stroke-linecap="round" stroke-linejoin="round"></path><path d="M20.2812 30.2895H15.5078C15.2274 30.2895 15 30.0622 15 29.7817V25.0082C15 24.7278 15.2274 24.5004 15.5078 24.5004H20.2812C20.5618 24.5004 20.7891 24.7278 20.7891 25.0082V29.7817C20.7891 30.0622 20.5618 30.2895 20.2812 30.2895Z" stroke="#FFD21C" stroke-width="1.5" stroke-miterlimit="10" stroke-linecap="round" stroke-linejoin="round"></path><path d="M37.5547 30.2895H32.7812C32.5007 30.2895 32.2734 30.0622 32.2734 29.7817V25.0082C32.2734 24.7278 32.5007 24.5004 32.7812 24.5004H37.5547C37.8351 24.5004 38.0625 24.7278 38.0625 25.0082V29.7817C38.0625 30.0622 37.8351 30.2895 37.5547 30.2895Z" stroke="#FFD21C" stroke-width="1.5" stroke-miterlimit="10" stroke-linecap="round" stroke-linejoin="round"></path><path d="M37.5312 5.32379C37.5312 6.05301 36.9402 6.6441 36.2109 6.6441C35.4817 6.6441 34.8906 6.05301 34.8906 5.32379C34.8906 4.59457 35.4817 4.00348 36.2109 4.00348C36.9402 4.00348 37.5312 4.59457 37.5312 5.32379Z" stroke="#FFD21C" stroke-width="1.5" stroke-miterlimit="10" stroke-linecap="round" stroke-linejoin="round"></path><path d="M11 47.3429C11 49.3627 12.6574 51 14.7021 51H37.2979C39.3426 51 41 49.3627 41 47.3429V44H11V47.3429Z" stroke="#FFD21C" stroke-width="1.5" stroke-miterlimit="10" stroke-linecap="round" stroke-linejoin="round"></path></svg> 