
<?xml version="1.0" encoding="UTF-8"?> 
<svg xmlns="http://www.w3.org/2000/svg" width="52" height="52" viewBox="0 0 52 52" fill="none"><g clip-path="url(#clip0_5008_31732)"><path d="M42.7743 26C42.7743 26.5608 42.3195 27.0156 41.7586 27.0156C41.1977 27.0156 40.743 26.5608 40.743 26C40.743 25.4391 41.1977 24.9843 41.7586 24.9843C42.3195 24.9843 42.7743 25.4391 42.7743 26Z" fill="#FFD21C"></path><path d="M25.9999 26.3987L18.4785 21.1666L25.9999 15.9347L33.5213 21.1666L25.9999 26.3987Z" stroke="#FFD21C" stroke-width="2.03125" stroke-miterlimit="10" stroke-linecap="round" stroke-linejoin="round"></path><path d="M33.5211 30.8333L25.9997 36.0653L18.4784 30.8333" stroke="#FFD21C" stroke-width="2.03125" stroke-miterlimit="10" stroke-linecap="round" stroke-linejoin="round"></path><path d="M33.5212 21.1666V30.8333" stroke="#FFD21C" stroke-width="2.03125" stroke-miterlimit="10" stroke-linecap="round" stroke-linejoin="round"></path><path d="M18.4784 21.1666V30.8333" stroke="#FFD21C" stroke-width="2.03125" stroke-miterlimit="10" stroke-linecap="round" stroke-linejoin="round"></path><path d="M25.9998 26.3987V36.0653" stroke="#FFD21C" stroke-width="2.03125" stroke-miterlimit="10" stroke-linecap="round" stroke-linejoin="round"></path><path d="M25.9998 36.1645V44.5971" stroke="#FFD21C" stroke-width="2.03125" stroke-miterlimit="10" stroke-linecap="round" stroke-linejoin="round"></path><path d="M29.1682 47.7654C29.1682 49.5151 27.7497 50.9335 26 50.9335C24.2502 50.9335 22.8318 49.5151 22.8318 47.7654C22.8318 46.0156 24.2502 44.5972 26 44.5972C27.7497 44.5972 29.1682 46.0156 29.1682 47.7654Z" stroke="#FFD21C" stroke-width="2.03125" stroke-miterlimit="10" stroke-linecap="round" stroke-linejoin="round"></path><path d="M25.9998 15.8355V7.40286" stroke="#FFD21C" stroke-width="2.03125" stroke-miterlimit="10" stroke-linecap="round" stroke-linejoin="round"></path><path d="M22.8318 4.23454C22.8318 2.48483 24.2502 1.0664 25.9999 1.0664C27.7497 1.0664 29.1682 2.48483 29.1682 4.23454C29.1682 5.98436 27.7497 7.40279 25.9999 7.40279C24.2502 7.40279 22.8318 5.98436 22.8318 4.23454Z" stroke="#FFD21C" stroke-width="2.03125" stroke-miterlimit="10" stroke-linecap="round" stroke-linejoin="round"></path><path d="M1.07782 26H18.2409" stroke="#FFD21C" stroke-width="2.03125" stroke-miterlimit="10" stroke-linecap="round" stroke-linejoin="round"></path><path d="M37.2061 26H33.7586" stroke="#FFD21C" stroke-width="2.03125" stroke-miterlimit="10" stroke-linecap="round" stroke-linejoin="round"></path><path d="M50.7979 26H46.3114" stroke="#FFD21C" stroke-width="2.03125" stroke-miterlimit="10" stroke-linecap="round" stroke-linejoin="round"></path><path d="M31.9395 31.9396L36.8671 36.8672" stroke="#FFD21C" stroke-width="2.03125" stroke-miterlimit="10" stroke-linecap="round" stroke-linejoin="round"></path><path d="M20.0603 20.0604L15.1327 15.1328" stroke="#FFD21C" stroke-width="2.03125" stroke-miterlimit="10" stroke-linecap="round" stroke-linejoin="round"></path><path d="M15.7909 13.6365C15.7909 14.7584 14.8815 15.6678 13.7596 15.6678C12.6378 15.6678 11.7284 14.7584 11.7284 13.6365C11.7284 12.5146 12.6378 11.6053 13.7596 11.6053C14.8815 11.6053 15.7909 12.5146 15.7909 13.6365Z" stroke="#FFD21C" stroke-width="2.03125" stroke-miterlimit="10" stroke-linecap="round" stroke-linejoin="round"></path><path d="M40.5516 38.3973C40.5516 39.5191 39.6421 40.4286 38.5204 40.4286C37.3985 40.4286 36.4891 39.5191 36.4891 38.3973C36.4891 37.2754 37.3985 36.3661 38.5204 36.3661C39.6421 36.3661 40.5516 37.2754 40.5516 38.3973Z" stroke="#FFD21C" stroke-width="2.03125" stroke-miterlimit="10" stroke-linecap="round" stroke-linejoin="round"></path><path d="M32.3036 19.9762L36.9903 15.2895" stroke="#FFD21C" stroke-width="2.03125" stroke-miterlimit="10" stroke-linecap="round" stroke-linejoin="round"></path><path d="M20.1833 32.0962L15.2557 37.0239" stroke="#FFD21C" stroke-width="2.03125" stroke-miterlimit="10" stroke-linecap="round" stroke-linejoin="round"></path><path d="M13.7596 36.3661C14.8815 36.3661 15.7909 37.2754 15.7909 38.3973C15.7909 39.5191 14.8815 40.4286 13.7596 40.4286C12.6378 40.4286 11.7284 39.5191 11.7284 38.3973C11.7284 37.2754 12.6378 36.3661 13.7596 36.3661Z" stroke="#FFD21C" stroke-width="2.03125" stroke-miterlimit="10" stroke-linecap="round" stroke-linejoin="round"></path><path d="M38.5204 11.6053C39.6421 11.6053 40.5516 12.5146 40.5516 13.6365C40.5516 14.7584 39.6421 15.6678 38.5204 15.6678C37.3985 15.6678 36.4891 14.7584 36.4891 13.6365C36.4891 12.5146 37.3985 11.6053 38.5204 11.6053Z" stroke="#FFD21C" stroke-width="2.03125" stroke-miterlimit="10" stroke-linecap="round" stroke-linejoin="round"></path><path d="M49.0038 23.5117L50.9332 26L49.0038 28.4883" stroke="#FFD21C" stroke-width="2.03125" stroke-miterlimit="10" stroke-linecap="round" stroke-linejoin="round"></path><path d="M3.0073 28.4883L1.07782 26L3.0073 23.5117" stroke="#FFD21C" stroke-width="2.03125" stroke-miterlimit="10" stroke-linecap="round" stroke-linejoin="round"></path></g><defs><clipPath id="clip0_5008_31732"><rect width="52" height="52" fill="white"></rect></clipPath></defs></svg> 