
<?xml version="1.0" encoding="UTF-8"?> 
<svg xmlns="http://www.w3.org/2000/svg" width="52" height="45" viewBox="0 0 52 45" fill="none"><path d="M40.5 9H44.5C46.1569 9 47.5 10.3431 47.5 12V19" stroke="#FFD21C" stroke-width="1.5"></path><path d="M48.5 33.1667V40.9652C48.5 42.6356 47.1357 43.9843 45.4654 43.965L4.46543 43.4925C2.82217 43.4736 1.5 42.1361 1.5 40.4927V5" stroke="#FFD21C" stroke-width="1.5"></path><path d="M40.5 4V9H5.5C3.29086 9 1.5 7.20914 1.5 5C1.5 2.79086 3.29086 1 5.5 1H37.5C39.1569 1 40.5 2.34315 40.5 4Z" stroke="#FFD21C" stroke-width="1.5"></path><path d="M34.25 26C34.25 21.9959 37.4959 18.75 41.5 18.75H49.8636C50.3532 18.75 50.75 19.1468 50.75 19.6364V32.3636C50.75 32.8532 50.3532 33.25 49.8636 33.25H41.5C37.4959 33.25 34.25 30.0041 34.25 26Z" stroke="#FFD21C" stroke-width="1.5"></path><circle cx="41" cy="26.5" r="2.75" stroke="#FFD21C" stroke-width="1.5"></circle><g clip-path="url(#clip0_5008_31720)"><path d="M25.157 26.9679C24.6923 26.3971 23.9912 26.005 23.0535 25.7919C24.2476 25.2134 24.7723 24.2314 24.6282 22.8458C24.58 22.3433 24.4339 21.9079 24.1894 21.5388C23.9447 21.1696 23.6145 20.8728 23.1976 20.6483C22.781 20.4235 22.3278 20.2523 21.8393 20.1344C21.3506 20.0164 20.7896 19.9307 20.1565 19.8775V17H18.3057V19.7975C17.9852 19.7975 17.4964 19.8051 16.8394 19.8204V17H14.9884V19.8775C14.7239 19.8851 14.3353 19.889 13.8225 19.889L11.2744 19.8775V21.7501H12.6085C13.2175 21.7501 13.5741 22.009 13.6782 22.5266V25.8037C13.7584 25.8037 13.8225 25.8077 13.8706 25.8153H13.6782V30.4053C13.6142 30.7935 13.3818 30.9877 12.9811 30.9877H11.6472L11.2745 33.0773H13.6784C13.8307 33.0773 14.0509 33.0793 14.3395 33.0827C14.6279 33.0865 14.8442 33.0885 14.9884 33.0885V36.0001H16.8398V33.1227C17.1763 33.1305 17.665 33.1342 18.3061 33.1342V36.0001H20.1569V33.0885C20.8141 33.0581 21.397 33.0013 21.9056 32.9172C22.4145 32.8332 22.9014 32.7021 23.366 32.5231C23.8306 32.3443 24.2192 32.1215 24.5317 31.8551C24.8443 31.5889 25.1025 31.25 25.3072 30.8388C25.5112 30.4277 25.6416 29.9519 25.6975 29.4113C25.8021 28.3535 25.6217 27.5389 25.157 26.9679ZM16.8754 21.8754C16.9316 21.8754 17.0898 21.8735 17.3502 21.8696C17.6108 21.8657 17.827 21.862 17.9993 21.8581C18.1716 21.8544 18.404 21.8639 18.6966 21.8867C18.989 21.9096 19.2354 21.9401 19.4357 21.9781C19.6359 22.0161 19.8565 22.0789 20.0967 22.1664C20.3373 22.2539 20.5294 22.3605 20.6735 22.4861C20.8179 22.6117 20.94 22.7716 21.04 22.9658C21.1403 23.1598 21.1904 23.3825 21.1904 23.6336C21.1904 23.8468 21.1544 24.041 21.0824 24.2162C21.0105 24.3912 20.902 24.5378 20.7579 24.6558C20.6138 24.7738 20.4653 24.8767 20.313 24.9641C20.1609 25.0516 19.9664 25.1221 19.7301 25.1753C19.4939 25.2286 19.2876 25.2705 19.1114 25.3009C18.9351 25.3313 18.7148 25.3523 18.4503 25.3637C18.1858 25.3751 17.9854 25.3828 17.8493 25.3866C17.713 25.3903 17.5267 25.3903 17.2903 25.3866C17.0538 25.3828 16.9157 25.3808 16.8756 25.3808V21.8754H16.8754V21.8754ZM21.9298 29.6513C21.8535 29.8264 21.7555 29.9788 21.6354 30.1083C21.515 30.2375 21.3567 30.3518 21.1605 30.4506C20.9643 30.5497 20.7738 30.6295 20.5897 30.6904C20.4053 30.7515 20.1828 30.8045 19.9227 30.8504C19.6619 30.8961 19.4337 30.9282 19.2372 30.9474C19.041 30.9665 18.8067 30.9816 18.5341 30.9931C18.2618 31.0043 18.0493 31.0101 17.8971 31.0101C17.7449 31.0101 17.5525 31.0081 17.3201 31.0043C17.0876 31.0008 16.9395 30.9989 16.8754 30.9989V27.1393C16.9394 27.1393 17.1297 27.1355 17.4463 27.1278C17.7629 27.1201 18.0212 27.1165 18.2215 27.1165C18.4218 27.1165 18.6984 27.1278 19.0511 27.1508C19.4035 27.1735 19.7 27.2076 19.9406 27.2532C20.1809 27.299 20.4431 27.3693 20.7278 27.4646C21.0121 27.5597 21.2426 27.6757 21.419 27.8128C21.5953 27.95 21.7434 28.1248 21.8636 28.338C21.984 28.5511 22.0441 28.7948 22.0441 29.0689C22.0441 29.2822 22.006 29.4761 21.9298 29.6513Z" fill="#FFD21C"></path></g><defs><clipPath id="clip0_5008_31720"><rect width="20" height="19" fill="white" transform="translate(8.5 17)"></rect></clipPath></defs></svg> 