
<?xml version="1.0" encoding="UTF-8"?> <svg xmlns="http://www.w3.org/2000/svg" width="60" height="52" viewBox="0 0 60 52" fill="none"><g clip-path="url(#clip0_3995_17592)"><path d="M26.2504 45.6128C23.0387 45.6128 20.1755 45.022 17.6607 43.8403C15.161 42.6587 13.1764 41.0301 11.7069 38.9546C10.2374 36.8792 9.47236 34.5007 9.41176 31.8192H18.9559C19.062 33.622 19.8195 35.0839 21.2284 36.205C22.6373 37.3261 24.3113 37.8866 26.2504 37.8866C27.7957 37.8866 29.1591 37.5457 30.3408 36.864C31.5376 36.1671 32.4693 35.2051 33.1359 33.978C33.8176 32.7358 34.1585 31.3117 34.1585 29.7059C34.1585 28.0697 33.81 26.6305 33.1132 25.3883C32.4314 24.146 31.4846 23.1764 30.2726 22.4796C29.0607 21.7827 27.6745 21.4267 26.1141 21.4115C24.7506 21.4115 23.4251 21.6918 22.1373 22.2523C20.8648 22.8128 19.8725 23.5779 19.1605 24.5475L10.4116 22.9795L12.6159 -1.5627H41.0666V6.48168H20.7284L19.5241 18.1392H19.7967C20.6148 16.9879 21.8495 16.0334 23.5008 15.276C25.1521 14.5185 27.0003 14.1398 29.0455 14.1398C31.8482 14.1398 34.3478 14.7988 36.5445 16.1168C38.7412 17.4348 40.4758 19.2451 41.7484 21.5479C43.0209 23.8354 43.6496 26.4714 43.6345 29.4559C43.6496 32.5918 42.9225 35.3794 41.453 37.8184C39.9986 40.2423 37.961 42.1512 35.3401 43.5449C32.7344 44.9235 29.7045 45.6128 26.2504 45.6128ZM54.7466 45.5674C53.2468 45.5674 51.9591 45.0372 50.8835 43.9767C49.8231 42.9011 49.2928 41.6134 49.2928 40.1136C49.2928 38.6289 49.8231 37.3564 50.8835 36.2959C51.9591 35.2354 53.2468 34.7052 54.7466 34.7052C56.201 34.7052 57.4736 35.2354 58.5643 36.2959C59.6551 37.3564 60.2005 38.6289 60.2005 40.1136C60.2005 41.1134 59.9429 42.03 59.4278 42.8632C58.9279 43.6813 58.2689 44.3403 57.4508 44.8402C56.6328 45.325 55.7314 45.5674 54.7466 45.5674Z" fill="#FFDA44"></path><path d="M14.9185 46.5825L14.4911 47.4866L14.4932 47.4876L14.9185 46.5825ZM8.96473 41.6968L9.78087 41.119L8.96473 41.6968ZM6.66958 34.5614V33.5614H5.64672L5.66983 34.584L6.66958 34.5614ZM16.2138 34.5614L17.212 34.5027L17.1567 33.5614H16.2138V34.5614ZM18.4862 38.9472L19.1088 38.1647L18.4862 38.9472ZM27.5986 39.6062L28.0983 40.4724L28.1018 40.4704L27.5986 39.6062ZM30.3937 36.7202L29.517 36.2391L29.515 36.2429L30.3937 36.7202ZM30.371 28.1304L29.4943 28.6116L29.4988 28.6197L30.371 28.1304ZM27.5304 25.2217L27.032 26.0886L27.5304 25.2217ZM23.3719 24.1537L23.3816 23.1537H23.3719V24.1537ZM19.3952 24.9945L18.996 24.0776L18.9921 24.0793L19.3952 24.9945ZM16.4183 27.2896L16.2419 28.274L16.8554 28.3839L17.2243 27.8816L16.4183 27.2896ZM7.66944 25.7217L6.67345 25.6322L6.59152 26.5444L7.49303 26.706L7.66944 25.7217ZM9.8737 1.17948V0.179483H8.95949L8.87771 1.09003L9.8737 1.17948ZM38.3245 1.17948H39.3245V0.179483H38.3245V1.17948ZM38.3245 9.22387V10.2239H39.3245V9.22387H38.3245ZM17.9863 9.22387V8.22387H17.0842L16.9915 9.1211L17.9863 9.22387ZM16.7819 20.8814L15.7872 20.7786L15.6732 21.8814H16.7819V20.8814ZM17.0546 20.8814V21.8814H17.5708L17.8697 21.4606L17.0546 20.8814ZM20.7586 18.0182L21.1756 18.9271L20.7586 18.0182ZM33.8023 18.859L34.3168 18.0015L33.8023 18.859ZM39.0062 24.29L38.1309 24.7737L38.1323 24.7762L39.0062 24.29ZM40.8923 32.1981L39.8923 32.193L39.8923 32.2029L40.8923 32.1981ZM38.7108 40.5606L37.8542 40.0446L37.8533 40.0461L38.7108 40.5606ZM32.5979 46.2871L33.0656 47.171L33.0675 47.17L32.5979 46.2871ZM23.5082 47.355C20.4207 47.355 17.7063 46.7876 15.3438 45.6775L14.4932 47.4876C17.1603 48.7408 20.1724 49.355 23.5082 49.355V47.355ZM15.3459 45.6785C12.9877 44.5637 11.1424 43.042 9.78087 41.119L8.14858 42.2747C9.72602 44.5026 11.8499 46.238 14.4911 47.4866L15.3459 45.6785ZM9.78087 41.119C8.433 39.2153 7.72568 37.0325 7.66932 34.5388L5.66983 34.584C5.73467 37.4532 6.55745 40.0274 8.14858 42.2747L9.78087 41.119ZM6.66958 35.5614H16.2138V33.5614H6.66958V35.5614ZM15.2155 34.6201C15.3382 36.7056 16.2315 38.4311 17.8635 39.7297L19.1088 38.1647C17.923 37.2212 17.3015 36.0228 17.212 34.5027L15.2155 34.6201ZM17.8635 39.7297C19.4635 41.0028 21.3616 41.6288 23.5082 41.6288V39.6288C21.7767 39.6288 20.3267 39.1337 19.1088 38.1647L17.8635 39.7297ZM23.5082 41.6288C25.2052 41.6288 26.7454 41.2529 28.0983 40.4724L27.0989 38.74C26.0885 39.3229 24.9018 39.6288 23.5082 39.6288V41.6288ZM28.1018 40.4704C29.4582 39.6805 30.5192 38.5841 31.2724 37.1975L29.515 36.2429C28.935 37.3105 28.1326 38.1381 27.0954 38.742L28.1018 40.4704ZM31.2704 37.2013C32.0433 35.7929 32.4163 34.1994 32.4163 32.4481H30.4163C30.4163 33.9084 30.1076 35.163 29.517 36.2391L31.2704 37.2013ZM32.4163 32.4481C32.4163 30.6663 32.0356 29.0539 31.2431 27.6412L29.4988 28.6197C30.1001 29.6915 30.4163 30.9575 30.4163 32.4481H32.4163ZM31.2476 27.6493C30.4789 26.2485 29.4022 25.1445 28.0289 24.3548L27.032 26.0886C28.0826 26.6928 28.8996 27.5278 29.4943 28.6115L31.2476 27.6493ZM28.0289 24.3548C26.6514 23.5628 25.0933 23.1704 23.3816 23.1537L23.3622 25.1537C24.7713 25.1673 25.9855 25.4869 27.032 26.0886L28.0289 24.3548ZM23.3719 23.1537C21.8669 23.1537 20.4058 23.4639 18.996 24.0776L19.7943 25.9114C20.9599 25.404 22.1499 25.1537 23.3719 25.1537V23.1537ZM18.9921 24.0793C17.5845 24.6993 16.4432 25.5663 15.6123 26.6977L17.2243 27.8816C17.8174 27.0739 18.6607 26.4107 19.7983 25.9097L18.9921 24.0793ZM16.5947 26.3053L7.84585 24.7374L7.49303 26.706L16.2419 28.274L16.5947 26.3053ZM8.66543 25.8111L10.8697 1.26894L8.87771 1.09003L6.67345 25.6322L8.66543 25.8111ZM9.8737 2.17948H38.3245V0.179483H9.8737V2.17948ZM37.3245 1.17948V9.22387H39.3245V1.17948H37.3245ZM38.3245 8.22387H17.9863V10.2239H38.3245V8.22387ZM16.9915 9.1211L15.7872 20.7786L17.7766 20.9842L18.981 9.32664L16.9915 9.1211ZM16.7819 21.8814H17.0546V19.8814H16.7819V21.8814ZM17.8697 21.4606C18.5612 20.4875 19.639 19.6319 21.1756 18.9271L20.3417 17.1092C18.5757 17.9193 17.1841 18.9726 16.2394 20.3022L17.8697 21.4606ZM21.1756 18.9271C22.6805 18.2367 24.3839 17.8819 26.3033 17.8819V15.8819C24.1324 15.8819 22.1393 16.2846 20.3417 17.1092L21.1756 18.9271ZM26.3033 17.8819C28.9423 17.8819 31.261 18.5003 33.2878 19.7164L34.3168 18.0015C31.9503 16.5815 29.2696 15.8819 26.3033 15.8819V17.8819ZM33.2878 19.7164C35.3292 20.9413 36.9412 22.6209 38.1309 24.7737L39.8814 23.8064C38.5261 21.3538 36.6688 19.4126 34.3168 18.0015L33.2878 19.7164ZM38.1323 24.7762C39.3102 26.8936 39.9067 29.356 39.8923 32.193L41.8923 32.2032C41.9082 29.0713 41.2473 26.2617 39.8801 23.8039L38.1323 24.7762ZM39.8923 32.2029C39.9067 35.1745 39.2196 37.7783 37.8542 40.0446L39.5673 41.0767C41.141 38.4648 41.9082 35.4935 41.8923 32.1933L39.8923 32.2029ZM37.8533 40.0461C36.4972 42.3063 34.5973 44.0913 32.1284 45.4042L33.0675 47.17C35.8403 45.6955 38.0157 43.6627 39.5683 41.0751L37.8533 40.0461ZM32.1303 45.4032C29.6916 46.6935 26.8273 47.355 23.5082 47.355V49.355C27.0973 49.355 30.2929 48.638 33.0656 47.171L32.1303 45.4032ZM48.1413 46.7189L47.4292 47.421L47.4342 47.426L47.4393 47.431L48.1413 46.7189ZM48.1413 39.0381L47.4392 38.326L47.4342 38.331L48.1413 39.0381ZM55.8221 39.0381L55.125 39.7551H55.1251L55.8221 39.0381ZM56.6856 45.6054L55.835 45.0796L55.8324 45.0839L56.6856 45.6054ZM54.7086 47.5824L55.2185 48.4428L55.2301 48.4357L54.7086 47.5824ZM52.0045 47.3096C50.7695 47.3096 49.7334 46.8842 48.8434 46.0068L47.4393 47.431C48.7005 48.6745 50.2398 49.3096 52.0045 49.3096V47.3096ZM48.8534 46.0168C47.976 45.1268 47.5506 44.0907 47.5506 42.8558H45.5506C45.5506 44.6204 46.1858 46.1597 47.4292 47.421L48.8534 46.0168ZM47.5506 42.8558C47.5506 41.6393 47.9734 40.6203 48.8484 39.7452L47.4342 38.331C46.1884 39.5768 45.5506 41.1029 45.5506 42.8558H47.5506ZM48.8434 39.7502C49.7334 38.8727 50.7695 38.4474 52.0045 38.4474V36.4474C50.2398 36.4474 48.7005 37.0825 47.4393 38.326L48.8434 39.7502ZM52.0045 38.4474C53.1855 38.4474 54.2114 38.8668 55.125 39.7551L56.5192 38.3211C55.2513 37.0884 53.7321 36.4474 52.0045 36.4474V38.4474ZM55.1251 39.7551C56.0275 40.6325 56.4583 41.6486 56.4583 42.8558H58.4583C58.4583 41.0936 57.7983 39.5646 56.5192 38.3211L55.1251 39.7551ZM56.4583 42.8558C56.4583 43.6739 56.2504 44.4078 55.8351 45.0796L57.5362 46.1312C58.1511 45.1366 58.4583 44.0373 58.4583 42.8558H56.4583ZM55.8324 45.0839C55.4152 45.7667 54.8699 46.3119 54.1872 46.7291L55.2301 48.4357C56.1835 47.853 56.9563 47.0803 57.5389 46.1268L55.8324 45.0839ZM54.1988 46.7221C53.5407 47.1121 52.8165 47.3096 52.0045 47.3096V49.3096C53.1619 49.3096 54.2404 49.0223 55.2184 48.4427L54.1988 46.7221Z" fill="#121519"></path></g><defs><clipPath id="clip0_3995_17592"><rect width="60" height="52" fill="white"></rect></clipPath></defs></svg> 