
<svg width="146" height="137" viewBox="0 0 146 137" fill="none" xmlns="http://www.w3.org/2000/svg">
<path d="M43.6292 121.317C38.067 116.739 32.1369 112.358 28.0834 106.178C19.5486 95.279 12.988 82.6684 8.49164 69.4139C5.78182 60.7922 4.85103 51.5501 1.34553 43.2661C-2.3101 37.2434 1.97607 30.6711 8.28146 28.7552C11.0889 28.1899 16.0206 25.418 10.0605 27.4046C4.72342 31.5035 4.20547 23.6827 9.67766 23.188C13.4159 22.6698 14.7895 19.4739 13.5134 16.5922C9.4975 13.8517 23.2418 10.8522 16.3284 6.76121C9.12969 -1.36581 26.402 -2.92839 22.1383 6.29793C21.1175 13.3963 34.2087 4.99447 31.1686 13.1922C34.2537 17.1261 42.7285 14.0873 42.5183 19.6074C47.0146 19.9293 48.5609 23.8868 52.7796 24.1931C57.1558 26.2582 65.0901 27.8836 66.5764 33.0425C62.2302 36.6388 52.1866 25.6222 51.6986 35.5709C53.0123 50.2702 52.6745 65.4092 57.8164 79.4097C60.2485 87.8822 66.141 94.5566 71.4631 101.152C76.5599 107.615 83.4583 112.169 90.4918 116.001C96.6621 119.04 103.313 121.058 110.031 122.33C112.756 120.147 117.568 112.036 121.824 115.459C122.026 119.307 113.386 123.492 121.418 123.068C126.14 121.576 129.413 126.884 133.293 122.094C136.874 126.531 148.171 119.26 145.627 128.329C142.181 130.653 137.159 129.248 133.706 132.451C128.016 129.475 123.49 135.105 117.192 134.399C110.204 135.71 103.08 136.236 95.9941 136.244C84.3591 135.286 72.4839 134.878 61.4195 130.645C55.1891 128.745 49.1089 125.031 43.6292 121.317ZM53.4551 125.769C59.5428 128.517 65.4954 131.423 72.1687 132.302C82.7527 133.841 93.6821 136.212 104.304 134.053C99.4996 131.784 94.5228 134.933 89.7337 132.428C83.9913 133.715 77.8285 132.098 71.9885 131.297C65.3528 128.203 58.1842 126.075 51.9689 122.063C44.1997 119.095 55.9848 125.871 58.0866 126.421C62.9433 129.303 52.742 124.945 51.3083 123.743C47.2398 121.356 46.7219 121.859 50.9105 124.277C51.7362 124.788 52.5694 125.329 53.4551 125.769ZM41.8727 117.21C47.7728 119.495 41.8502 112.868 39.1479 113.253C37.9469 111.078 34.569 109.703 36.956 108.541C32.6698 110.096 32.4672 102.621 30.4554 103.697C25.9216 102.197 28.6914 96.8887 23.2868 93.63C22.7914 90.1986 17.9197 87.2227 16.3659 82.0402C15.6828 79.3862 10.8562 71.7774 13.8212 78.8601C16.3434 85.6758 20.7797 91.5257 24.4653 97.3598C27.3328 102.911 30.7182 108.722 35.9351 112.185C37.6916 113.952 39.3881 116.653 41.8727 117.21ZM24.8782 97.6896C25.0884 96.7552 25.9591 99.7076 24.8782 97.6896V97.6896ZM48.9363 119.951C50.2424 119.338 47.0597 119.173 48.9363 119.951V119.951ZM52.1415 121.168C51.8037 119.479 50.6778 122.11 52.1415 121.168V121.168ZM56.1499 122.919C58.0566 121.018 53.2074 121.717 56.1499 122.919V122.919ZM63.0183 126.923C64.1743 125.133 59.3026 126.248 63.0183 126.923V126.923ZM49.8295 117.304C52.7871 115.294 45.9937 117.273 49.8295 117.304V117.304ZM52.8321 118.867C52.7495 117.815 51.7587 119.346 52.8321 118.867V118.867ZM67.86 128.682C70.277 130.276 81.9721 132.176 74.6458 129.334C73.4147 129.609 61.0667 125.683 67.86 128.682ZM44.0045 109.248C43.7718 108.188 40.2513 108.07 44.0045 109.248V109.248ZM51.0005 113.512C52.8171 112.185 47.2173 112.491 51.0005 113.512V113.512ZM56.8781 117.289C59.4978 116.26 52.6444 116.252 56.8781 117.289V117.289ZM41.1521 106.005C43.9895 108.282 52.5844 106.296 45.4908 104.647C42.2631 102.849 34.9893 101.616 39.9511 105.73L41.1521 106.005ZM60.8715 118.592C62.05 116.488 55.9172 117.391 60.8715 118.592V118.592ZM54.8814 113.614C61.8098 115.663 49.0564 109.028 53.1699 112.86L54.0857 113.292L54.8814 113.614ZM66.8916 120.869C73.4523 120.94 60.9616 119.927 66.8916 120.869V120.869ZM38.6299 102.032C38.3747 100.752 37.0161 102.142 38.6299 102.032V102.032ZM77.9936 127.387C78.1663 125.078 75.8468 129.106 77.9936 127.387V127.387ZM49.837 109.209C49.4317 107.992 47.7803 109.154 49.837 109.209V109.209ZM39.253 101.231C43.0212 100.995 34.0886 99.4956 39.253 101.231V101.231ZM26.7172 92.7584C26.2518 90.8661 22.6187 89.3584 26.7172 92.7584V92.7584ZM59.6254 114.595C58.9348 113.779 59.2951 114.776 59.6254 114.595V114.595ZM80.103 127.748C80.0354 126.484 78.9845 128.219 80.103 127.748V127.748ZM57.8089 112.64C58.1842 111.015 54.5961 112.146 57.8089 112.64V112.64ZM42.5558 102.527C45.3557 102.212 38.0595 100.54 42.5558 102.527V102.527ZM68.3629 119.299C72.7316 117.493 64.0993 118.419 68.3629 119.299V119.299ZM54.9414 109.766C59.9782 110.442 48.9513 106.178 53.8305 109.382L54.9414 109.766ZM72.4389 121.026C77.1454 118.09 75.5916 127.913 80.4182 121.859C85.1773 118.223 76.3047 126.35 82.1672 122.51C86.4084 119.542 92.6762 123.916 96.6321 125.345C99.477 125.204 102.247 127.921 105.167 126.264C110.782 124.678 94.1775 123.916 98.5312 121.113C93.3893 122.675 89.5986 119.252 87.0689 115.805C81.304 114.415 74.6383 111.329 71.7633 105.989C70.5848 103.987 73.4598 106.272 70.7499 102.998C67.2745 99.7704 65.5405 96.0956 63.2135 92.1695C60.4286 90.6148 60.0983 86.037 59.8206 92.0203C59.8431 88.2513 56.4577 85.7072 55.632 86.7594C55.617 83.1238 59.2576 84.9455 56.7129 82.2601C56.165 78.4989 54.3634 74.5728 53.8154 70.3169C52.9747 68.2674 53.6953 63.8781 50.9405 68.5187C49.9346 73.4263 50.6102 62.4961 52.1715 66.1002C54.2208 62.4254 51.4359 62.8573 51.3233 63.3677C52.6595 60.2661 52.1715 55.8688 50.9705 57.5413C51.6836 54.2513 52.0965 45.4411 49.9046 47.0037C51.2332 43.5644 52.4192 31.2679 46.6543 35.9557C44.3198 35.9871 40.2739 36.843 38.3672 37.8323C44.3573 41.2873 37.7592 39.0808 35.3196 38.5312C35.0043 41.727 32.5873 40.3529 29.5622 40.3765C34.3888 40.9968 27.2127 45.5353 24.4503 43.7765C20.8547 45.5746 27.5505 50.0582 24.5179 51.448C24.8932 53.5367 19.0157 50.6942 19.4735 55.5233C15.9831 53.9843 18.9931 61.2476 20.7421 58.7898C26.6722 60.4702 24.9157 64.2942 25.0658 67.9377C24.0975 70.0577 20.2917 62.9594 24.2176 63.2813C21.1175 58.0203 20.7947 61.3732 18.22 63.8231C17.627 63.9959 24.7806 67.3016 20.2917 68.9349C24.2476 69.5788 24.3602 73.1986 25.1634 75.4836C27.5354 78.0748 27.0475 72.6254 29.8925 75.7349C28.0909 72.9631 20.3593 67.9219 26.5821 69.5395C26.5446 66.752 25.4562 64.4984 27.3628 64.5534C29.2544 60.9728 25.3811 73.3792 29.6448 68.8328C30.8233 68.291 31.116 65.2522 33.2328 69.1233C36.3105 72.2878 34.3438 74.5806 30.0051 71.6832C30.7782 74.4393 35.815 75.4208 34.8617 79.7317C35.8676 83.5243 37.2638 82.1266 38.4873 81.9067C39.4481 85.5894 39.9886 82.8804 40.0336 81.1293C44.4249 82.1109 43.3965 84.8277 44.7702 86.728C47.7953 88.1571 40.439 77.0462 45.6334 83.3908C51.0981 88.5497 47.6827 90.7012 42.781 89.8767C45.8812 89.6176 46.8795 94.2661 50.7678 94.1012C54.3034 95.8679 56.7054 102.629 50.6027 99.8097C48.4859 97.8153 40.9945 95.3497 47.1122 99.1501C52.757 101.891 57.2459 103.524 62.6955 106.963C66.5914 109.876 68.2803 113.206 69.7516 113.865C66.4713 115.506 59.8806 112.562 64.7748 111.659C61.7197 111.078 58.2818 109.46 61.2093 113.441C63.7014 115.616 70.0293 115.388 71.1703 115.632C70.2095 117.846 68.5581 118.027 71.2078 118.192C68.2578 119.825 72.1687 120.084 72.4389 121.026ZM66.3887 103.155C64.5872 101.184 64.1218 97.5012 66.0659 100.705C67.0643 101.121 69.2637 106.727 66.3887 103.155ZM86.0931 116.244C87.2115 116.166 86.1231 117.14 86.0931 116.244V116.244ZM63.5438 98.3256C63.4762 95.3497 64.1968 100.618 63.5438 98.3256V98.3256ZM61.5921 95.5695C59.3252 90.9917 64.4445 96.8651 61.5921 95.5695V95.5695ZM37.8568 78.436C39.1854 78.067 38.5098 80.8153 37.8568 78.436V78.436ZM56.743 89.1464C57.5612 85.9349 57.7038 91.8397 56.743 89.1464V89.1464ZM43.404 79.4411C42.4582 77.6665 45.3632 81.0979 43.404 79.4411V79.4411ZM54.8513 83.273C52.7045 78.2476 56.3751 80.5247 55.3317 84.0975L54.8513 83.273ZM35.1019 69.5002C34.1411 67.8513 32.5572 63.0143 33.0677 61.5381C33.5256 63.9409 37.9544 71.8873 35.237 64.8282C32.2345 58.9076 38.8326 66.7441 39.5082 68.2282C39.8235 69.6965 37.6541 67.8277 39.1254 71.267C36.4456 67.3487 37.549 73.4342 35.1019 69.5002ZM28.9992 65.103C29.2544 61.2633 30.3954 67.7335 28.9992 65.103V65.103ZM31.7466 66.0924C33.0527 63.2028 33.9685 70.1284 31.7466 66.0924V66.0924ZM25.1409 60.745C22.8664 58.3815 21.2225 56.2065 25.246 59.2767C26.7923 59.3395 21.8005 54.3298 25.6213 57.6827C29.6372 58.4522 27.603 64.5769 25.1409 60.745ZM28.6089 60.6587C29.93 59.2845 29.3145 62.0014 28.6089 60.6587V60.6587ZM30.7482 61.3654C28.744 57.4471 33.1728 63.0143 30.7482 61.3654V61.3654ZM26.5071 57.1252C19.9014 50.9691 34.8017 60.3367 27.588 58.2638L26.5071 57.1252ZM45.4308 68.6286C42.5708 66.8383 44.6726 56.0102 45.6485 63.4148C48.4258 62.4725 45.4908 67.2388 47.5626 67.1917C47.2398 70.1991 46.309 71.2827 45.4308 68.6286ZM52.4268 72.9552C52.712 69.6965 53.0198 75.1931 52.4268 72.9552V72.9552ZM51.2107 71.6989C51.526 70.309 51.2407 73.34 51.2107 71.6989V71.6989ZM27.7982 55.1072C23.557 48.9825 40.1312 61.3025 30.5155 56.6619C29.5096 56.3871 28.3011 56.285 27.7982 55.1072ZM41.2797 62.5825C40.8744 57.4236 42.173 63.4383 41.2797 62.5825V62.5825ZM51.511 69.4531C52.2991 66.5164 51.571 71.3926 51.511 69.4531V69.4531ZM28.4512 52.7672C30.9734 52.2019 38.9002 57.4 31.6189 54.2513C30.8082 53.3169 29.0818 53.7409 28.4512 52.7672ZM50.1073 64.0587C50.3775 58.782 51.6161 60.9099 50.1223 64.8125L50.1073 64.0587ZM30.3278 50.9298C31.3562 49.3515 27.5955 43.8 30.8683 48.9432C32.2795 50.121 34.9593 50.9062 32.5948 51.4009C36.3105 54.8323 31.6865 52.3353 30.3278 50.9298ZM49.0339 62.4176C49.747 56.4106 49.6644 65.9353 49.0339 62.4176V62.4176ZM28.181 45.3862C28.9617 45.0328 28.5939 46.4776 28.181 45.3862V45.3862ZM33.0602 48.425C34.3137 45.6688 35.3722 51.4952 33.0602 48.425V48.425ZM46.827 56.4342C46.8119 55.3741 47.0822 57.9732 46.827 56.4342V56.4342ZM46.0238 54.5889C44.1171 49.6577 47.8028 57.1959 46.0238 54.5889V54.5889ZM44.8528 51.3538C44.5375 49.3201 45.9412 53.9136 44.8528 51.3538V51.3538ZM46.7669 48.1109C45.4533 45.6924 48.4258 37.4633 48.7561 42.5672C47.3749 46.5483 48.3583 48.7704 49.3191 43.431C51.0981 39.2379 48.9288 51.7229 46.7669 48.1109ZM48.7261 35.8614C49.2966 35.1312 48.8537 36.7487 48.7261 35.8614V35.8614ZM45.4458 103.406C44.6726 102.691 45.5509 103.854 45.4458 103.406V103.406ZM52.2016 106.971C55.9548 107.984 55.9398 106.358 52.5469 105.879C50.7228 104.105 44.9654 102.22 50.1223 105.66C50.4526 106.57 51.5335 106.547 52.2016 106.971ZM38.8701 97.7132C40.9344 99.3307 46.6618 102.283 41.8127 98.3335C43.4491 96.3469 38.69 95.2868 40.2663 93.9598C36.2504 91.3843 37.0986 91.6199 39.9135 91.6984C35.0869 89.437 40.6116 89.6097 40.3489 88.4554C38.4873 88.0707 31.101 85.024 35.4472 88.7067C31.0334 86.351 34.3963 89.5862 33.0602 89.2485C28.5413 87.9608 37.0836 92.8448 32.3471 91.6356C34.9368 93.7792 39.3205 97.14 33.443 93.9049C32.6698 95.0591 37.6466 96.8259 38.8701 97.7132ZM45.9262 101.953C54.5135 104.843 41.7151 98.4199 45.9262 101.953V101.953ZM82.0621 124.858C82.1747 123.076 80.8911 126.374 82.0621 124.858V124.858ZM85.7778 126.491C87.7595 124.489 85.8604 129.687 89.0581 125.997C89.0881 123.358 88.9605 121.796 85.38 125.007C84.3966 125.581 83.9537 128.007 85.7778 126.491ZM26.8223 87.7566C26.2143 85.2596 22.5587 85.2674 26.8223 87.7566V87.7566ZM30.7857 90.4735C29.3145 87.9215 25.5312 88.1649 30.7857 90.4735V90.4735ZM53.35 104.709C55.5569 106.759 63.4687 106.209 56.0223 104.961C54.9264 103.257 49.0263 103.665 53.35 104.709ZM84.3666 124.748C87.7595 121.772 81.0788 126.075 84.3666 124.748V124.748ZM91.4226 129.821C91.4377 128.863 89.9589 130.237 91.4226 129.821V129.821ZM91.4302 128.478C95.1834 124.324 87.797 128.721 91.4302 128.478V128.478ZM17.064 79.2134C13.8662 74.4393 15.0748 72.2956 11.9896 68.3931C11.4041 65.4092 6.69761 58.6407 9.55756 65.8097C12.1698 70.0028 12.9505 76.4887 17.064 79.2134ZM90.2516 127.159C97.1651 122.487 87.4142 125.125 90.2516 127.159V127.159ZM95.5287 129.318C98.9891 126.209 93.3368 128.667 95.5287 129.318V129.318ZM25.6438 82.4799C26.6347 80.933 23.0841 82.2758 25.6438 82.4799V82.4799ZM94.4252 127.842C97.7731 125.581 93.6521 125.934 93.8172 128.046L94.4252 127.842ZM48.9738 97.8781C48.8537 96.3469 47.2023 98.0037 48.9738 97.8781V97.8781ZM51.7812 99.5663C50.8879 97.6739 50.4075 99.8568 51.7812 99.5663V99.5663ZM99.7998 129.365C104.093 126.13 97.2026 128.745 98.899 129.978L99.7998 129.365ZM98.1559 128.541C101.654 125.479 94.4627 129.891 98.1559 128.541V128.541ZM106.548 134.383C108.898 132.742 103.703 133.857 106.548 134.383V134.383ZM27.7982 81.3649C30.9434 82.103 40.3714 89.4684 34.8092 81.8753C31.9567 80.9959 33.6682 73.709 30.7632 74.9968C32.7149 78.4046 32.3621 79.8494 28.2711 77.7058C23.1292 75.0753 25.3811 79.0014 26.387 80.0929C25.0133 80.4226 28.2035 81.3414 27.7982 81.3649ZM13.4684 69.5238C14.0314 67.0818 8.28146 56.1201 10.7511 64.0273C11.6443 65.6841 11.5468 68.825 13.4684 69.5238ZM39.7709 86.4924C38.1495 85.079 39.6959 86.2882 39.7709 86.4924V86.4924ZM43.7568 87.4661C43.7568 84.8827 39.3506 86.4139 43.7568 87.4661V87.4661ZM78.3314 110.261C77.6709 108.494 75.7192 110.222 78.3314 110.261V110.261ZM79.9904 111.525C79.7426 110.536 79.0295 111.714 79.9904 111.525V111.525ZM93.6896 120.555C95.0032 119.534 92.0457 120.422 93.6896 120.555V120.555ZM20.622 71.4397C24.3903 69.9086 16.5836 70.3483 20.622 71.4397V71.4397ZM75.2838 107.458C75.2388 104.906 72.8818 108.094 75.2838 107.458V107.458ZM19.1358 67.8042C21.5528 66.9483 16.8913 67.2467 19.1358 67.8042V67.8042ZM26.1618 71.3691C26.1167 70.5289 25.4186 71.6832 26.1618 71.3691V71.3691ZM111.878 126.35C114.993 125.691 122.086 128.007 123.235 125.486C119.452 125.392 110.159 122.691 109.716 126.122L110.542 126.256L111.878 126.35ZM28.3912 71.958C28.4512 69.3668 26.462 71.8559 28.3912 71.958V71.958ZM9.91786 58.5464C9.07715 53.6231 6.72763 57.8005 9.91786 58.5464V58.5464ZM14.3241 59.7086C14.3767 58.1224 10.2932 58.2795 14.3241 59.7086V59.7086ZM16.8388 61.0042C16.1107 60.3838 16.2758 61.7737 16.8388 61.0042V61.0042ZM32.6849 71.636C33.4355 70.9136 30.9208 71.1021 32.6849 71.636V71.636ZM15.1649 58.0832C14.737 54.3612 10.0605 57.5256 15.1649 58.0832V58.0832ZM6.12712 51.9506C5.99951 50.231 5.24887 52.5945 6.12712 51.9506V51.9506ZM7.47828 50.8905C7.25308 48.8568 6.32229 51.1497 7.47828 50.8905V50.8905ZM14.9021 55.5233C18.0398 54.2356 9.18223 52.8536 14.2641 55.2799L14.9021 55.5233ZM114.265 119.731C116.269 117.799 111.713 119.134 114.265 119.731V119.731ZM126.267 126.232C127.071 123.751 124.241 126.562 126.267 126.232V126.232ZM15.6603 51.4559C15.9906 49.0453 13.1681 51.9349 15.6603 51.4559V51.4559ZM5.09123 44.0513C4.52074 40.6513 4.60331 34.6758 10.0305 36.6938C2.78676 38.2014 15.0448 46.1164 13.4984 39.8661C16.546 40.0231 19.4585 37.9815 17.8597 41.0753C23.8648 40.3843 28.0234 34.9427 33.8183 35.7044C38.3372 35.0762 43.2689 34.6051 48.1406 32.697C52.1415 32.3986 55.9923 27.8915 53.8004 25.2217C48.3433 24.7349 42.6309 25.4494 36.6032 26.7058C29.9225 28.1584 23.8498 30.9146 17.109 32.1081C10.5334 33.0347 18.4302 34.6522 16.546 35.0134C13.1156 36.2541 20.637 37.0942 16.1032 38.4134C13.3033 37.8559 10.3833 36.8508 11.5843 33.7571C5.2864 34.6129 -0.253344 37.3455 4.72342 44.0513H5.09123ZM20.2692 35.9714C21.7405 30.2864 28.1735 40.6513 22.6863 36.7252C22.0332 36.2069 20.9523 35.7908 20.2692 35.9714ZM20.5545 33.2074C22.6863 31.5506 21.6879 34.1418 20.5545 33.2074V33.2074ZM23.2568 33.2545C23.4519 30.6397 29.4496 34.6365 24.2476 34.1968L23.2568 33.2545ZM26.9575 31.6998C28.3086 30.043 27.3478 33.1681 26.9575 31.6998V31.6998ZM27.9033 31.0402C30.1552 28.2134 40.6492 29.2342 32.9701 30.7654C30.9133 29.14 29.337 31.7155 27.9033 31.0402ZM41.6025 28.8259C41.2572 21.0993 48.4033 31.5741 41.6025 28.8259V28.8259ZM45.4833 28.8023C46.902 24.9076 51.0005 27.2397 46.1439 28.0171C46.249 28.4411 46.0013 30.0351 45.4833 28.8023ZM14.129 49.4614C18.3701 46.7367 9.61761 47.0979 14.129 49.4614V49.4614ZM17.2667 50.3644C18.7529 48.7155 14.0314 49.697 17.2667 50.3644V50.3644ZM8.01874 43.5095C10.4433 41.5543 5.14378 42.7635 8.01874 43.5095V43.5095ZM133.354 125.526C133.421 123.264 131.499 126.546 133.354 125.526V125.526ZM120.615 116.433C120.975 113.834 118.979 116.661 120.615 116.433V116.433ZM136.852 126.405C140.244 126.421 147.128 125.298 139.749 125.306C138.593 125.494 133.001 125.455 136.852 126.405ZM20.029 48.7704C22.7764 48.5741 24.3227 45.606 19.4961 45.7709C12.0197 44.9621 26.0942 48.4485 18.5352 47.4513C17.5219 48.158 19.9615 48.9668 20.029 48.7704ZM22.4386 50.0504C22.1533 48.2129 21.5904 51.0319 22.4386 50.0504V50.0504ZM25.306 42.0568C26.4996 40.5099 23.6621 41.6407 25.306 42.0568V42.0568ZM16.1782 26.0933C21.0799 24.3501 27.7757 22.3949 30.0876 26.9492C27.7306 23.9889 29.1343 21.0679 31.3562 25.4023C34.5014 29.7838 36.0703 23.4079 34.0285 21.9395C36.363 24.9704 39.0053 26.3995 35.5898 22.128C39.3055 17.448 28.151 22.7404 25.6138 22.6855C24.3978 23.2665 13.018 25.7321 16.1782 26.0933ZM19.0532 20.3455C21.8456 18.139 28.714 21.6568 24.3077 18.1547C23.8723 17.7543 14.6544 20.8166 19.0532 20.3455ZM29.2394 20.7852C32.5047 20.8716 27.8282 16.1917 31.724 18.3118C31.086 16.1289 27.1901 15.7206 25.2835 14.8411C24.2026 16.8434 27.4754 20.8166 29.2394 20.7852ZM20.8397 11.1113C21.9657 9.50948 18.8505 11.928 20.8397 11.1113V11.1113ZM24.9983 12.1557C30.2678 11.4254 23.6546 9.78431 23.9324 12.1007L24.9983 12.1557ZM17.2291 5.79539C13.5209 0.730729 24.2101 6.64343 20.4344 1.3432C17.2591 -1.29514 14.2115 4.31918 17.2291 5.79539ZM64.8349 32.6185C66.5388 29.4619 57.8164 28.3626 63.6939 31.5035C64.2269 31.6919 64.1068 32.8383 64.8349 32.6185Z" fill="black"/>
</svg>
