
<?xml version="1.0" encoding="UTF-8"?> <svg xmlns="http://www.w3.org/2000/svg" width="101" height="100" viewBox="0 0 101 100" fill="none"><g clip-path="url(#clip0_4461_18114)"><path d="M25.894 65.3737L10.5001 49.9798L60.4839 0H91.2677M91.2677 46.1212H60.4839L48.9526 57.6525L64.3465 73.0465" fill="#42A5F5" fill-opacity="0.8"></path><path d="M48.9527 88.4368L60.484 99.9681H91.2678L64.3466 73.0469" fill="#0D47A1"></path><path d="M33.595 73.0554L48.9647 57.6816L64.3344 73.0513L48.9647 88.4251L33.595 73.0554Z" fill="#42A5F5"></path><path d="M48.9648 88.4244L64.3345 73.0547L66.4799 75.2001L51.1102 90.5698L48.9648 88.4244Z" fill="url(#paint0_linear_4461_18114)"></path><path d="M48.9527 88.4369L71.7931 80.546L64.3466 73.043" fill="url(#paint1_linear_4461_18114)"></path></g><g style="mix-blend-mode:hue"><rect x="0.5" width="100" height="100" fill="white"></rect></g><defs><linearGradient id="paint0_linear_4461_18114" x1="56.6525" y1="80.7367" x2="58.7982" y2="82.8822" gradientUnits="userSpaceOnUse"><stop offset="0.2" stop-opacity="0.15"></stop><stop offset="0.85" stop-color="#616161" stop-opacity="0.01"></stop></linearGradient><linearGradient id="paint1_linear_4461_18114" x1="48.9581" y1="80.7404" x2="71.7982" y2="80.7404" gradientUnits="userSpaceOnUse"><stop offset="0.2" stop-opacity="0.55"></stop><stop offset="0.85" stop-color="#616161" stop-opacity="0.01"></stop></linearGradient><clipPath id="clip0_4461_18114"><rect width="80.7677" height="100" fill="white" transform="translate(10.5001)"></rect></clipPath></defs></svg> 