
<?xml version="1.0" encoding="UTF-8"?> <svg xmlns="http://www.w3.org/2000/svg" width="60" height="52" viewBox="0 0 60 52" fill="none"><path d="M5 35.6076H27.1761V45.1249H36.7893V35.6076H42.0329V26.5826H36.7893V0H26.6298L5 32.5446V35.6076ZM19.0376 26.5826L27.1761 13.7289V26.5826H19.0376Z" fill="#FFDA44"></path><path d="M52.2479 33.4744C48.8068 33.4744 46.0211 36.264 46.0211 39.7646C46.0211 43.2105 48.8068 46 52.2479 46C55.7436 46 58.5293 43.2105 58.5293 39.7646C58.5293 36.264 55.7436 33.4744 52.2479 33.4744Z" fill="#FFDA44"></path><path fill-rule="evenodd" clip-rule="evenodd" d="M22.4816 4H32.8511V28.8675H37.4697V39.2781H32.8511V48.1813H22.5331V39.2781H3V35.1312L22.4816 4ZM23.4728 5.96799L4.85042 35.7263V37.3102H24.3835V46.2133H31.0006V37.3102H35.6193V30.8355H31.0006V5.96799H23.4728ZM24.3835 14.4376V30.8355H14.6076L24.3835 14.4376ZM17.9719 28.8675H22.5331V21.2166L17.9719 28.8675ZM39.1321 42.1829C39.1321 38.3703 41.9948 35.3146 45.542 35.3146C49.1321 35.3146 52 38.3647 52 42.1829C52 45.9555 49.1268 49 45.542 49C42 49 39.1321 45.9499 39.1321 42.1829ZM45.542 37.2826C43.0273 37.2826 40.9826 39.446 40.9826 42.1829C40.9826 44.863 43.022 47.032 45.542 47.032C48.1154 47.032 50.1496 44.8574 50.1496 42.1829C50.1496 39.4516 48.1101 37.2826 45.542 37.2826Z" fill="#121519"></path></svg> 