<?xml version="1.0" encoding="UTF-8"?> <svg xmlns="http://www.w3.org/2000/svg" xmlns:xlink="http://www.w3.org/1999/xlink" width="23px" height="26px" viewBox="0 0 23 26" version="1.1"><title>Combined Shape</title><desc>Created with Sketch.</desc><g id="Page-1" stroke="none" stroke-width="1" fill="none" fill-rule="evenodd"><path d="M13,17 C10.790861,17 9,15.209139 9,13 C9,10.790861 10.790861,9 13,9 C15.209139,9 17,10.790861 17,13 C17,15.209139 15.209139,17 13,17 Z M22.1923882,22.1923882 C17.1155724,27.2692039 8.88442764,27.2692039 3.80761184,22.1923882 C-1.26920395,17.1155724 -1.26920395,8.88442764 3.80761184,3.80761184 C8.88442764,-1.26920395 17.1155724,-1.26920395 22.1923882,3.80761184 L17.9497475,8.05025253 C15.2160774,5.31658249 10.7839226,5.31658249 8.05025253,8.05025253 C5.31658249,10.7839226 5.31658249,15.2160774 8.05025253,17.9497475 C10.7839226,20.6834175 15.2160774,20.6834175 17.9497475,17.9497475 L22.1923882,22.1923882 Z" id="Combined-Shape" fill="#FFFFFF"></path></g></svg> 