
<?xml version="1.0" encoding="UTF-8"?> <svg xmlns="http://www.w3.org/2000/svg" width="101" height="100" viewBox="0 0 101 100" fill="none"><g clip-path="url(#clip0_4461_18090)"><path d="M14.482 76.2019L10.8127 74.0834L51.6893 3.28516L55.3586 5.40364L14.482 76.2019Z" fill="#E535AB"></path><path d="M9.97247 68.4277H91.7256V72.6647H9.97247V68.4277Z" fill="#E535AB"></path><path d="M52.482 94.4173L11.5901 70.8076L13.7086 67.1383L54.6005 90.7479L52.482 94.4173ZM88.0047 32.8844L47.1128 9.27479L49.2313 5.60547L90.1232 29.2151L88.0047 32.8844Z" fill="#E535AB"></path><path d="M13.7199 32.8685L11.6014 29.1995L52.4933 5.58984L54.6117 9.25891L13.7199 32.8685Z" fill="#E535AB"></path><path d="M87.2509 76.2019L46.3743 5.40364L50.0436 3.28516L90.9202 74.0834L87.2509 76.2019ZM13.2141 26.3886H17.4511V73.6079H13.2141V26.3886Z" fill="#E535AB"></path><path d="M84.2727 26.3906H88.5097V73.6099H84.2727V26.3906Z" fill="#E535AB"></path><path d="M51.7608 92.6241L49.9103 89.4188L85.4753 68.8848L87.3258 72.0898L51.7608 92.6241Z" fill="#E535AB"></path><path d="M94.1248 74.9872C91.6746 79.2497 86.2124 80.7046 81.9499 78.2543C77.6874 75.804 76.2326 70.3419 78.6829 66.0794C81.1332 61.8169 86.5953 60.362 90.8578 62.8123C95.1458 65.2881 96.6007 70.7247 94.1248 74.9872ZM23.0152 33.9192C20.5649 38.1817 15.1028 39.6366 10.8403 37.1863C6.57779 34.736 5.12292 29.2739 7.57322 25.0114C10.0235 20.7489 15.4856 19.294 19.7481 21.7443C24.0106 24.2201 25.4655 29.6567 23.0152 33.9192ZM7.59875 74.9872C5.14845 70.7247 6.60331 65.2881 10.8658 62.8123C15.1283 60.362 20.5649 61.8169 23.0407 66.0794C25.491 70.3419 24.0362 75.7785 19.7737 78.2543C15.4856 80.7046 10.049 79.2497 7.59875 74.9872ZM78.7084 33.9192C76.2581 29.6567 77.713 24.2201 81.9755 21.7443C86.238 19.294 91.6746 20.7489 94.1504 25.0114C96.6007 29.2739 95.1458 34.7105 90.8833 37.1863C86.6208 39.6366 81.1587 38.1817 78.7084 33.9192ZM50.8618 99.9751C45.9357 99.9751 41.9539 95.9934 41.9539 91.0673C41.9539 86.1412 45.9357 82.1594 50.8618 82.1594C55.7879 82.1594 59.7696 86.1412 59.7696 91.0673C59.7696 95.9679 55.7879 99.9751 50.8618 99.9751ZM50.8618 17.8391C45.9357 17.8391 41.9539 13.8574 41.9539 8.93129C41.9539 4.00517 45.9357 0.0234375 50.8618 0.0234375C55.7879 0.0234375 59.7696 4.00517 59.7696 8.93129C59.7696 13.8574 55.7879 17.8391 50.8618 17.8391Z" fill="#E535AB"></path></g><g style="mix-blend-mode:hue"><rect x="0.5" width="100" height="100" fill="white"></rect></g><defs><clipPath id="clip0_4461_18090"><rect width="88.9589" height="100" fill="white" transform="translate(6.38232)"></rect></clipPath></defs></svg> 