
<?xml version="1.0" encoding="UTF-8"?> <svg xmlns="http://www.w3.org/2000/svg" width="53" height="52" viewBox="0 0 53 52" fill="none"><circle cx="26.5" cy="26" r="26" fill="#FFDA44"></circle><g clip-path="url(#clip0_3995_16632)"><path d="M52.4371 28.9869C52.0528 26.3248 49.9615 24.2334 47.2993 23.8492V22.2736C47.2993 17.9265 43.9948 14.3871 39.9328 14.3871C35.9878 14.3871 32.6849 17.819 32.5662 22.0379H32.6165L32.5662 22.0465V39.1257C32.5662 44.5856 28.4843 49.0194 23.4663 49.0194C18.4484 49.0194 14.3665 44.5796 14.3665 39.1257V37.6463C15.6231 37.6463 16.9664 36.7355 16.9664 34.1797V32.0001C22.5286 30.5779 26.4996 25.8018 26.4996 20.3869V18.5799H24.7663L24.7299 7.30043C24.7173 5.21255 23.2191 3.42984 21.1645 3.05815C20.7213 1.70043 19.2613 0.959009 17.9035 1.4023C16.5458 1.84549 15.8044 3.30547 16.2476 4.66331C16.6908 6.02103 18.1508 6.76245 19.5086 6.31916C20.2357 6.0818 20.8203 5.53483 21.1056 4.82526C22.2159 5.14116 22.985 6.15124 22.994 7.30563L23.033 18.5799H21.2997V20.412C21.2306 23.4266 19.2095 26.0463 16.3112 26.8781C14.7605 27.3702 13.0954 27.3702 11.5446 26.8781C8.64969 26.0434 6.6332 23.4242 6.56658 20.412V18.5799H3.96662V7.31343C3.9716 6.14203 4.75939 5.11852 5.89059 4.814C6.41806 6.15677 7.93416 6.81759 9.27693 6.29012C10.6197 5.76266 11.2805 4.24644 10.7531 2.90378C10.2256 1.56112 8.70938 0.900185 7.36672 1.42765C6.63916 1.71354 6.07779 2.31012 5.83686 3.05382C3.75981 3.40872 2.23905 5.20626 2.23331 7.31343V18.5799H0.5V20.3826C0.5 25.8035 4.47361 30.5814 10.0332 32.0001V34.1797C10.0332 36.7355 11.3765 37.6463 12.6332 37.6463V39.1257C12.6332 45.5389 17.4925 50.7527 23.4663 50.7527C29.4402 50.7527 34.2995 45.5329 34.2995 39.1257V22.0881C34.3862 18.7992 36.9151 16.123 39.9328 16.123C43.0388 16.123 45.566 18.8824 45.566 22.2762V23.8492C42.2499 24.3278 39.9497 27.4041 40.4283 30.7202C40.9069 34.0364 43.9832 36.3366 47.2993 35.858C50.6155 35.3794 52.9157 32.303 52.4371 28.9869ZM18.6997 4.71346C18.2211 4.71346 17.8331 4.32542 17.8331 3.84681C17.8331 3.3682 18.2211 2.98015 18.6997 2.98015C19.1783 2.98015 19.5664 3.3682 19.5664 3.84681C19.5664 4.32542 19.1783 4.71346 18.6997 4.71346ZM8.29989 2.98015C8.7785 2.98015 9.16654 3.3682 9.16654 3.84681C9.16654 4.32542 8.7785 4.71346 8.29989 4.71346C7.82128 4.71346 7.43323 4.32542 7.43323 3.84681C7.43323 3.3682 7.82128 2.98015 8.29989 2.98015ZM2.23331 20.3826V20.3132H4.83327V20.412C4.89827 24.1788 7.40431 27.4662 11.0194 28.5265C12.9138 29.1263 14.9472 29.1263 16.8416 28.5265C20.4585 27.4676 22.9668 24.1801 23.033 20.412V20.3132H24.7663V20.3826C24.7663 25.2038 21.0501 29.446 15.9264 30.4722C14.7233 30.7131 13.4909 30.7735 12.27 30.6516C11.8681 30.6126 11.4686 30.5521 11.0732 30.4704C5.94952 29.446 2.23331 25.2038 2.23331 20.3826ZM12.6332 35.913C11.8532 35.913 11.7665 34.6997 11.7665 34.1797V32.3407C11.8358 32.3493 11.9069 32.3528 11.9771 32.3597C12.0638 32.3693 12.1504 32.3762 12.2371 32.384C12.647 32.4204 13.0604 32.4447 13.4773 32.4455H13.5206C13.9366 32.4455 14.3491 32.4204 14.7565 32.384C14.8431 32.3762 14.935 32.3693 15.0243 32.3597C15.0927 32.3519 15.1638 32.3493 15.2323 32.3407V34.1797C15.2323 34.6997 15.1456 35.913 14.3656 35.913H12.6332ZM46.4327 34.1797C44.0395 34.1797 42.0994 32.2396 42.0994 29.8464C42.0994 27.4533 44.0395 25.5132 46.4327 25.5132C48.8258 25.5132 50.7659 27.4533 50.7659 29.8464C50.7631 32.2385 48.8246 34.1769 46.4327 34.1797Z" fill="#121519"></path><path d="M46.4322 27.2461C44.9963 27.2461 43.8323 28.4101 43.8323 29.8461C43.8323 31.282 44.9963 32.446 46.4322 32.446C47.8682 32.446 49.0322 31.282 49.0322 29.8461C49.0322 28.4101 47.8682 27.2461 46.4322 27.2461ZM46.4322 30.7127C45.9536 30.7127 45.5656 30.3247 45.5656 29.8461C45.5656 29.3674 45.9536 28.9794 46.4322 28.9794C46.9108 28.9794 47.2989 29.3674 47.2989 29.8461C47.2989 30.3247 46.9108 30.7127 46.4322 30.7127Z" fill="#121519"></path></g><defs><clipPath id="clip0_3995_16632"><rect width="52" height="52" fill="white" transform="translate(0.5)"></rect></clipPath></defs></svg> 