
<?xml version="1.0" encoding="UTF-8"?> <svg xmlns="http://www.w3.org/2000/svg" width="53" height="52" viewBox="0 0 53 52" fill="none"><circle cx="26.5" cy="26" r="26" fill="#FFDA44"></circle><g clip-path="url(#clip0_4982_27969)"><path d="M47.5944 10.0938H5.17108C3.14359 10.0938 1.5 11.7374 1.5 13.7649V39.3288C1.5 41.3563 3.14359 43 5.17108 43H47.5944C49.6219 43 51.2656 41.3563 51.2656 39.3288V13.7649C51.2656 11.7374 49.6219 10.0938 47.5944 10.0938Z" stroke="#121519" stroke-width="2" stroke-miterlimit="10" stroke-linecap="round" stroke-linejoin="round"></path><path d="M5.86719 18.0154V17.1875C5.86719 16.6352 6.3149 16.1875 6.86719 16.1875H22.5391C23.0913 16.1875 23.5391 16.6352 23.5391 17.1875V35.2969C23.5391 35.8492 23.0913 36.2969 22.5391 36.2969H6.86719C6.3149 36.2969 5.86719 35.8492 5.86719 35.2969V21.0625" stroke="#121519" stroke-width="2" stroke-miterlimit="10" stroke-linecap="round" stroke-linejoin="round"></path><path d="M28.0078 17.9541H47.1016" stroke="#121519" stroke-width="2" stroke-miterlimit="10" stroke-linecap="round" stroke-linejoin="round"></path><path d="M28.0078 26.0049H47.1016" stroke="#121519" stroke-width="2" stroke-miterlimit="10" stroke-linecap="round" stroke-linejoin="round"></path><path d="M28.0078 34.5303H38.3672" stroke="#121519" stroke-width="2" stroke-miterlimit="10" stroke-linecap="round" stroke-linejoin="round"></path><path d="M19.2734 24.7188C19.2734 22.1946 17.2273 20.1484 14.7031 20.1484C12.179 20.1484 10.1328 22.1946 10.1328 24.7188C10.1328 27.2429 12.179 29.2891 14.7031 29.2891C17.2273 29.2891 19.2734 27.2429 19.2734 24.7188Z" stroke="#121519" stroke-width="2" stroke-miterlimit="10" stroke-linecap="round" stroke-linejoin="round"></path><path d="M19.2734 33.8594C19.2734 31.3352 17.2273 29.2891 14.7031 29.2891C12.179 29.2891 10.1328 31.3352 10.1328 33.8594" stroke="#121519" stroke-width="2" stroke-miterlimit="10" stroke-linecap="round" stroke-linejoin="round"></path></g><defs><clipPath id="clip0_4982_27969"><rect width="52" height="52" fill="white" transform="translate(0.5)"></rect></clipPath></defs></svg> 