
<?xml version="1.0" encoding="UTF-8"?> <svg xmlns="http://www.w3.org/2000/svg" width="53" height="52" viewBox="0 0 53 52" fill="none"><circle cx="26.5" cy="26" r="26" fill="#FFDA44"></circle><g clip-path="url(#clip0_3995_16700)"><path d="M26.4957 1.80673C28.036 0.629218 30.2729 0.396031 31.7153 1.89022C33.3217 3.55432 33.3217 6.26066 31.7153 7.92466L31.698 7.94192L27.5034 12.0993C27.4775 12.1252 27.4543 12.1482 27.4227 12.1713C27.1435 12.3929 26.9131 12.5658 26.5303 12.5801H26.4611C26.0812 12.5658 25.8479 12.3929 25.5687 12.1713C25.54 12.1482 25.514 12.1252 25.4881 12.0993L21.2934 7.94192C21.2877 7.93623 21.2848 7.93045 21.2791 7.92466C19.6726 6.26066 19.6726 3.55432 21.2791 1.89022C22.7214 0.396031 24.9555 0.629218 26.4957 1.80673Z" stroke="#121519" stroke-width="1.52344" stroke-miterlimit="10" stroke-linecap="round" stroke-linejoin="round"></path><path d="M10.2583 24.9355L14.7062 24.9327C15.2792 24.9327 15.7455 24.4663 15.7455 23.8964V15.1498C15.7455 14.5797 15.2792 14.1105 14.7062 14.1105H2.29519C1.72217 14.1105 1.2558 14.5797 1.2558 15.1498V23.8964C1.2558 24.4663 1.72217 24.9327 2.29519 24.9327L6.74312 24.9355" stroke="#121519" stroke-width="1.52344" stroke-miterlimit="10" stroke-linecap="round" stroke-linejoin="round"></path><path d="M10.88 19.8225H13.612C14.7867 19.8225 15.7483 18.8639 15.7483 17.6892V15.5558M1.25854 15.5558V17.6892C1.25854 18.8639 2.21719 19.8225 3.39187 19.8225H6.12674" stroke="#121519" stroke-width="1.52344" stroke-miterlimit="10" stroke-linecap="round" stroke-linejoin="round"></path><path d="M12.7007 14.1113V11.477C12.7007 11.166 12.4444 10.9099 12.1334 10.9099H4.8699C4.55617 10.9099 4.30267 11.166 4.30267 11.477V14.1113" stroke="#121519" stroke-width="1.52344" stroke-miterlimit="10" stroke-linecap="round" stroke-linejoin="round"></path><path d="M35.9993 5.07705C37.3841 5.72766 38.6939 6.50502 39.9147 7.40039" stroke="#121519" stroke-width="1.52344" stroke-miterlimit="10" stroke-linecap="round" stroke-linejoin="round"></path><path d="M33.7977 30.1133C31.8314 25.9761 26.347 29.4253 23.3933 27.1968C23.1082 29.382 20.5373 29.5087 19.7513 30.1133L19.3741 27.2026C19.0287 24.5626 20.1399 22.5617 22.731 22.1067C23.8999 19.864 29.1828 19.9418 31.6269 22.0174C34.2698 24.266 34.1835 27.145 33.7977 30.1133Z" stroke="#121519" stroke-width="1.52344" stroke-miterlimit="10" stroke-linecap="round" stroke-linejoin="round"></path><path d="M23.3915 27.1953C22.2313 26.1703 22.2053 23.3288 22.7293 22.1052" stroke="#121519" stroke-width="1.52344" stroke-miterlimit="10" stroke-linecap="round" stroke-linejoin="round"></path><path d="M35.9016 41.5275C35.775 41.4728 35.6425 41.4238 35.5044 41.3807L30.4806 39.8347V37.9172M38.6281 51.1521V46.491C38.6281 45.6272 38.4927 44.7434 38.1789 43.9488M23.1912 38.0036V39.8347L18.1674 41.3807C15.8756 42.0889 15.0409 44.3547 15.0409 46.491V51.1521" stroke="#121519" stroke-width="1.52344" stroke-miterlimit="10" stroke-linecap="round" stroke-linejoin="round"></path><path d="M30.4772 39.8355V40.322C30.4772 43.5984 23.1877 43.5984 23.1877 40.322V39.8355" stroke="#121519" stroke-width="1.52344" stroke-miterlimit="10" stroke-linecap="round" stroke-linejoin="round"></path><path d="M19.752 30.1118V32.2394C19.752 34.7586 22.1213 37.9225 25.0176 38.9965C25.6538 39.2296 26.2152 39.3477 26.7765 39.3477C27.3379 39.3477 27.8994 39.2296 28.5326 38.9965C31.429 37.9225 33.7984 34.7586 33.7984 32.2394V30.1118" stroke="#121519" stroke-width="1.52344" stroke-miterlimit="10" stroke-linecap="round" stroke-linejoin="round"></path><path d="M19.6001 46.9401V51.1521" stroke="#121519" stroke-width="1.52344" stroke-miterlimit="10" stroke-linecap="round" stroke-linejoin="round"></path><path d="M34.066 46.9401V51.1521" stroke="#121519" stroke-width="1.52344" stroke-miterlimit="10" stroke-linecap="round" stroke-linejoin="round"></path><path d="M16.9909 5.07705C15.609 5.72766 14.2991 6.50502 13.0754 7.40039" stroke="#121519" stroke-width="1.52344" stroke-miterlimit="10" stroke-linecap="round" stroke-linejoin="round"></path><path d="M44.3386 24.8281C48.4123 24.8281 51.7346 21.5058 51.7346 17.4319C51.7346 13.3581 48.4123 10.0358 44.3386 10.0358C40.2649 10.0358 36.9426 13.3581 36.9426 17.4319C36.9426 21.5058 40.2649 24.8281 44.3386 24.8281Z" stroke="#121519" stroke-width="1.52344" stroke-miterlimit="10" stroke-linecap="round" stroke-linejoin="round"></path><path d="M44.3365 14.0877V19.9609" stroke="#121519" stroke-width="1.52344" stroke-miterlimit="10" stroke-linecap="round" stroke-linejoin="round"></path><path d="M44.3375 19.9616L42.8606 20.7793" stroke="#121519" stroke-width="1.52344" stroke-miterlimit="10" stroke-linecap="round" stroke-linejoin="round"></path><path d="M44.3365 15.8061L47.8891 17.7754" stroke="#121519" stroke-width="1.52344" stroke-miterlimit="10" stroke-linecap="round" stroke-linejoin="round"></path><path d="M44.3364 19.9616L45.8105 20.7793" stroke="#121519" stroke-width="1.52344" stroke-miterlimit="10" stroke-linecap="round" stroke-linejoin="round"></path><path d="M44.3398 15.8061L40.7872 17.7754" stroke="#121519" stroke-width="1.52344" stroke-miterlimit="10" stroke-linecap="round" stroke-linejoin="round"></path><path d="M6.91693 18.2431H10.0924C10.5242 18.2431 10.8812 18.6002 10.8812 19.0348V20.6154C10.8812 21.0501 10.5242 21.4043 10.0924 21.4043H6.91693C6.48224 21.4043 6.12799 21.0501 6.12799 20.6154V19.0348C6.12799 18.6002 6.48224 18.2431 6.91693 18.2431Z" stroke="#121519" stroke-width="1.52344" stroke-miterlimit="10" stroke-linecap="round" stroke-linejoin="round"></path></g><defs><clipPath id="clip0_3995_16700"><rect width="52" height="52" fill="white" transform="translate(0.5)"></rect></clipPath></defs></svg> 