<?xml version="1.0" encoding="UTF-8"?> <svg xmlns="http://www.w3.org/2000/svg" width="24" height="24" viewBox="0 0 24 24" fill="none"><path d="M21.9375 0.0625H1.63477C0.738281 0.0625 0 0.853516 0 1.80273V22C0 22.9492 0.738281 23.6875 1.63477 23.6875H21.9375C22.834 23.6875 23.625 22.9492 23.625 22V1.80273C23.625 0.853516 22.834 0.0625 21.9375 0.0625ZM7.11914 20.3125H3.63867V9.08008H7.11914V20.3125ZM5.37891 7.49805C4.21875 7.49805 3.32227 6.60156 3.32227 5.49414C3.32227 4.38672 4.21875 3.4375 5.37891 3.4375C6.48633 3.4375 7.38281 4.38672 7.38281 5.49414C7.38281 6.60156 6.48633 7.49805 5.37891 7.49805ZM20.25 20.3125H16.7168V14.8281C16.7168 13.5625 16.7168 11.875 14.9238 11.875C13.0781 11.875 12.8145 13.2988 12.8145 14.7754V20.3125H9.33398V9.08008H12.6562V10.6094H12.709C13.1836 9.71289 14.3438 8.76367 16.0312 8.76367C19.5645 8.76367 20.25 11.1367 20.25 14.1426V20.3125Z" fill="white"></path></svg> 