
<?xml version="1.0" encoding="UTF-8"?> <svg xmlns="http://www.w3.org/2000/svg" width="53" height="52" viewBox="0 0 53 52" fill="none"><circle cx="26.5" cy="26" r="26" fill="#FFDA44"></circle><path d="M3.89054 23.3489C3.36259 27.7272 4.23994 32.3175 6.1667 36.0714C-3.73405 50.3718 2.16788 55.7069 16.2339 46.1083C22.1007 49.1965 30.0979 49.294 36.0475 46.3368C40.4518 49.2071 44.3806 51 47.0856 51C51.8454 50.7391 51.4123 46.376 48.7293 41.0041C48.9264 41.0518 50.4284 41.6166 50.6066 41.5804C51.6039 41.5975 51.8593 40.1265 50.893 39.8191L47.2722 38.6139C46.7948 38.455 46.2848 38.7119 46.1274 39.1852L44.9208 42.8015C44.5641 43.9303 46.2368 44.4983 46.6375 43.3735L47.1393 41.8694C52.0126 51.8429 46.1464 50.3291 37.8879 45.3554C47.7696 39.8237 52.0695 26.074 46.5944 15.7848C50.7976 9.43906 52.8162 4.03162 50.5464 1.76469C48.9769 0.196289 45.9287 0.539514 41.4836 2.77323L42.0142 1.18287C42.3721 0.0510035 40.6904 -0.512004 40.2975 0.611633L39.0909 4.22795C38.9326 4.70163 39.189 5.21326 39.6628 5.3713C39.6469 5.37041 43.7546 6.76019 43.57 6.62324C44.5677 6.63841 44.8226 5.17056 43.8565 4.86099L42.351 4.35995C52.4979 -0.593841 50.772 5.5737 45.5905 13.9967C39.7455 4.12664 25.7992 0.212074 15.5638 6.05686C2.53141 -3.96627 -5.31065 0.815465 5.80945 16.4873C4.82669 18.6181 4.16568 20.9253 3.89054 23.3489ZM5.59001 27.1257C7.20969 29.5703 10.0325 31.6101 12.2955 33.0719C12.9381 33.4843 13.6038 33.9099 13.9194 34.4537C14.5779 35.5944 13.6657 37.196 13.244 37.8308C12.659 38.6962 11.9996 39.5097 11.497 40.4398C8.08805 36.9595 5.8899 32.2938 5.59002 27.1257L5.59001 27.1257ZM3.47595 48.7769C2.5155 47.8176 2.93495 44.3661 7.13963 37.8043C8.97898 40.7641 11.484 43.2677 14.4427 45.1053C8.69125 48.7541 4.64701 49.9465 3.47595 48.7769ZM26.3712 46.7038C23.3793 46.7038 20.5356 46.0654 17.9619 44.9257C20.1115 43.4142 22.34 41.6911 24.5727 39.8185C24.115 39.4202 23.66 39.0202 23.2107 38.6179C20.6781 40.7331 18.299 42.5236 16.1236 43.9998C14.9675 43.344 13.8807 42.5817 12.8757 41.7249C13.299 40.7514 14.128 39.7675 14.7512 38.8329C16.8672 35.7712 16.0742 33.0239 13.2791 31.5544C10.3967 29.7507 6.64957 26.7967 5.71023 23.3867C5.92946 21.586 6.37941 19.8566 7.03068 18.2271C13.9379 27.8149 24.6664 38.4543 34.276 45.1428C31.837 46.1464 29.1686 46.7038 26.3712 46.7038H26.3712ZM40.8525 40.8292C40.4125 39.7964 39.2657 38.4742 39.4763 37.475C39.8546 36.185 41.8182 35.2934 42.5702 34.052C44.3851 31.0044 42.7753 29.1995 47.0712 28.1272C46.5421 33.089 44.2571 37.5318 40.8525 40.8292V40.8292ZM42.3422 17.0767C43.1357 16.3543 43.502 15.387 43.673 14.3584C43.9605 14.7865 44.229 15.2277 44.4847 15.6775C40.9882 21 33.5883 29.3793 27.3235 35.015C27.7816 35.4212 28.2379 35.8245 28.6863 36.2096C34.7609 30.6686 41.0425 23.7293 45.4129 17.5166C46.5738 20.1371 47.2282 23.0677 47.1857 26.1072C45.9899 26.7188 44.5712 26.8738 43.4896 27.7817C42.3828 28.699 42.0734 29.9545 41.8003 31.0625C41.62 31.7945 41.4502 32.4858 41.0745 33.0323C40.0844 34.3853 38.101 35.2237 37.7074 37.0874C37.2672 39.0394 38.8691 40.4855 39.4148 42.1006C38.4071 42.9119 37.324 43.6328 36.1751 44.2479C27.7659 38.9668 13.5071 24.8666 7.90052 16.3327C8.77832 14.651 9.87821 13.1038 11.1633 11.7298C12.0663 14.972 15.5454 18.3689 18.8884 16.0123C19.3838 15.6285 19.7502 15.0788 20.2018 14.7344C20.6527 14.4178 21.2529 14.3971 21.6631 14.4324C22.8489 14.4703 23.0266 15.4358 23.4196 16.4631C24.1214 18.3957 25.1062 19.7748 26.3517 20.5645C27.9856 21.6083 30.2521 21.4475 31.4833 19.9244C32.0921 19.2116 32.3118 18.1833 32.8544 17.5102C33.5315 16.7359 34.7708 16.8891 35.143 16.9553C37.4136 17.5507 40.4257 18.9187 42.3422 17.0767ZM26.3712 5.11615C32.5951 5.11615 38.1859 7.86144 42.0043 12.1991C42.1218 17.8682 39.1054 16.1215 35.4568 15.1743C33.8347 14.8818 32.3867 15.2994 31.4904 16.3209C30.8257 17.0609 30.6168 18.0635 30.0751 18.7873C27.9923 20.6393 25.9148 18.2045 25.1204 15.8438C24.7779 14.9119 24.4592 13.8708 23.5557 13.2193C22.1411 12.3091 20.3718 12.462 19.1561 13.2581C18.5927 13.6506 18.24 14.1975 17.7612 14.5971C16.787 15.3709 15.2489 14.831 14.3808 13.8868C13.5416 12.9793 13.0453 11.699 12.6055 10.329C16.278 7.08865 21.0971 5.11616 26.3712 5.11616L26.3712 5.11615ZM2.66799 3.04311C3.64833 2.06443 7.22218 2.51337 14.0599 6.96C11.0603 8.90749 8.55511 11.5476 6.76305 14.6482C2.78346 8.55975 1.45207 4.25753 2.66799 3.04311Z" fill="#121519"></path></svg> 