
<?xml version="1.0" encoding="UTF-8"?> <svg xmlns="http://www.w3.org/2000/svg" width="53" height="52" viewBox="0 0 53 52" fill="none"><circle cx="26.5" cy="26" r="26" fill="#FFDA44"></circle><path fill-rule="evenodd" clip-rule="evenodd" d="M4.62937 47.0476L9.92733 42.2987C10.1379 42.1099 10.2588 41.8407 10.2598 41.5579C10.2609 41.2751 10.1422 41.005 9.93307 40.8146L4.5994 35.9587H16.4226L22.1344 41.5484L16.427 47.0477L4.62937 47.0476ZM2.0156 49.0476L16.8304 49.0477C17.0892 49.0477 17.3379 48.9474 17.5243 48.7678L24.2637 42.2741C24.4583 42.0866 24.5687 41.8282 24.5698 41.5579C24.5709 41.2876 24.4624 41.0284 24.2692 40.8393L17.53 34.244C17.3431 34.0611 17.092 33.9587 16.8305 33.9587H2.01561C1.6026 33.9587 1.23209 34.2126 1.08302 34.5977C0.933947 34.9829 1.037 35.4201 1.34239 35.6981L7.76811 41.5483L1.34813 47.303C1.03954 47.5796 0.933545 48.0179 1.08163 48.405C1.22971 48.792 1.60118 49.0476 2.0156 49.0476Z" fill="black"></path><path fill-rule="evenodd" clip-rule="evenodd" d="M15.9032 48.4218C16.0557 48.8 16.4227 49.0477 16.8305 49.0477H31.6475C31.9063 49.0477 32.155 48.9473 32.3414 48.7677L39.0802 42.274C39.2748 42.0865 39.3852 41.8281 39.3863 41.5578C39.3873 41.2876 39.2789 41.0284 39.0857 40.8393L32.347 34.2439C32.1601 34.061 31.909 33.9586 31.6475 33.9586H16.8305C16.4241 33.9586 16.0581 34.2046 15.9046 34.5809C15.7511 34.9572 15.8406 35.389 16.1311 35.6733L22.1339 41.5484L16.1366 47.3276C15.843 47.6106 15.7506 48.0436 15.9032 48.4218ZM19.3094 47.0477L24.2632 42.274C24.4578 42.0865 24.5683 41.8281 24.5693 41.5578C24.5704 41.2876 24.4619 41.0284 24.2688 40.8393L19.282 35.9586H31.2396L36.9509 41.5484L31.2441 47.0477H19.3094Z" fill="black"></path><path fill-rule="evenodd" clip-rule="evenodd" d="M30.7202 48.4218C30.8728 48.8 31.2397 49.0477 31.6476 49.0477H45.2456C45.5044 49.0477 45.7531 48.9473 45.9394 48.7677L52.6782 42.274C52.8729 42.0865 52.9833 41.8281 52.9843 41.5578C52.9854 41.2876 52.877 41.0284 52.6838 40.8393L45.945 34.2439C45.7581 34.061 45.507 33.9586 45.2456 33.9586H31.6476C31.2411 33.9586 30.8751 34.2046 30.7216 34.5809C30.5681 34.9572 30.6576 35.389 30.9481 35.6733L36.9509 41.5484L30.9537 47.3276C30.66 47.6106 30.5676 48.0436 30.7202 48.4218ZM34.1264 47.0477L39.0801 42.274C39.2748 42.0865 39.3852 41.8281 39.3862 41.5578C39.3873 41.2876 39.2789 41.0284 39.0857 40.8393L34.0989 35.9586H44.8376L50.549 41.5484L44.8421 47.0477H34.1264Z" fill="black"></path><path fill-rule="evenodd" clip-rule="evenodd" d="M24.4294 20.901C24.8199 21.2915 25.4531 21.2915 25.8436 20.901L33.0897 13.6549C33.4802 13.2644 33.4802 12.6312 33.0897 12.2407C32.6991 11.8502 32.066 11.8502 31.6754 12.2407L25.1365 18.7797L22.4388 16.0821C22.0483 15.6916 21.4151 15.6916 21.0246 16.0821C20.6341 16.4727 20.6341 17.1058 21.0246 17.4963L24.4294 20.901Z" fill="black"></path><path fill-rule="evenodd" clip-rule="evenodd" d="M27 26C32.5228 26 37 21.5228 37 16C37 10.4772 32.5228 6 27 6C21.4772 6 17 10.4772 17 16C17 21.5228 21.4772 26 27 26ZM27 28C33.6274 28 39 22.6274 39 16C39 9.37258 33.6274 4 27 4C20.3726 4 15 9.37258 15 16C15 22.6274 20.3726 28 27 28Z" fill="black"></path></svg> 