<?xml version="1.0" standalone="no" ?>
<!DOCTYPE svg PUBLIC "-//W3C//DTD SVG 20010904//EN"
  "http://www.w3.org/TR/2001/REC-SVG-20010904/DTD/svg10.dtd">
<svg
  version="1.0"
  xmlns="http://www.w3.org/2000/svg"
  width="60px"
  height="60px"
  viewBox="0 0 512.000000 512.000000"
  preserveAspectRatio="xMidYMid meet"
>

<g
    transform="translate(0.000000,512.000000) scale(0.100000,-0.100000)"
    fill="#000000"
    stroke="none"
  >
<path
      d="M2326 5029 c-158 -15 -257 -37 -283 -61 -21 -20 -23 -29 -23 -125 0
-162 -21 -193 -165 -243 -50 -18 -142 -56 -206 -86 -119 -56 -176 -67 -222
-43 -12 7 -56 45 -98 85 -93 90 -109 93 -195 32 -227 -161 -433 -365 -588
-582 -76 -107 -75 -118 18 -215 40 -42 78 -86 85 -98 24 -46 13 -103 -43 -222
-30 -64 -68 -156 -86 -206 -50 -144 -81 -165 -243 -165 -131 0 -141 -8 -162
-131 -45 -263 -45 -555 0 -818 21 -123 31 -131 162 -131 162 0 193 -21 243
-165 18 -50 56 -142 86 -206 56 -119 67 -176 43 -222 -7 -12 -45 -56 -85 -98
-90 -93 -93 -109 -32 -195 162 -227 375 -440 602 -602 86 -61 102 -58 195 32
42 40 86 78 98 85 46 24 102 13 222 -43 64 -30 157 -68 206 -86 144 -50 165
-81 165 -243 0 -131 8 -141 131 -162 263 -45 555 -45 818 0 123 21 131 31 131
162 0 163 20 192 172 247 53 19 145 57 205 85 114 53 171 63 216 40 12 -7 56
-45 98 -85 93 -90 109 -93 195 -32 227 162 440 375 602 602 61 86 58 102 -32
195 -40 42 -78 86 -85 98 -23 45 -13 102 40 216 28 60 66 152 85 205 55 152
84 172 247 172 96 0 105 2 125 23 25 27 45 124 62 302 18 200 9 424 -25 624
-21 123 -31 131 -162 131 -162 0 -193 21 -243 165 -18 49 -56 142 -86 206 -56
120 -67 176 -43 222 7 12 45 56 85 98 90 93 93 109 32 195 -162 227 -375 440
-602 602 -86 61 -102 58 -195 -32 -42 -40 -86 -78 -98 -85 -46 -24 -103 -13
-222 43 -64 30 -156 68 -206 86 -144 50 -165 81 -165 243 0 96 -2 105 -23 125
-57 54 -473 87 -751 61z m535 -169 l76 -12 6 -82 c10 -163 86 -258 251 -312
45 -15 145 -55 223 -90 126 -57 148 -64 205 -64 91 0 149 23 218 86 32 30 63
54 70 54 21 0 188 -139 289 -241 102 -102 241 -269 241 -289 0 -7 -24 -38 -54
-70 -63 -69 -86 -127 -86 -218 0 -57 6 -79 51 -176 28 -61 69 -160 91 -221 44
-125 76 -176 133 -218 62 -44 103 -58 192 -64 l81 -6 13 -86 c18 -113 18 -469
0 -582 l-13 -86 -81 -6 c-90 -6 -130 -19 -194 -66 -58 -42 -85 -87 -131 -216
-22 -60 -63 -160 -91 -221 -45 -97 -51 -119 -51 -176 0 -91 23 -149 86 -218
30 -32 54 -63 54 -70 0 -20 -139 -187 -241 -289 -102 -102 -269 -241 -289
-241 -7 0 -38 24 -70 54 -69 63 -127 86 -218 86 -57 0 -79 -7 -205 -64 -78
-35 -179 -76 -224 -90 -96 -32 -150 -68 -190 -128 -45 -67 -55 -97 -60 -185
l-6 -81 -86 -13 c-113 -18 -469 -18 -582 0 l-86 13 -6 81 c-6 89 -20 130 -64
192 -42 57 -93 89 -218 133 -60 22 -155 61 -210 87 -173 83 -291 74 -404 -31
-32 -30 -64 -54 -71 -54 -21 0 -188 139 -289 241 -102 101 -241 268 -241 289
0 7 24 38 54 70 63 69 86 127 86 218 0 57 -7 79 -60 196 -33 73 -74 172 -90
221 -61 180 -147 251 -317 262 l-81 6 -13 86 c-8 50 -14 172 -14 291 0 119 6
241 14 291 l13 86 81 6 c170 11 256 82 317 262 16 49 57 148 90 221 53 117 60
139 60 196 0 91 -23 149 -86 218 -30 32 -54 63 -54 70 0 21 139 188 241 289
101 102 268 241 289 241 7 0 39 -24 71 -54 113 -105 231 -114 404 -31 55 26
150 65 210 87 125 44 176 76 218 133 44 62 58 103 64 192 l6 81 81 11 c44 6
99 13 121 15 73 7 399 -2 476 -14z"
    />
<path
      d="M2395 4313 c-327 -30 -673 -171 -940 -383 -66 -53 -220 -209 -277
-280 -255 -321 -393 -747 -375 -1160 28 -645 396 -1214 972 -1503 575 -288
1244 -240 1785 127 112 76 275 226 363 334 481 592 526 1432 111 2070 -288
443 -757 731 -1289 792 -85 9 -262 11 -350 3z m469 -183 c904 -181 1469 -1070
1246 -1958 -145 -574 -588 -1017 -1162 -1162 -811 -203 -1637 250 -1905 1045
-59 175 -77 295 -77 505 -1 152 3 205 22 295 101 502 405 905 858 1135 154 79
335 132 559 164 73 11 363 -4 459 -24z"
    />
<path
      d="M1893 3745 c-230 -50 -396 -230 -410 -447 l-6 -78 -50 -31 c-220
-135 -290 -423 -153 -630 l26 -38 -30 -47 c-49 -77 -65 -138 -64 -239 0 -69 6
-104 23 -148 33 -84 105 -173 181 -225 64 -44 65 -45 82 -114 22 -88 57 -153
116 -213 207 -211 546 -233 781 -52 100 77 91 -32 91 1075 0 1083 6 1000 -72
1064 -143 117 -333 162 -515 123z m242 -159 c58 -15 107 -38 153 -73 l32 -24
0 -375 c0 -292 -3 -374 -12 -374 -31 0 -141 -63 -182 -104 -40 -40 -96 -130
-96 -155 0 -5 33 -20 74 -34 l73 -25 17 39 c18 40 89 109 113 109 11 0 13 -87
13 -470 l0 -470 -41 -30 c-77 -55 -142 -74 -259 -75 -95 0 -111 3 -167 29 -40
18 -81 48 -113 82 -46 49 -89 121 -90 151 0 7 19 21 43 31 24 11 59 34 80 51
44 39 97 142 97 188 l0 33 -79 0 -79 0 -6 -33 c-7 -38 -59 -93 -97 -102 -37
-9 -115 32 -163 85 -58 64 -80 122 -80 205 0 81 21 130 85 200 53 57 53 93 0
150 -64 70 -85 119 -85 200 0 123 69 228 185 279 l60 28 46 -24 c43 -21 72
-58 87 -110 5 -15 18 -18 81 -18 l75 0 0 28 c0 87 -84 206 -175 248 -27 13
-59 24 -69 24 -17 0 -18 6 -13 55 21 201 267 341 492 281z"
    />
<path
      d="M2560 3680 l0 -80 100 0 99 0 82 -110 c44 -61 89 -115 99 -120 10 -6
53 -10 95 -10 l77 0 54 -49 c125 -115 302 -82 380 69 26 50 24 153 -4 206 -45
88 -141 141 -236 131 -65 -6 -104 -25 -150 -73 -31 -32 -42 -52 -60 -106 -4
-13 -16 -18 -43 -18 -37 0 -41 4 -118 111 -44 61 -88 115 -97 120 -9 5 -75 9
-147 9 l-131 0 0 -80z m811 -133 c44 -34 47 -89 7 -127 -47 -44 -128 -6 -128
60 0 60 76 102 121 67z"
    />
<path
      d="M2580 3120 l0 -80 139 0 139 0 91 -114 c50 -63 98 -117 107 -120 9
-3 102 -6 209 -6 l193 0 12 -30 c17 -42 90 -104 138 -118 112 -34 233 17 290
123 23 42 23 169 -1 212 -56 104 -177 155 -289 121 -48 -14 -121 -76 -138
-118 l-12 -30 -167 0 -166 0 -80 101 c-117 148 -97 139 -296 139 l-169 0 0
-80z m1155 -185 c16 -15 25 -36 25 -55 0 -19 -9 -40 -25 -55 -15 -16 -36 -25
-55 -25 -19 0 -40 9 -55 25 -16 15 -25 36 -25 55 0 19 9 40 25 55 15 16 36 25
55 25 19 0 40 -9 55 -25z"
    />
<path d="M2640 2800 l0 -80 80 0 80 0 0 80 0 80 -80 0 -80 0 0 -80z" />
<path d="M2800 2480 l0 -80 80 0 80 0 0 80 0 80 -80 0 -80 0 0 -80z" />
<path
      d="M3587 2466 c-53 -19 -103 -61 -129 -106 l-23 -40 -187 0 c-114 0
-196 -4 -210 -11 -13 -6 -61 -60 -108 -119 l-85 -109 -142 -1 -143 0 0 -80 0
-80 174 0 c202 0 175 -13 295 138 l82 102 164 0 164 0 17 -35 c37 -78 144
-133 237 -121 159 18 252 190 184 339 -38 83 -121 136 -212 136 -22 0 -57 -6
-78 -13z m127 -167 c37 -29 37 -89 0 -118 -35 -27 -66 -26 -100 2 -20 17 -27
33 -27 57 0 24 7 40 27 57 34 28 65 29 100 2z"
    />
<path
      d="M3245 1865 c-22 -9 -60 -36 -85 -60 l-46 -45 -78 0 c-42 0 -86 -4
-96 -10 -10 -5 -55 -59 -99 -120 l-82 -110 -99 0 -100 0 0 -80 0 -80 131 0
c72 0 138 4 147 9 9 5 53 59 97 120 80 111 80 111 118 109 36 -3 40 -6 52 -43
20 -59 101 -130 165 -145 155 -37 294 72 294 230 0 70 -16 114 -63 163 -60 65
-175 93 -256 62z m132 -165 c29 -27 37 -56 23 -89 -21 -53 -86 -66 -125 -26
-70 69 31 182 102 115z"
    />
</g>
</svg>
