
<?xml version="1.0" encoding="UTF-8"?> <svg xmlns="http://www.w3.org/2000/svg" width="48" height="48" viewBox="0 0 48 48" fill="none"><g clip-path="url(#clip0_3995_16468)"><circle cx="24" cy="24" r="24" fill="#FFDA44"></circle><path d="M26.2504 5.99988H21.7504C21.3364 5.99988 21.0004 5.66388 21.0004 5.24988C21.0004 4.83588 21.3364 4.49988 21.7504 4.49988H26.2504C26.6644 4.49988 27.0004 4.83588 27.0004 5.24988C27.0004 5.66388 26.6644 5.99988 26.2504 5.99988Z" fill="#121519"></path><path d="M32.2498 46.5H15.7498C13.6813 46.5 11.9998 44.817 11.9998 42.75V17.25C11.9998 16.836 12.3358 16.5 12.7498 16.5C13.1638 16.5 13.4998 16.836 13.4998 17.25V42.75C13.4998 43.9905 14.5093 45 15.7498 45H32.2498C33.4903 45 34.4998 43.9905 34.4998 42.75V17.25C34.4998 16.836 34.8358 16.5 35.2498 16.5C35.6638 16.5 35.9998 16.836 35.9998 17.25V42.75C35.9998 44.817 34.3183 46.5 32.2498 46.5Z" fill="#121519"></path><path d="M35.2498 22.4999C34.8358 22.4999 34.4998 22.1639 34.4998 21.7499V5.24988C34.4998 4.00938 33.4903 2.99988 32.2498 2.99988H15.7498C14.5093 2.99988 13.4998 4.00938 13.4998 5.24988V21.7499C13.4998 22.1639 13.1638 22.4999 12.7498 22.4999C12.3358 22.4999 11.9998 22.1639 11.9998 21.7499V5.24988C11.9998 3.18288 13.6813 1.49988 15.7498 1.49988H32.2498C34.3183 1.49988 35.9998 3.18288 35.9998 5.24988V21.7499C35.9998 22.1639 35.6638 22.4999 35.2498 22.4999Z" fill="#121519"></path><path d="M39.7496 9.075C39.3356 9.075 38.9996 8.814 38.9996 8.4V8.25C38.9996 7.836 39.3356 7.5 39.7496 7.5C40.1636 7.5 40.4996 7.836 40.4996 8.25C40.4996 8.664 40.1636 9.075 39.7496 9.075Z" fill="#121519"></path><path d="M39.7496 12.075C39.3356 12.075 38.9996 11.814 38.9996 11.4V11.25C38.9996 10.836 39.3356 10.5 39.7496 10.5C40.1636 10.5 40.4996 10.836 40.4996 11.25C40.4996 11.664 40.1636 12.075 39.7496 12.075Z" fill="#121519"></path><path d="M39.7496 15.0751C39.3356 15.0751 38.9996 14.8141 38.9996 14.4001V14.2501C38.9996 13.8361 39.3356 13.5001 39.7496 13.5001C40.1636 13.5001 40.4996 13.8361 40.4996 14.2501C40.4996 14.6641 40.1636 15.0751 39.7496 15.0751Z" fill="#121519"></path><path d="M8.24939 34.4264C7.83539 34.4264 7.49939 34.1654 7.49939 33.7514V33.6014C7.49939 33.1874 7.83539 32.8514 8.24939 32.8514C8.66339 32.8514 8.99939 33.1874 8.99939 33.6014C8.99939 34.0154 8.66339 34.4264 8.24939 34.4264Z" fill="#121519"></path><path d="M8.24939 37.4264C7.83539 37.4264 7.49939 37.1654 7.49939 36.7514V36.6014C7.49939 36.1874 7.83539 35.8514 8.24939 35.8514C8.66339 35.8514 8.99939 36.1874 8.99939 36.6014C8.99939 37.0154 8.66339 37.4264 8.24939 37.4264Z" fill="#121519"></path><path d="M8.24939 40.4266C7.83539 40.4266 7.49939 40.1656 7.49939 39.7516V39.6016C7.49939 39.1876 7.83539 38.8516 8.24939 38.8516C8.66339 38.8516 8.99939 39.1876 8.99939 39.6016C8.99939 40.0156 8.66339 40.4266 8.24939 40.4266Z" fill="#121519"></path><path d="M37.2621 40.5001C37.2096 40.5001 37.1556 40.4956 37.1031 40.4836C36.6981 40.3966 36.4416 39.9976 36.5286 39.5926L37.0236 37.2976C37.0836 37.0156 37.3011 36.7951 37.5801 36.7276C38.2881 36.5566 38.9781 36.2686 39.6306 35.8711C39.8721 35.7211 40.1826 35.7256 40.4241 35.8786L41.9091 36.8281L42.8286 35.9011L41.8791 34.4281C41.7231 34.1866 41.7201 33.8761 41.8686 33.6316C42.2661 32.9791 42.5541 32.2891 42.7236 31.5811C42.7911 31.3021 43.0101 31.0861 43.2906 31.0231L45.0006 30.6436V29.3581L43.2921 28.9786C43.0116 28.9156 42.7926 28.6996 42.7251 28.4206C42.5556 27.7126 42.2661 27.0226 41.8701 26.3701C41.7201 26.1256 41.7231 25.8166 41.8791 25.5751L42.8301 24.0886L41.9121 23.1706L40.4256 24.1216C40.1841 24.2761 39.8751 24.2791 39.6321 24.1291C38.9781 23.7316 38.2881 23.4436 37.5816 23.2726C37.3011 23.2051 37.0851 22.9831 37.0251 22.7026L36.6561 21.0001H36.0006C35.5866 21.0001 35.2506 20.6641 35.2506 20.2501C35.2506 19.8361 35.5866 19.5001 36.0006 19.5001H37.2606C37.6131 19.5001 37.9191 19.7476 37.9926 20.0926L38.3931 21.9421C38.9421 22.1086 39.4806 22.3336 39.9996 22.6141L41.6106 21.5836C41.9076 21.3946 42.2946 21.4366 42.5451 21.6856L44.3166 23.4556C44.5656 23.7046 44.6076 24.0931 44.4171 24.3901L43.3866 26.0011C43.6671 26.5216 43.8921 27.0601 44.0586 27.6106L45.9111 28.0216C46.2561 28.0981 46.5006 28.4041 46.5006 28.7551V31.2451C46.5006 31.5961 46.2561 31.9021 45.9126 31.9771L44.0601 32.3881C43.8936 32.9386 43.6686 33.4771 43.3881 33.9961L44.4171 35.5921C44.6091 35.8876 44.5686 36.2776 44.3196 36.5266L42.5481 38.3116C42.2976 38.5621 41.9091 38.6041 41.6121 38.4151L40.0011 37.3846C39.4806 37.6651 38.9436 37.8901 38.3946 38.0566L37.9941 39.9061C37.9176 40.2601 37.6056 40.5001 37.2621 40.5001Z" fill="#121519"></path><path d="M38.0861 33.8669C37.8461 33.8669 37.6091 33.7499 37.4636 33.5354C37.2326 33.1919 37.3241 32.7254 37.6691 32.4944C38.5016 31.9334 38.9996 31.0004 38.9996 29.9999C38.9996 28.3454 37.6541 26.9999 35.9996 26.9999C35.7956 26.9999 35.5931 27.0209 35.3996 27.0599C34.9976 27.1409 34.5971 26.8829 34.5131 26.4749C34.4306 26.0684 34.6916 25.6724 35.0981 25.5899C35.3921 25.5314 35.6951 25.4999 35.9996 25.4999C38.4806 25.4999 40.4996 27.5189 40.4996 29.9999C40.4996 31.5014 39.7541 32.8994 38.5031 33.7394C38.3756 33.8249 38.2301 33.8669 38.0861 33.8669Z" fill="#121519"></path><path d="M11.9996 22.4994C9.51863 22.4994 7.49963 20.4804 7.49963 17.9994C7.49963 16.4919 8.24963 15.0924 9.50663 14.2524C9.84713 14.0244 10.3151 14.1144 10.5461 14.4609C10.7756 14.8044 10.6826 15.2709 10.3376 15.5004C9.50063 16.0614 8.99963 16.9944 8.99963 17.9994C8.99963 19.6539 10.3451 20.9994 11.9996 20.9994C12.2006 20.9994 12.3986 20.9799 12.5876 20.9409C12.9851 20.8584 13.3886 21.1209 13.4711 21.5289C13.5536 21.9354 13.2896 22.3299 12.8831 22.4109C12.5966 22.4694 12.3026 22.4994 11.9996 22.4994Z" fill="#121519"></path><path d="M12.0004 28.4998H10.7404C10.3879 28.4998 10.0819 28.2523 10.0084 27.9073L9.60787 26.0578C9.05887 25.8913 8.52037 25.6663 8.00137 25.3858L6.39037 26.4163C6.09187 26.6053 5.70637 26.5648 5.45587 26.3143L3.68437 24.5443C3.43537 24.2953 3.39337 23.9068 3.58387 23.6098L4.61437 21.9988C4.33387 21.4783 4.10887 20.9398 3.94237 20.3893L2.08987 19.9783C1.74487 19.9018 1.50037 19.5958 1.50037 19.2448V16.7548C1.50037 16.4038 1.74487 16.0978 2.08837 16.0228L3.94087 15.6118C4.10737 15.0613 4.33237 14.5228 4.61287 14.0038L3.58537 12.4063C3.39337 12.1108 3.43387 11.7208 3.68287 11.4718L5.45437 9.68679C5.70187 9.43479 6.09187 9.39279 6.39037 9.58329L8.00137 10.6138C8.52187 10.3333 9.05887 10.1083 9.60787 9.94179L10.0084 8.09229C10.0954 7.68579 10.5019 7.42779 10.8994 7.51779C11.3044 7.60479 11.5609 8.00379 11.4739 8.40879L10.9789 10.7038C10.9189 10.9858 10.7014 11.2063 10.4224 11.2738C9.71437 11.4448 9.02437 11.7328 8.37037 12.1303C8.12737 12.2803 7.81837 12.2758 7.57687 12.1228L6.09187 11.1733L5.17087 12.1003L6.12037 13.5733C6.27787 13.8148 6.28087 14.1253 6.13087 14.3698C5.73337 15.0223 5.44537 15.7123 5.27587 16.4203C5.20837 16.6993 4.98937 16.9153 4.70887 16.9783L3.00037 17.3563V18.6418L4.70887 19.0213C4.98937 19.0843 5.20837 19.3003 5.27587 19.5793C5.44537 20.2873 5.73487 20.9773 6.13087 21.6298C6.28087 21.8743 6.27787 22.1833 6.12187 22.4248L5.17087 23.9098L6.08887 24.8278L7.57537 23.8768C7.81687 23.7238 8.12737 23.7208 8.36887 23.8693C9.02287 24.2668 9.71287 24.5548 10.4194 24.7258C10.6999 24.7933 10.9159 25.0153 10.9759 25.2958L11.3449 26.9998H12.0004C12.4144 26.9998 12.7504 27.3358 12.7504 27.7498C12.7504 28.1638 12.4144 28.4998 12.0004 28.4998Z" fill="#121519"></path><path d="M26.473 18C26.5028 18 26.5326 18 26.5641 18C26.6372 18.903 26.2925 19.5778 25.8736 20.0664C25.4626 20.5516 24.8998 21.0222 23.9894 20.9508C23.9287 20.0607 24.274 19.4361 24.6923 18.9486C25.0803 18.4942 25.7915 18.09 26.473 18Z" fill="#121519"></path><path d="M29.2293 27.3991C29.2293 27.4081 29.2293 27.4159 29.2293 27.4244C28.9735 28.1992 28.6086 28.8632 28.1632 29.4795C27.7567 30.039 27.2585 30.7918 26.369 30.7918C25.6004 30.7918 25.0898 30.2976 24.3021 30.2841C23.4688 30.2706 23.0105 30.6974 22.2486 30.8048C22.1615 30.8048 22.0743 30.8048 21.9889 30.8048C21.4294 30.7238 20.9779 30.2807 20.649 29.8815C19.679 28.7019 18.9295 27.1781 18.7901 25.2281C18.7901 25.0369 18.7901 24.8463 18.7901 24.6551C18.8491 23.2596 19.5272 22.1249 20.4285 21.575C20.9042 21.2826 21.5582 21.0335 22.2863 21.1448C22.5984 21.1932 22.9172 21.3 23.1966 21.4057C23.4615 21.5075 23.7927 21.688 24.1064 21.6784C24.3189 21.6723 24.5304 21.5615 24.7446 21.4833C25.3721 21.2567 25.9872 20.997 26.798 21.119C27.7725 21.2663 28.4641 21.6992 28.8914 22.3672C28.0671 22.8918 27.4154 23.6824 27.5267 25.0324C27.6257 26.2588 28.3387 26.9762 29.2293 27.3991Z" fill="#121519"></path></g><defs><clipPath id="clip0_3995_16468"><rect width="48" height="48" fill="white"></rect></clipPath></defs></svg> 