
<?xml version="1.0" encoding="UTF-8"?> <svg xmlns="http://www.w3.org/2000/svg" width="53" height="52" viewBox="0 0 53 52" fill="none"><circle cx="26.5" cy="26" r="26" fill="#FFDA44"></circle><path d="M36.3751 36.4577H35.0086C34.767 36.4577 34.5353 36.3617 34.3645 36.1909C34.1936 36.02 34.0977 35.7883 34.0977 35.5467C34.0977 35.3051 34.1936 35.0734 34.3645 34.9026C34.5353 34.7317 34.767 34.6357 35.0086 34.6357H36.3751C36.6167 34.6357 36.8484 34.7317 37.0193 34.9026C37.1901 35.0734 37.2861 35.3051 37.2861 35.5467C37.2861 35.7883 37.1901 36.02 37.0193 36.1909C36.8484 36.3617 36.6167 36.4577 36.3751 36.4577Z" fill="#121519"></path><path d="M41.3361 36.4577H39.9696C39.728 36.4577 39.4963 36.3617 39.3254 36.1909C39.1546 36.02 39.0586 35.7883 39.0586 35.5467C39.0586 35.3051 39.1546 35.0734 39.3254 34.9026C39.4963 34.7317 39.728 34.6357 39.9696 34.6357H41.3361C41.5777 34.6357 41.8094 34.7317 41.9802 34.9026C42.1511 35.0734 42.247 35.3051 42.247 35.5467C42.247 35.7883 42.1511 36.02 41.9802 36.1909C41.8094 36.3617 41.5777 36.4577 41.3361 36.4577Z" fill="#121519"></path><path d="M46.2973 36.4577H44.8329C44.5913 36.4577 44.3595 36.3617 44.1887 36.1909C44.0179 36.02 43.9219 35.7883 43.9219 35.5467C43.9219 35.3051 44.0179 35.0734 44.1887 34.9026C44.3595 34.7317 44.5913 34.6357 44.8329 34.6357H46.295C46.5366 34.6357 46.7683 34.7317 46.9392 34.9026C47.11 35.0734 47.206 35.3051 47.206 35.5467C47.206 35.7883 47.11 36.02 46.9392 36.1909C46.7683 36.3617 46.5366 36.4577 46.295 36.4577H46.2973Z" fill="#121519"></path><path d="M20.6023 46.2108C20.3676 46.1543 20.1648 46.007 20.0386 45.8012C19.9124 45.5954 19.8731 45.3479 19.9293 45.113L21.5771 38.226C21.6049 38.1097 21.6555 37.9999 21.7258 37.9031C21.7961 37.8063 21.8847 37.7243 21.9867 37.6618C22.0887 37.5992 22.202 37.5574 22.3202 37.5386C22.4383 37.5199 22.559 37.5246 22.6754 37.5524C22.7917 37.5803 22.9014 37.6309 22.9982 37.7012C23.095 37.7714 23.1771 37.8601 23.2396 37.9621C23.3022 38.0641 23.344 38.1774 23.3628 38.2956C23.3815 38.4137 23.3768 38.5344 23.3489 38.6508L21.7012 45.5332C21.6737 45.65 21.6235 45.7602 21.5534 45.8575C21.4832 45.9548 21.3946 46.0373 21.2925 46.1003C21.1904 46.1632 21.0768 46.2054 20.9584 46.2243C20.84 46.2433 20.719 46.2387 20.6023 46.2108Z" fill="#121519"></path><path d="M31.2916 45.5064L29.8933 38.6239C29.8694 38.5067 29.8689 38.3859 29.8917 38.2685C29.9146 38.151 29.9603 38.0392 30.0263 37.9395C30.0924 37.8397 30.1774 37.7539 30.2766 37.687C30.3758 37.6201 30.4872 37.5734 30.6044 37.5495C30.7217 37.5257 30.8425 37.5252 30.9599 37.548C31.0773 37.5708 31.1891 37.6166 31.2889 37.6826C31.3887 37.7486 31.4745 37.8337 31.5414 37.9329C31.6083 38.032 31.655 38.1434 31.6788 38.2607L33.0772 45.1432C33.1254 45.3799 33.0775 45.6262 32.9441 45.8276C32.8108 46.0291 32.6028 46.1694 32.366 46.2176C32.1293 46.2657 31.8831 46.2179 31.6816 46.0845C31.4801 45.9511 31.3398 45.7432 31.2916 45.5064Z" fill="#121519"></path><path d="M36.1093 46.236H16.826C16.5844 46.236 16.3527 46.1401 16.1819 45.9692C16.011 45.7984 15.915 45.5667 15.915 45.325C15.915 45.0834 16.011 44.8517 16.1819 44.6809C16.3527 44.51 16.5844 44.4141 16.826 44.4141H36.1093C36.3509 44.4141 36.5826 44.51 36.7535 44.6809C36.9243 44.8517 37.0203 45.0834 37.0203 45.325C37.0203 45.5667 36.9243 45.7984 36.7535 45.9692C36.5826 46.1401 36.3509 46.236 36.1093 46.236Z" fill="#121519"></path><path d="M49.1884 39.3533H3.81342C2.29777 39.3533 1.19434 38.2532 1.19434 36.7342V8.96964C1.19434 7.47449 2.34445 6.30273 3.81342 6.30273H49.1884C49.8884 6.31055 50.5567 6.59574 51.0467 7.09572C51.5366 7.59571 51.8082 8.26964 51.8018 8.96964V36.7387C51.8056 37.083 51.7406 37.4246 51.6107 37.7435C51.4807 38.0623 51.2884 38.352 51.0449 38.5956C50.8015 38.8391 50.5119 39.0316 50.1931 39.1617C49.8743 39.2918 49.5327 39.3569 49.1884 39.3533ZM3.81342 8.1247C3.26797 8.1247 3.01631 8.56198 3.01631 8.96964V36.7387C3.01631 37.2352 3.31351 37.5358 3.81342 37.5358H49.1884C49.2935 37.5382 49.3979 37.5192 49.4954 37.4799C49.5929 37.4406 49.6813 37.3818 49.7553 37.3073C49.8294 37.2327 49.8875 37.1438 49.9261 37.0461C49.9647 36.9484 49.983 36.8438 49.9798 36.7387V8.96964C49.9839 8.75348 49.9035 8.54424 49.7557 8.38645C49.6079 8.22865 49.4044 8.13475 49.1884 8.1247H3.81342Z" fill="#121519"></path><path d="M50.8905 33.5573H2.10727C1.86567 33.5573 1.63395 33.4613 1.46311 33.2905C1.29227 33.1197 1.19629 32.8879 1.19629 32.6463C1.19629 32.4047 1.29227 32.173 1.46311 32.0022C1.63395 31.8313 1.86567 31.7354 2.10727 31.7354H50.8905C51.1321 31.7354 51.3638 31.8313 51.5347 32.0022C51.7055 32.173 51.8015 32.4047 51.8015 32.6463C51.8015 32.8879 51.7055 33.1197 51.5347 33.2905C51.3638 33.4613 51.1321 33.5573 50.8905 33.5573Z" fill="#121519"></path><path d="M12.2093 27.6878C11.937 27.6878 11.8632 27.626 10.6755 27.3201C10.3939 27.2461 10.1485 27.0731 9.98413 26.8328C9.81978 26.5926 9.7475 26.3011 9.78054 26.0119L9.87925 25.0942C9.64379 24.9387 9.41976 24.7665 9.20888 24.579L8.34109 24.9131C8.06951 25.0191 7.76883 25.0237 7.49411 24.9261C7.2194 24.8285 6.98905 24.6351 6.84524 24.3815L6.21935 23.2968C6.07222 23.0447 6.02148 22.7479 6.07653 22.4612C6.13158 22.1746 6.28869 21.9177 6.51873 21.738L7.23358 21.1599C7.17792 20.8821 7.14168 20.6009 7.1251 20.3181L6.28118 19.945C6.01464 19.8284 5.799 19.6198 5.6737 19.3572C5.54841 19.0947 5.52185 18.7958 5.59887 18.5153L5.9243 17.3025C5.99836 17.0223 6.17038 16.7778 6.40917 16.6134C6.64796 16.4491 6.93774 16.3757 7.22598 16.4066L8.1415 16.5053C8.29802 16.2699 8.47054 16.0455 8.65784 15.8338L8.32374 14.966C8.21804 14.6946 8.21358 14.3941 8.31118 14.1197C8.40878 13.8452 8.60191 13.615 8.85526 13.4712L9.94 12.8454C10.1915 12.6969 10.4884 12.6448 10.7755 12.6987C11.0625 12.7525 11.3203 12.9087 11.5009 13.1382L12.078 13.8542C12.355 13.7986 12.6356 13.7623 12.9176 13.7457L13.2908 12.9018C13.407 12.6346 13.6157 12.4185 13.8785 12.2929C14.1414 12.1674 14.4407 12.1409 14.7215 12.2184L15.931 12.5438C16.2123 12.618 16.4576 12.7908 16.622 13.0308C16.7865 13.2707 16.8593 13.5618 16.827 13.8509L16.7283 14.7686C16.9644 14.9247 17.1895 15.0968 17.4019 15.2838L18.2632 14.9508C18.5347 14.8437 18.8358 14.8385 19.1108 14.9362C19.3858 15.0339 19.6161 15.2279 19.7591 15.4824L20.3849 16.5671C20.5308 16.8191 20.5815 17.1151 20.5277 17.4013C20.474 17.6875 20.3194 17.945 20.0921 18.1269L19.3761 18.7051C19.4317 18.9829 19.468 19.2641 19.4846 19.5469L20.3285 19.92C20.5952 20.0368 20.8108 20.2456 20.9361 20.5084C21.0614 20.7711 21.0879 21.0701 21.0108 21.3508L20.6854 22.5624C20.6112 22.8437 20.4384 23.089 20.1985 23.2535C19.9585 23.4179 19.6674 23.4907 19.3783 23.4584L18.4617 23.3597C18.3058 23.5953 18.1337 23.8197 17.9465 24.0312L18.2806 24.899C18.387 25.172 18.3906 25.4744 18.2909 25.7499C18.1911 26.0254 17.9947 26.2554 17.7382 26.397L16.6621 27.0196C16.4101 27.1663 16.1137 27.2173 15.8272 27.1636C15.5406 27.1098 15.2829 26.9548 15.1012 26.7268L14.5241 26.0108C14.2471 26.0664 13.9666 26.1027 13.6845 26.1193L13.3114 26.9643C13.2176 27.1788 13.0635 27.3613 12.8678 27.4898C12.6721 27.6182 12.4433 27.687 12.2093 27.6878ZM11.5584 25.7581L11.9142 25.8535L12.3329 24.9066C12.4031 24.7478 12.5193 24.6138 12.6664 24.5217C12.8136 24.4297 12.985 24.3839 13.1584 24.3902C13.6495 24.4078 14.14 24.3433 14.6098 24.1993C14.7755 24.149 14.9524 24.1493 15.1179 24.2004C15.2834 24.2514 15.4298 24.3508 15.5383 24.4857L16.1892 25.2916L16.5146 25.1062L16.1404 24.1364C16.0779 23.9749 16.0652 23.7985 16.1039 23.6297C16.1426 23.461 16.2308 23.3076 16.3573 23.1894C16.7163 22.8551 17.0169 22.4632 17.2468 22.0298C17.328 21.8764 17.4534 21.7509 17.6068 21.6695C17.7601 21.588 17.9344 21.5545 18.107 21.5732L19.1353 21.6816L19.2308 21.3248L18.2697 20.9071C18.1111 20.837 17.9772 20.721 17.8852 20.5741C17.7931 20.4271 17.7472 20.256 17.7534 20.0827C17.7706 19.591 17.7061 19.0998 17.5625 18.6292C17.5122 18.4638 17.5125 18.2871 17.5634 18.1219C17.6142 17.9566 17.7132 17.8103 17.8477 17.7017L18.6537 17.0509L18.4682 16.7255L17.5104 17.103C17.3489 17.1654 17.1724 17.1781 17.0037 17.1394C16.8349 17.1008 16.6816 17.0125 16.5634 16.886C16.2287 16.526 15.836 16.2246 15.4017 15.9944C15.248 15.9133 15.1223 15.7879 15.0406 15.6346C14.959 15.4812 14.9253 15.3069 14.9439 15.1342L15.0524 14.1037L14.6966 14.0082L14.2779 14.9552C14.2077 15.1139 14.0915 15.248 13.9444 15.34C13.7972 15.4321 13.6258 15.4779 13.4524 15.4715C12.9624 15.4545 12.4729 15.5194 12.0043 15.6635C11.8385 15.7142 11.6614 15.7141 11.4957 15.6633C11.33 15.6125 11.1834 15.5132 11.0746 15.3782L10.4238 14.5712L10.0984 14.7567L10.4726 15.7264C10.535 15.8879 10.5477 16.0644 10.5091 16.2331C10.4704 16.4019 10.3822 16.5552 10.2557 16.6734C9.89965 17.0083 9.60197 17.4002 9.37485 17.833C9.29312 17.9877 9.16651 18.1141 9.01164 18.1956C8.85678 18.2771 8.68089 18.3099 8.50706 18.2897L7.47873 18.1812L7.38327 18.5391L8.32916 18.9579C8.48773 19.028 8.62167 19.144 8.7137 19.2909C8.80573 19.4378 8.85164 19.609 8.8455 19.7823C8.82829 20.274 8.8928 20.7652 9.03641 21.2358C9.08665 21.4012 9.08634 21.5779 9.03551 21.7431C8.98468 21.9084 8.88565 22.0547 8.75112 22.1633L7.94516 22.8141L8.13065 23.1395L9.09716 22.7653C9.25892 22.7024 9.43582 22.6894 9.60502 22.7281C9.77422 22.7668 9.92793 22.8553 10.0463 22.9822C10.3795 23.3418 10.7708 23.6429 11.2037 23.8728C11.3568 23.9541 11.482 24.0794 11.5632 24.2326C11.6444 24.3857 11.6778 24.5596 11.6593 24.7319L11.5584 25.7581Z" fill="#121519"></path><path d="M13.3104 23.213C12.514 23.2154 11.7439 22.9279 11.1438 22.4044C10.5436 21.8808 10.1544 21.1569 10.0486 20.3675C9.94284 19.5781 10.1278 18.7773 10.5689 18.1142C11.0101 17.4511 11.6773 16.9711 12.4462 16.7636C13.2152 16.5562 14.0333 16.6355 14.7481 16.9868C15.4628 17.338 16.0255 17.9372 16.3311 18.6727C16.6366 19.4082 16.6643 20.2297 16.4089 20.984C16.1535 21.7384 15.6325 22.3741 14.9429 22.7726C14.4471 23.0607 13.8839 23.2127 13.3104 23.213ZM13.3006 18.386C12.909 18.3867 12.5322 18.5364 12.2467 18.8046C11.9613 19.0728 11.7884 19.4394 11.7633 19.8303C11.7381 20.2212 11.8624 20.607 12.1111 20.9096C12.3598 21.2122 12.7143 21.409 13.1026 21.46C13.491 21.511 13.8842 21.4125 14.2026 21.1844C14.521 20.9563 14.7408 20.6156 14.8174 20.2315C14.894 19.8474 14.8218 19.4485 14.6153 19.1157C14.4088 18.7829 14.0834 18.541 13.7052 18.4391C13.5733 18.4036 13.4373 18.3857 13.3006 18.386Z" fill="#121519"></path><path d="M30.0618 25.554C29.8316 25.554 29.6109 25.4626 29.4482 25.2998C29.2854 25.1371 29.194 24.9164 29.194 24.6862V20.1748L27.5669 22.8942C27.4898 23.023 27.3807 23.1296 27.2502 23.2036C27.1197 23.2776 26.9722 23.3165 26.8222 23.3165C26.6722 23.3165 26.5247 23.2776 26.3942 23.2036C26.2637 23.1296 26.1546 23.023 26.0775 22.8942L24.4504 20.1748V24.6862C24.4504 24.9164 24.359 25.1371 24.1963 25.2998C24.0335 25.4626 23.8128 25.554 23.5826 25.554C23.3525 25.554 23.1318 25.4626 22.969 25.2998C22.8063 25.1371 22.7148 24.9164 22.7148 24.6862V17.0421C22.7147 16.8522 22.7769 16.6676 22.8918 16.5165C23.0066 16.3654 23.1679 16.2561 23.3508 16.2054C23.5337 16.1547 23.7282 16.1653 23.9045 16.2357C24.0808 16.3061 24.2291 16.4324 24.3268 16.5952L26.8217 20.7616L29.322 16.5952C29.4196 16.4324 29.568 16.3061 29.7443 16.2357C29.9205 16.1653 30.1151 16.1547 30.298 16.2054C30.4809 16.2561 30.6421 16.3654 30.757 16.5165C30.8719 16.6676 30.934 16.8522 30.9339 17.0421V24.6862C30.9339 24.8005 30.9113 24.9137 30.8674 25.0193C30.8236 25.1249 30.7592 25.2207 30.6782 25.3014C30.5972 25.382 30.501 25.4458 30.3952 25.4892C30.2894 25.5326 30.1761 25.5546 30.0618 25.554Z" fill="#121519"></path><path d="M42.4596 25.5477C42.2294 25.5477 42.0087 25.4563 41.846 25.2935C41.6832 25.1308 41.5918 24.9101 41.5918 24.6799V17.0358C41.5918 16.8056 41.6832 16.5849 41.846 16.4221C42.0087 16.2594 42.2294 16.168 42.4596 16.168C42.6897 16.168 42.9105 16.2594 43.0732 16.4221C43.236 16.5849 43.3274 16.8056 43.3274 17.0358V24.6799C43.3274 24.9101 43.236 25.1308 43.0732 25.2935C42.9105 25.4563 42.6897 25.5477 42.4596 25.5477Z" fill="#121519"></path><path d="M45.2799 21.8498H42.4596C42.2294 21.8498 42.0087 21.7584 41.846 21.5957C41.6832 21.4329 41.5918 21.2122 41.5918 20.982C41.5918 20.7519 41.6832 20.5312 41.846 20.3684C42.0087 20.2057 42.2294 20.1142 42.4596 20.1142H45.2799C45.5731 20.1142 45.8542 19.9978 46.0615 19.7905C46.2688 19.5832 46.3853 19.3021 46.3853 19.0089C46.3853 18.7157 46.2688 18.4346 46.0615 18.2273C45.8542 18.02 45.5731 17.9036 45.2799 17.9036H42.4596C42.2294 17.9036 42.0087 17.8121 41.846 17.6494C41.6832 17.4866 41.5918 17.2659 41.5918 17.0358C41.5918 16.8056 41.6832 16.5849 41.846 16.4221C42.0087 16.2594 42.2294 16.168 42.4596 16.168H45.2799C45.653 16.168 46.0224 16.2415 46.3671 16.3842C46.7118 16.527 47.0249 16.7363 47.2888 17.0001C47.5526 17.2639 47.7618 17.577 47.9046 17.9217C48.0474 18.2664 48.1208 18.6358 48.1208 19.0089C48.1208 19.382 48.0474 19.7514 47.9046 20.0961C47.7618 20.4408 47.5526 20.7539 47.2888 21.0177C47.0249 21.2815 46.7118 21.4908 46.3671 21.6336C46.0224 21.7763 45.653 21.8498 45.2799 21.8498Z" fill="#121519"></path><path d="M36.1388 25.5485C35.9715 25.5485 35.8077 25.5002 35.6673 25.4094C35.5268 25.3186 35.4155 25.189 35.3469 25.0365L31.9116 17.3934C31.8622 17.2891 31.8341 17.176 31.829 17.0607C31.8238 16.9454 31.8418 16.8303 31.8817 16.722C31.9215 16.6138 31.9826 16.5145 32.0613 16.4302C32.1401 16.3458 32.2348 16.2779 32.3401 16.2306C32.4453 16.1833 32.5589 16.1574 32.6743 16.1546C32.7896 16.1517 32.9044 16.1718 33.0119 16.2139C33.1193 16.2559 33.2174 16.3189 33.3002 16.3992C33.383 16.4796 33.449 16.5757 33.4942 16.6818L36.1388 22.5643L38.7823 16.6818C38.8276 16.5757 38.8935 16.4796 38.9763 16.3992C39.0592 16.3189 39.1572 16.2559 39.2646 16.2139C39.3721 16.1718 39.4869 16.1517 39.6022 16.1546C39.7176 16.1574 39.8312 16.1833 39.9365 16.2306C40.0417 16.2779 40.1364 16.3458 40.2152 16.4302C40.2939 16.5145 40.355 16.6138 40.3949 16.722C40.4348 16.8303 40.4527 16.9454 40.4475 17.0607C40.4424 17.176 40.4143 17.2891 40.3649 17.3934L36.9274 25.0365C36.859 25.1885 36.7483 25.3177 36.6085 25.4085C36.4686 25.4993 36.3055 25.5479 36.1388 25.5485Z" fill="#121519"></path></svg> 