
<svg width="150" height="150" viewBox="0 0 150 150" fill="none" xmlns="http://www.w3.org/2000/svg">
<path fill-rule="evenodd" clip-rule="evenodd" d="M88.3217 0C87.237 0 86.2299 0.233346 85.3002 0.544461C87.2758 1.86673 88.3604 3.6168 88.9028 5.6002C88.9416 5.87243 89.019 6.06688 89.0578 6.3391C89.0966 6.57245 89.1352 6.80579 89.1352 7.03914C89.2902 10.4615 88.2442 10.8893 87.5082 12.9116C86.3848 15.5172 86.6947 18.3173 88.0505 20.573C88.1668 20.8452 88.3217 21.1563 88.5154 21.4285C87.0433 11.5893 95.217 10.1115 96.7278 7.03914C96.844 4.3557 94.6359 2.56675 92.8928 1.32226C91.227 0.311122 89.7162 0 88.3217 0ZM100.64 2.21674C100.485 3.11122 100.601 2.87788 100.563 3.34457C100.524 3.65568 100.524 4.04459 100.485 4.35571C100.408 4.66683 100.33 4.97794 100.214 5.28908C100.137 5.6002 100.021 5.91132 99.9044 6.22243C99.7494 6.53357 99.6332 6.80579 99.4783 7.11691C99.3621 7.27254 99.2846 7.42803 99.1684 7.5836C99.091 7.70027 99.0134 7.81694 98.936 7.93361C98.7423 8.20585 98.5486 8.47808 98.3549 8.71142C98.1225 8.94476 97.9288 9.21698 97.6576 9.41145V9.45039C97.4252 9.64484 97.1927 9.87819 96.9216 10.0726C96.1081 10.6949 95.1784 11.1616 94.3262 11.7449C94.055 11.9394 93.7838 12.0949 93.5514 12.3283C93.2802 12.5227 93.0478 12.7172 92.8154 12.9505C92.5442 13.1838 92.3505 13.4172 92.1181 13.6894C91.9244 13.9228 91.692 14.195 91.537 14.4672C91.3433 14.7395 91.1497 15.0117 90.9947 15.2839C90.8397 15.595 90.7235 15.8673 90.5686 16.1784C90.4524 16.4895 90.3362 16.7618 90.2587 17.0729C90.1425 17.4229 90.065 17.734 89.9875 18.0451C89.9487 18.2008 89.9487 18.3951 89.9101 18.5507C89.8713 18.7063 89.8713 18.8618 89.8327 19.0174C89.8327 19.3285 89.7939 19.6785 89.7939 19.9896C89.7939 20.223 89.7939 20.4563 89.8327 20.6897C89.8327 21.0008 89.8715 21.3119 89.9489 21.6619C89.9877 21.973 90.0651 22.2842 90.1426 22.5953C90.2588 22.9064 90.3363 23.2175 90.4525 23.5287C90.5299 23.7231 90.6462 23.9176 90.7237 24.0731L81.814 20.6119C80.3032 20.1841 78.8312 19.7952 77.3204 19.4452C76.5069 19.2507 75.6935 19.0563 74.8799 18.8618C72.5557 18.3951 70.1927 18.0451 67.8297 17.8118C67.7523 17.8118 67.7135 17.7729 67.636 17.7729C65.3117 17.5395 63.0262 17.4228 60.702 17.4228C58.9975 17.4228 57.293 17.5006 55.6273 17.6173C53.2643 17.7729 50.9013 18.084 48.5383 18.4729C47.9572 18.5506 47.3762 18.6673 46.7951 18.784C45.5942 19.0173 44.4321 19.2896 43.3087 19.5618C42.7276 19.7174 42.1466 19.8729 41.5655 20.0285C40.9844 20.2618 40.4421 20.5341 39.8998 20.7674C39.4737 20.9619 39.0476 21.1563 38.6214 21.3508C38.544 21.3897 38.4664 21.3897 38.4278 21.4285C38.0404 21.6229 37.6917 21.7785 37.3431 21.9729C37.2269 22.0119 37.1494 22.0507 37.0719 22.0896C36.6458 22.2841 36.2197 22.5174 35.8711 22.7119C35.5999 22.8285 35.3287 22.9841 35.0963 23.1008C34.9801 23.1785 34.8251 23.2564 34.7477 23.2952C34.399 23.4897 34.0504 23.6841 33.7405 23.8786C33.3918 24.073 33.0819 24.2675 32.8108 24.4619C32.5396 24.6564 32.2685 24.8119 32.036 25.0064C31.9972 25.0453 31.9586 25.0453 31.9198 25.0841C31.6874 25.2397 31.4162 25.4341 31.1838 25.6286C31.1838 25.6286 31.145 25.6675 31.1064 25.7063C30.9127 25.8619 30.719 26.0174 30.5253 26.173C30.4479 26.2119 30.3703 26.2896 30.2929 26.3286C30.0992 26.4842 29.9055 26.6786 29.7118 26.8342C29.673 26.9119 29.5956 26.9508 29.5568 26.9898C29.3244 27.2231 29.092 27.4176 28.8595 27.6509C28.8207 27.6509 28.8207 27.6899 28.7821 27.7286C28.5497 27.9231 28.3173 28.1564 28.0848 28.3898C28.046 28.4287 28.046 28.4675 28.0074 28.4675C27.8137 28.6619 27.6201 28.8564 27.4264 29.0897C27.3489 29.1675 27.2327 29.2454 27.1552 29.3231C26.9615 29.5564 26.7291 29.7898 26.4967 30.0231C26.4579 30.1008 26.3804 30.1398 26.3416 30.2176C26.0317 30.5287 25.7606 30.8398 25.4507 31.1509C25.4119 31.1899 25.3733 31.2286 25.3345 31.2676C24.7147 31.9287 24.0561 32.5899 23.3588 33.1732C22.6616 33.7954 21.9256 34.3788 21.1895 34.8844C20.4148 35.4289 19.6788 35.8955 18.8653 36.3622C18.0905 36.79 17.277 37.1789 16.4248 37.5289C15.6113 37.8789 14.7591 38.1901 13.9068 38.4623C12.2798 38.8123 10.6141 39.4734 9.18083 39.5901C8.87093 39.5901 8.52229 39.6678 8.21239 39.7068C7.86375 39.7845 7.55385 39.8624 7.24396 39.9401C6.93406 40.0568 6.62414 40.1735 6.31425 40.2901C6.00435 40.4068 5.69445 40.5624 5.38455 40.7179C5.11338 40.9124 4.80348 41.0679 4.53231 41.2624C4.26115 41.4568 3.98998 41.6902 3.75755 41.9235C3.4864 42.118 3.21523 42.3902 2.9828 42.6235C2.75037 42.8958 2.51794 43.1291 2.32426 43.4013C2.13058 43.7125 1.89815 43.9847 1.74319 44.2958C1.5495 44.5681 1.35582 44.8792 1.20086 45.1903C1.04585 45.5403 0.890965 45.8514 0.774751 46.2014C0.658537 46.5126 0.542323 46.8626 0.42611 47.2126C0.348694 47.5237 0.271097 47.8348 0.232425 48.1459C0.232425 48.1849 0.193629 48.2237 0.193629 48.2626C0.116213 48.6127 0.116213 49.0793 0.0774144 49.3127C0.0386176 49.5849 0 49.8182 0 50.0905C0 50.2461 1.68468e-07 50.4405 0.0387969 50.596C0.0775937 50.8683 0.116211 51.1016 0.193809 51.335C0.271224 51.5683 0.348821 51.8016 0.464962 52.035V52.0739C0.581176 52.3073 0.736135 52.5406 0.891075 52.774C1.04609 53.0073 1.20099 53.2407 1.39467 53.474C1.58836 53.6685 1.82079 53.9018 2.05321 54.0962C2.28564 54.3296 2.51807 54.524 2.78922 54.7185C3.71894 55.5352 3.95137 55.8074 5.15223 56.4296C5.34591 56.5463 5.53962 56.6241 5.77205 56.7408C5.81084 56.7408 5.84946 56.7797 5.88826 56.7797C5.88826 56.8575 5.88826 56.8964 5.92705 56.9742C5.96585 57.2853 6.04327 57.5964 6.12074 57.9076C6.19815 58.2576 6.31444 58.5687 6.43066 58.8409C6.54687 59.0743 6.62434 59.3076 6.74055 59.541C6.77935 59.6187 6.81797 59.6966 6.85677 59.7354C7.01178 60.0465 7.16667 60.3188 7.3216 60.591C7.51531 60.8632 7.70899 61.1355 7.90268 61.4077C8.09636 61.641 8.32879 61.9133 8.56121 62.1466C8.79364 62.38 9.02607 62.5744 9.29725 62.8077C9.29725 62.8077 9.33605 62.8467 9.37466 62.8467C9.60709 63.0412 9.83951 63.2356 10.0719 63.3912C10.3431 63.5856 10.6143 63.7412 10.9242 63.8967C11.1953 64.0524 11.5052 64.2079 11.8151 64.3245C12.0476 64.4412 12.3187 64.519 12.5899 64.5968C12.6287 64.6357 12.6673 64.6357 12.7449 64.6745C12.8999 64.7135 13.0935 64.7522 13.2485 64.7912C13.1323 66.8912 13.0935 68.8746 13.4035 69.5747C13.7521 70.3525 15.4566 67.9802 17.1611 65.2578C16.9286 67.9413 16.7737 71.0914 17.1611 72.0247C17.5872 72.997 19.9114 69.9635 21.9258 66.619C49.3908 60.241 74.4541 79.2972 77.0883 106.209C76.5847 102.009 71.4326 99.6757 69.0696 100.259C67.9075 103.137 65.9318 106.832 62.7553 109.126C63.0265 106.559 62.9104 103.915 62.368 101.348C61.5157 104.926 59.85 108.27 57.5645 111.148C53.8844 111.421 50.2043 109.632 48.2674 106.948C48.1124 106.832 48.0737 106.598 47.9575 106.443C47.8413 106.17 47.7251 105.898 47.6476 105.626C47.5314 105.354 47.4539 105.081 47.4152 104.809C47.3764 104.537 47.3764 104.265 47.3764 103.954C47.3764 103.759 47.3764 103.565 47.3764 103.37C47.4152 103.098 47.4926 102.826 47.5701 102.554C47.6475 102.281 47.7251 102.009 47.8412 101.737C47.9963 101.465 48.1124 101.192 48.3061 100.92C48.9646 99.0535 48.9646 97.5367 47.7638 96.6423C47.5313 96.4866 47.2989 96.37 47.0278 96.2534C46.8727 96.2144 46.6791 96.1367 46.5242 96.0977C46.408 96.0588 46.3305 96.02 46.2143 95.9811C45.9431 95.9033 45.6719 95.8254 45.4008 95.7866C45.1296 95.7089 44.8584 95.6699 44.5873 95.6699C44.3161 95.631 44.0062 95.5922 43.735 95.5922C43.5414 95.5922 43.3477 95.6312 43.154 95.6312C42.8441 95.6312 42.5729 95.6701 42.3018 95.7478C42.0306 95.7868 41.7594 95.8256 41.4883 95.9035C41.2171 95.9812 40.9459 96.0591 40.6748 96.1757C40.4036 96.2924 40.1712 96.4091 39.9 96.5257C39.6676 96.6424 39.4352 96.7979 39.164 96.9146C30.1381 102.826 35.5227 116.671 41.6819 120.677C39.3577 121.104 36.9947 121.61 36.3362 122.116C36.2973 122.154 36.2587 122.193 36.2587 122.193C37.9245 123.204 39.6676 124.06 41.4883 124.799C43.9675 125.616 46.6017 126.354 47.7638 126.666V126.705C50.9791 127.366 54.233 127.599 57.5257 127.405C74.6866 126.199 88.7483 113.093 91.305 95.8257C91.3825 96.1757 91.4601 96.4868 91.5375 96.8368C91.6537 97.5368 91.8086 98.2758 91.8861 99.0147V99.0536C91.9635 99.4036 92.0023 99.7537 92.0411 100.065V100.22C92.0799 100.57 92.1185 100.92 92.1185 101.232C92.1573 101.659 92.1959 102.087 92.1959 102.515V103.137C92.1959 103.332 92.2347 103.565 92.2347 103.759C92.2347 103.993 92.1959 104.226 92.1959 104.459V105.004C92.1959 105.276 92.1571 105.509 92.1571 105.782C92.1571 105.937 92.1571 106.093 92.1183 106.287C92.1183 106.56 92.0795 106.832 92.0795 107.143C92.0407 107.26 92.0407 107.376 92.0407 107.493C92.0019 107.804 91.9633 108.076 91.9245 108.387C91.9245 108.504 91.9245 108.621 91.8857 108.737C91.8469 109.126 91.7695 109.476 91.7307 109.865V109.904V109.943C91.6533 110.293 91.5757 110.682 91.4983 111.032V111.149C91.4209 111.499 91.3433 111.849 91.2658 112.199C91.2658 112.238 91.2271 112.315 91.2271 112.354C91.1496 112.704 91.072 113.054 90.9559 113.404V113.521C90.8397 113.91 90.7235 114.26 90.646 114.61C90.6072 114.649 90.6072 114.688 90.6072 114.688C90.491 115.077 90.3748 115.466 90.2586 115.854C90.1036 116.243 89.9874 116.593 89.8325 116.982C89.6774 117.371 89.5613 117.76 89.4063 118.11C89.2513 118.499 89.0964 118.849 88.9415 119.238H88.9027C88.7477 119.588 88.5927 119.977 88.399 120.327C88.3602 120.443 88.3217 120.521 88.2829 120.599C88.244 120.638 88.244 120.677 88.2054 120.716C85.6875 125.81 81.9687 130.283 77.3201 133.783C77.0103 133.977 76.7003 134.211 76.3904 134.444C76.313 134.522 76.1967 134.561 76.1193 134.638C75.8481 134.833 75.5769 135.027 75.2671 135.222L75.3833 135.455H75.4221C75.9644 135.377 76.5067 135.299 77.049 135.222H77.0878C78.095 135.066 79.1022 134.872 80.1094 134.677C80.3805 134.638 80.6905 134.561 80.9616 134.483C81.1553 134.444 81.3103 134.405 81.5039 134.366C81.7751 134.327 82.0463 134.25 82.3174 134.211C82.5499 134.133 82.7823 134.094 83.0147 134.016C86.8885 133.083 90.646 131.799 94.2486 130.283C88.0893 138.722 79.8382 145.528 70.1925 150C74.6474 149.689 79.1022 148.95 83.4021 147.705C99.0134 143.078 112.145 132.538 120.009 118.343C118.421 127.327 114.857 135.883 109.589 143.35C113.346 140.861 116.794 137.983 119.932 134.716C128.609 125.616 134.303 114.065 136.24 101.659C137.557 107.804 137.945 114.143 137.364 120.405C165.332 81.242 139.688 40.6406 128.958 29.9458C128.919 29.8681 128.88 29.8291 128.88 29.7514C128.841 29.7903 128.841 29.7903 128.841 29.8291C128.841 29.7901 128.841 29.7901 128.803 29.7514C128.803 30.218 128.764 30.6847 128.725 31.1514C128.609 32.0459 128.493 32.9014 128.338 33.757C128.144 34.6126 127.912 35.4682 127.679 36.3238C127.408 37.1405 127.098 37.9961 126.75 38.8128C126.401 39.5906 126.014 40.4073 125.587 41.1851C125.161 41.924 124.696 42.7018 124.193 43.4018C123.689 44.1407 123.147 44.8408 122.605 45.5019C122.024 46.2019 121.404 46.8242 120.784 47.4464C120.397 47.7964 120.048 48.1075 119.661 48.4186C119.351 48.6909 119.08 48.9242 118.77 49.1964C118.072 49.7409 117.375 50.2465 116.6 50.7132C115.864 51.1799 115.09 51.6465 114.315 52.0354C113.501 52.4244 112.688 52.7744 111.874 53.1244C111.061 53.4355 110.209 53.7077 109.356 53.9411C108.504 54.1744 107.613 54.3689 106.761 54.5244C105.87 54.68 104.979 54.7578 104.127 54.8356C103.507 54.8745 102.887 54.9133 102.267 54.9133C101.376 54.9133 100.485 54.8356 99.6332 54.7577C98.7422 54.6799 97.8512 54.5632 96.999 54.3687C96.108 54.2131 95.2558 53.9798 94.4036 53.7076H94.3648C95.217 53.6299 96.0692 53.552 96.9215 53.3965C97.8124 53.2409 98.6647 53.0465 99.5169 52.8131C100.369 52.5798 101.221 52.3076 102.035 51.9964C102.887 51.6853 103.701 51.2964 104.475 50.9075C105.289 50.5186 106.025 50.0908 106.8 49.6241C107.536 49.1185 108.272 48.613 108.969 48.0685C109.666 47.524 110.325 46.9407 110.945 46.3185C111.603 45.7351 112.184 45.074 112.765 44.4128C113.346 43.7128 113.889 43.0128 114.392 42.3128C114.47 42.1961 114.547 42.0405 114.625 41.9239C115.012 41.3016 115.399 40.6794 115.748 40.0571C116.174 39.2793 116.561 38.5015 116.91 37.6848C117.259 36.8681 117.569 36.0514 117.84 35.1959C118.111 34.3791 118.305 33.5236 118.498 32.668C118.653 31.7735 118.808 30.9179 118.886 30.0623C118.963 29.1679 119.041 28.2734 119.041 27.4178C119.041 26.7955 119.002 26.1733 118.963 25.5511C118.886 24.6566 118.77 23.801 118.653 22.9454C118.498 22.0509 118.305 21.1954 118.072 20.3398C117.801 19.5231 117.53 18.6675 117.22 17.8508C116.91 17.0341 116.523 16.2174 116.135 15.4396C115.709 14.6618 115.283 13.884 114.818 13.1451C114.315 12.4062 113.811 11.7062 113.269 11.0061C112.688 10.345 112.107 9.68385 111.487 9.02272C111.177 8.7116 110.828 8.36158 110.48 8.05047C108.737 6.6893 106.916 5.40592 105.095 4.23922C104.824 4.0836 104.592 3.96698 104.32 3.8503C103.042 3.03362 101.841 2.60581 100.64 2.21692L100.64 2.21674Z" fill="#EA2845"/>
</svg>
