
<?xml version="1.0" encoding="UTF-8"?> <svg xmlns="http://www.w3.org/2000/svg" width="60" height="52" viewBox="0 0 60 52" fill="none"><path d="M14 1.33398V11.4529H21.4979V46.4588H31.8628V1.33398H14Z" fill="#FFDA44"></path><path d="M44.7533 34.8084C41.28 34.8084 38.4683 37.598 38.4683 41.0986C38.4683 44.5444 41.28 47.334 44.7533 47.334C48.2818 47.334 51.0935 44.5444 51.0935 41.0986C51.0935 37.598 48.2818 34.8084 44.7533 34.8084Z" fill="#FFDA44"></path><path fill-rule="evenodd" clip-rule="evenodd" d="M11 3.33398H30.005V48.4971H18.1309V15.0221H11V3.33398ZM13.0167 5.3457V13.0104H20.1476V46.4854H27.9884V5.3457H13.0167ZM34.2705 42.3654C34.2705 38.4681 37.3903 35.3445 41.2562 35.3445C45.1688 35.3445 48.2944 38.4624 48.2944 42.3654C48.2944 46.2218 45.1631 49.334 41.2562 49.334C37.396 49.334 34.2705 46.2161 34.2705 42.3654ZM41.2562 37.3562C38.5156 37.3562 36.2872 39.5677 36.2872 42.3654C36.2872 45.1051 38.5098 47.3223 41.2562 47.3223C44.0608 47.3223 46.2777 45.0993 46.2777 42.3654C46.2777 39.5734 44.0551 37.3562 41.2562 37.3562Z" fill="#121519"></path></svg> 