
<?xml version="1.0" encoding="UTF-8"?> <svg xmlns="http://www.w3.org/2000/svg" width="53" height="54" viewBox="0 0 53 54" fill="none"><circle cx="26.5" cy="27" r="26" fill="#FFDA44"></circle><path d="M35.8391 38.5L35.8391 48.8014C35.8391 50.6996 34.3004 52.2383 32.4022 52.2383H9.43687C7.53867 52.2383 6 50.6996 6 48.8014V5.1986C6 3.3004 7.53867 1.76173 9.43687 1.76173H32.4022C34.3004 1.76173 35.8391 3.3004 35.8391 5.1986V13.222" stroke="black" stroke-width="2" stroke-miterlimit="10" stroke-linecap="round" stroke-linejoin="round"></path><path d="M35.8392 46.0084H6.00018V7.1953H35.8392" stroke="black" stroke-width="2" stroke-miterlimit="10" stroke-linecap="round" stroke-linejoin="round"></path><path d="M25.0187 46.0084V47.5257C25.0187 48.4083 24.3027 49.1233 23.4211 49.1233H18.4181C17.5366 49.1233 16.8206 48.4083 16.8206 47.5257V46.0084H25.0187Z" stroke="black" stroke-width="2" stroke-miterlimit="10" stroke-linecap="round" stroke-linejoin="round"></path><path d="M19.082 4.39746H22.0627" stroke="black" stroke-width="2" stroke-miterlimit="10" stroke-linecap="round" stroke-linejoin="round"></path><path d="M25 25.5008C25 33.4221 32.4562 37 36.4976 37C42.8486 37 47.9984 31.8518 47.9984 25.5008C47.9984 19.1482 42.8486 14 36.4976 14C30.2521 14 25.1669 18.9798 25 25.1859" stroke="black" stroke-width="2" stroke-miterlimit="10" stroke-linecap="round" stroke-linejoin="round"></path><path d="M38.9393 20.437C38.9393 20.437 37.6395 19.2382 35.6359 19.8416C33.7961 20.3958 33.3392 22.9132 34.5894 23.8937C35.3072 24.4567 36.3874 24.9196 37.8432 25.4342C41.1012 26.5859 39.8968 31.1807 36.5826 31.2027C35.2892 31.2114 34.6847 31.1294 33.5485 30.386" stroke="black" stroke-width="2" stroke-miterlimit="10" stroke-linecap="round" stroke-linejoin="round"></path><path d="M36.5826 31.2028V32.8799" stroke="black" stroke-width="2" stroke-miterlimit="10" stroke-linecap="round" stroke-linejoin="round"></path><path d="M36.5826 18.1207V19.6718" stroke="black" stroke-width="2" stroke-miterlimit="10" stroke-linecap="round" stroke-linejoin="round"></path></svg> 