
<?xml version="1.0" encoding="UTF-8"?> <svg xmlns="http://www.w3.org/2000/svg" width="53" height="52" viewBox="0 0 53 52" fill="none"><circle cx="26.5" cy="26" r="26" fill="#FFDA44"></circle><g clip-path="url(#clip0_5008_31694)"><path d="M38.7491 14.0614C39.4174 14.8586 40.1598 15.1857 40.8281 15.1917C41.9575 15.2019 42.8766 14.2878 42.8766 13.1605C42.8766 12.0392 41.9666 11.1292 40.8454 11.1292C39.7231 11.1292 38.8141 10.2203 38.8141 9.098C38.8141 7.98284 39.714 7.07589 40.8281 7.06675C41.4101 7.06269 42.0499 7.30237 42.6502 7.88331" stroke="black" stroke-width="2.04425" stroke-miterlimit="10" stroke-linecap="round" stroke-linejoin="round"></path><path d="M40.8281 5.07812V7.06671" stroke="black" stroke-width="2.04425" stroke-miterlimit="10" stroke-linecap="round" stroke-linejoin="round"></path><path d="M40.8281 15.1917V17.2656" stroke="black" stroke-width="2.04425" stroke-miterlimit="10" stroke-linecap="round" stroke-linejoin="round"></path><path d="M50.9845 11.1719C50.9845 16.7812 46.4375 21.3281 40.8282 21.3281C35.2189 21.3281 30.672 16.7812 30.672 11.1719C30.672 5.56258 35.2189 1.01563 40.8282 1.01563C46.4375 1.01563 50.9845 5.56258 50.9845 11.1719Z" stroke="black" stroke-width="2.04425" stroke-miterlimit="10" stroke-linecap="round" stroke-linejoin="round"></path><path d="M25.3906 19.9063C25.3906 23.272 22.6627 26 19.2969 26C15.9311 26 13.2031 23.272 13.2031 19.9063C13.2031 16.5405 15.9311 13.8125 19.2969 13.8125C22.6627 13.8125 25.3906 16.5405 25.3906 19.9063Z" stroke="black" stroke-width="2.04425" stroke-miterlimit="10" stroke-linecap="round" stroke-linejoin="round"></path><path d="M40.8281 21.3281L41 50" stroke="black" stroke-width="2.04425" stroke-miterlimit="10" stroke-linecap="round" stroke-linejoin="round"></path><path d="M40.8281 38.1875V36.1563C40.8281 30.547 45.3751 26 50.9844 26V28.0313C50.9844 33.6405 46.4374 38.1875 40.8281 38.1875Z" stroke="black" stroke-width="2.04425" stroke-miterlimit="10" stroke-linecap="round" stroke-linejoin="round"></path><path d="M40.8282 46.3125C35.2189 46.3125 30.672 41.7655 30.672 36.1563V34.125C36.2813 34.125 40.8282 38.672 40.8282 44.2813V46.3125Z" stroke="black" stroke-width="2.04425" stroke-miterlimit="10" stroke-linecap="round" stroke-linejoin="round"></path><path d="M5.0391 30.0624V51.0001" stroke="black" stroke-width="2.04425" stroke-miterlimit="10" stroke-linecap="round" stroke-linejoin="round"></path><path d="M19.1484 25.9991V51.0009" stroke="black" stroke-width="2.04425" stroke-miterlimit="10" stroke-linecap="round" stroke-linejoin="round"></path><path d="M18.0937 47.125C14.728 47.125 12 44.397 12 41.0313V39C15.3658 39 18.0937 41.728 18.0937 45.0938V47.125Z" stroke="black" stroke-width="2.04425" stroke-miterlimit="10" stroke-linecap="round" stroke-linejoin="round"></path><path d="M19.2969 40.2188C22.6627 40.2188 25.3906 37.4908 25.3906 34.125V32.0938C22.0249 32.0938 19.2969 34.8217 19.2969 38.1875V40.2188Z" stroke="black" stroke-width="2.04425" stroke-miterlimit="10" stroke-linecap="round" stroke-linejoin="round"></path><path d="M5.07815 46.3125C2.83464 46.3125 1.01565 44.4935 1.01565 42.25V40.2188C3.25917 40.2188 5.07815 42.0377 5.07815 44.2813V46.3125Z" stroke="black" stroke-width="2.04425" stroke-miterlimit="10" stroke-linecap="round" stroke-linejoin="round"></path><path d="M5.07819 40.2188V38.1875C5.07819 35.944 6.89718 34.125 9.14069 34.125V36.1563C9.14069 38.3998 7.32171 40.2188 5.07819 40.2188Z" stroke="black" stroke-width="2.04425" stroke-miterlimit="10" stroke-linecap="round" stroke-linejoin="round"></path><path d="M31.0781 50.9844C31.0781 51.5453 30.6234 52 30.0625 52C29.5017 52 29.0469 51.5453 29.0469 50.9844C29.0469 50.4234 29.5017 49.9688 30.0625 49.9688C30.6234 49.9688 31.0781 50.4234 31.0781 50.9844Z" fill="black"></path><path d="M1.01565 50.9844H25.4921" stroke="black" stroke-width="2.04425" stroke-miterlimit="10" stroke-linecap="round" stroke-linejoin="round"></path><path d="M34.6329 50.9844H50.9844" stroke="black" stroke-width="2.04425" stroke-miterlimit="10" stroke-linecap="round" stroke-linejoin="round"></path></g><defs><clipPath id="clip0_5008_31694"><rect width="52" height="52" fill="white"></rect></clipPath></defs></svg> 