
<?xml version="1.0" encoding="UTF-8"?> <svg xmlns="http://www.w3.org/2000/svg" width="132" height="132" viewBox="0 0 132 132" fill="none"><g clip-path="url(#clip0_5008_32708)"><path d="M99.6875 43.1905C97.2812 41.8208 94.1875 41.8208 91.4375 43.1905L72.1875 54.4907L59.125 61.6818L40.2187 72.982C37.8125 74.3517 34.7188 74.3517 31.9687 72.982L17.1875 64.0788C14.7812 62.7091 13.0625 59.9696 13.0625 56.8878V39.7662C13.0625 37.0268 14.4375 34.2873 17.1875 32.5752L31.9687 24.0144C34.375 22.6447 37.4687 22.6447 40.2187 24.0144L55 32.9176C57.4062 34.2873 59.125 37.0268 59.125 40.1087V51.4089L72.1875 43.8754V32.2327C72.1875 29.4933 70.8125 26.7539 68.0625 25.0417L40.5625 8.94746C38.1562 7.57774 35.0625 7.57774 32.3125 8.94746L4.125 25.3841C1.375 26.7539 0 29.4933 0 32.2327V64.4212C0 67.1607 1.375 69.9001 4.125 71.6123L31.9687 87.7065C34.375 89.0762 37.4687 89.0762 40.2187 87.7065L59.125 76.7487L72.1875 69.2153L91.0937 58.2575C93.5 56.8878 96.5937 56.8878 99.3437 58.2575L114.125 66.8183C116.531 68.188 118.25 70.9274 118.25 74.0093V91.1308C118.25 93.8703 116.875 96.6097 114.125 98.3219L99.6875 106.883C97.2812 108.252 94.1875 108.252 91.4375 106.883L76.6562 98.3219C74.25 96.9521 72.5312 94.2127 72.5312 91.1308V80.173L59.4687 87.7065V99.0067C59.4687 101.746 60.8437 104.486 63.5937 106.198L91.4375 122.292C93.8437 123.662 96.9375 123.662 99.6875 122.292L127.531 106.198C129.937 104.828 131.656 102.089 131.656 99.0067V66.4758C131.656 63.7364 130.281 60.9969 127.531 59.2848L99.6875 43.1905Z" fill="#8247E5"></path><g style="mix-blend-mode:hue"><rect x="-0.660004" width="132" height="132" fill="white"></rect></g></g><defs><clipPath id="clip0_5008_32708"><rect width="132" height="132" fill="white"></rect></clipPath></defs></svg> 