<?xml version="1.0" standalone="no" ?>
<!DOCTYPE svg PUBLIC "-//W3C//DTD SVG 20010904//EN"
  "http://www.w3.org/TR/2001/REC-SVG-20010904/DTD/svg10.dtd">
<svg
  version="1.0"
  xmlns="http://www.w3.org/2000/svg"
  width="60px"
  height="60px"
  viewBox="0 0 512.000000 512.000000"
  preserveAspectRatio="xMidYMid meet"
>

<g
    transform="translate(0.000000,512.000000) scale(0.100000,-0.100000)"
    fill="#000000"
    stroke="none"
  >
<path
      d="M431 5024 c-80 -21 -149 -62 -211 -124 -182 -182 -188 -459 -14 -657
l43 -50 -53 -81 c-29 -45 -66 -118 -82 -164 l-29 -83 -3 -1602 c-3 -1792 -7
-1678 69 -1833 82 -165 252 -297 434 -335 60 -13 373 -15 2238 -15 l2168 0 24
25 25 24 0 1831 0 1831 -25 24 c-23 24 -31 25 -135 25 -101 0 -111 2 -106 18
3 9 10 46 16 82 33 211 -16 451 -132 641 -68 111 -206 249 -317 317 -255 156
-574 184 -850 76 -231 -92 -436 -290 -532 -515 -79 -186 -99 -410 -52 -596 l5
-23 -478 0 -478 0 -561 558 c-413 411 -573 565 -611 585 -106 55 -241 71 -353
41z m261 -177 c33 -17 86 -60 143 -117 l90 -90 -223 -222 -222 -223 -90 90
c-103 102 -139 164 -147 253 -22 241 232 416 449 309z m3373 3 c221 -70 393
-215 490 -415 64 -132 79 -196 79 -350 1 -185 -35 -306 -132 -448 -126 -186
-143 -213 -176 -292 -40 -96 -72 -221 -82 -317 l-6 -68 -79 0 -79 0 0 240 0
240 56 0 c87 0 133 18 189 75 71 70 91 145 63 239 -16 55 -99 138 -154 154
-94 28 -169 8 -239 -63 -57 -56 -75 -102 -75 -189 l0 -56 -80 0 -80 0 0 56 c0
87 -18 133 -75 189 -101 102 -229 102 -330 0 -102 -101 -102 -229 0 -330 56
-57 102 -75 189 -75 l56 0 0 -240 0 -240 -79 0 -78 0 -7 63 c-25 223 -81 356
-252 606 -103 149 -139 268 -138 456 0 154 15 218 79 350 108 223 316 382 566
435 79 16 295 5 374 -20z m-2960 -390 l60 -60 -223 -223 -222 -222 -62 63 -63
62 220 220 c121 121 222 220 225 220 3 0 32 -27 65 -60z m600 -600 l420 -420
-76 0 c-93 0 -119 -16 -128 -79 l-6 -41 -400 400 -400 400 80 80 c44 44 82 80
85 80 3 0 194 -189 425 -420z m-918 -202 l413 -413 0 -1048 0 -1049 -57 52
c-71 63 -195 126 -288 145 -194 41 -391 -10 -547 -140 l-68 -55 0 1323 c0
1425 -2 1367 51 1486 21 47 65 111 77 111 4 0 193 -186 419 -412z m618 -58
c393 -393 399 -400 364 -400 -21 0 -47 -8 -60 -19 -21 -17 -25 -30 -29 -100
l-5 -81 -420 420 -420 420 80 80 c44 44 82 80 85 80 3 0 185 -180 405 -400z
m2170 135 c21 -20 25 -34 25 -80 l0 -55 -55 0 c-67 0 -105 29 -105 80 0 19 9
40 25 55 15 16 36 25 55 25 19 0 40 -9 55 -25z m640 0 c16 -15 25 -36 25 -55
0 -51 -38 -80 -105 -80 l-55 0 0 55 c0 67 29 105 80 105 19 0 40 -9 55 -25z
m-1216 -112 c16 -32 57 -96 91 -143 77 -106 132 -219 161 -330 18 -69 23 -125
28 -290 7 -233 13 -253 87 -319 39 -34 99 -61 137 -61 10 0 17 -15 22 -47 15
-103 72 -183 167 -234 58 -31 70 -34 148 -33 72 0 93 4 136 26 28 15 65 38 81
52 39 33 90 129 98 189 5 32 12 47 22 47 38 0 98 27 137 61 74 66 80 85 87
324 5 165 11 227 27 287 30 110 82 216 160 327 38 53 82 120 98 148 l29 53 83
0 82 0 0 -1720 0 -1720 -2108 0 c-1836 0 -2115 2 -2165 15 -173 45 -307 178
-352 350 -88 338 242 668 580 580 206 -54 365 -251 365 -453 0 -54 33 -92 80
-92 19 0 40 9 55 25 l25 24 0 1198 0 1198 178 -178 177 -177 415 -125 c228
-69 425 -125 438 -125 30 0 72 42 72 72 0 13 -56 210 -125 437 l-124 415 -138
138 -138 138 427 0 428 0 29 -57z m921 -423 l0 -240 -80 0 -80 0 0 240 0 240
80 0 80 0 0 -240z m-1630 -22 l32 -101 -140 -139 -139 -140 -101 32 -102 31 0
89 0 90 95 0 c88 0 98 2 120 25 23 22 25 32 25 120 l0 95 90 0 89 0 31 -102z
m147 -495 c-2 -1 -51 13 -109 31 l-107 32 76 77 77 76 32 -107 c18 -58 32
-107 31 -109z m1803 62 c0 -46 -4 -60 -25 -80 l-24 -25 -351 0 -351 0 -24 25
c-21 20 -25 34 -25 80 l0 55 400 0 400 0 0 -55z m-244 -297 c-7 -39 -31 -74
-70 -102 -20 -16 -42 -21 -86 -21 -44 0 -66 5 -86 21 -39 28 -63 63 -70 102
l-6 32 162 0 163 0 -7 -32z"
    />
<path
      d="M3840 4642 l0 -78 71 -11 c206 -32 370 -197 402 -403 l11 -70 79 0
80 0 -7 65 c-22 211 -157 408 -346 503 -82 41 -191 71 -257 72 l-33 0 0 -78z"
    />
<path
      d="M2265 2295 c-22 -21 -25 -33 -25 -98 l0 -74 -67 -26 -67 -27 -51 50
c-41 41 -57 50 -85 50 -32 0 -48 -13 -168 -133 -161 -162 -164 -169 -84 -250
l52 -53 -27 -67 -26 -67 -74 0 c-65 0 -77 -3 -98 -25 -25 -24 -25 -26 -25
-215 0 -189 0 -191 25 -215 21 -22 33 -25 98 -25 l74 0 26 -67 27 -67 -52 -53
c-80 -81 -77 -88 85 -250 162 -162 169 -165 250 -85 l53 52 67 -27 67 -26 0
-74 c0 -65 3 -77 25 -98 24 -25 26 -25 215 -25 189 0 191 0 215 25 22 21 25
33 25 98 l0 74 67 26 67 27 51 -50 c41 -41 57 -50 85 -50 32 0 48 13 168 133
161 162 164 169 84 250 l-52 53 27 67 26 67 74 0 c65 0 77 3 98 25 25 24 25
26 25 215 0 189 0 191 -25 215 -21 22 -33 25 -98 25 l-74 0 -26 67 -27 67 52
53 c80 81 77 88 -85 250 -162 162 -169 165 -250 85 l-53 -52 -67 27 -67 26 0
74 c0 65 -3 77 -25 98 -24 25 -26 25 -215 25 -189 0 -191 0 -215 -25z m295
-198 c0 -80 15 -97 107 -127 37 -12 92 -35 120 -51 73 -40 94 -38 154 18 l50
47 56 -57 57 -56 -47 -50 c-56 -60 -58 -81 -18 -154 16 -28 39 -83 51 -120 30
-92 47 -107 127 -107 l63 0 0 -80 0 -80 -63 0 c-80 0 -97 -15 -127 -107 -12
-37 -35 -92 -51 -120 -40 -73 -38 -94 18 -154 l47 -50 -57 -56 -56 -57 -50 47
c-60 56 -81 58 -154 18 -28 -16 -81 -39 -117 -50 -36 -12 -70 -25 -76 -29 -22
-14 -34 -52 -34 -106 l0 -56 -80 0 -80 0 0 63 c0 80 -15 97 -107 127 -37 12
-92 35 -120 51 -73 40 -94 38 -154 -18 l-50 -47 -56 57 -57 56 47 50 c56 60
58 81 18 154 -16 28 -39 83 -51 120 -30 92 -47 107 -127 107 l-63 0 0 80 0 80
63 0 c80 0 97 15 127 107 12 37 35 92 51 120 40 73 38 94 -18 154 l-47 50 57
56 56 57 50 -47 c60 -56 81 -58 154 -18 28 16 83 39 120 51 92 30 107 47 107
127 l0 63 80 0 80 0 0 -63z"
    />
<path
      d="M2361 1824 c-253 -68 -410 -331 -346 -579 67 -256 329 -415 580 -350
237 62 393 291 358 529 -40 283 -322 473 -592 400z m254 -175 c63 -30 123 -90
155 -154 20 -41 25 -65 25 -135 -1 -77 -4 -91 -34 -148 -38 -70 -70 -101 -145
-140 -43 -22 -64 -26 -136 -26 -70 -1 -94 4 -135 24 -260 128 -238 495 35 594
63 23 170 16 235 -15z"
    />
<path
      d="M3760 1917 c0 -146 42 -258 130 -346 82 -82 165 -117 307 -131 161
-15 271 -86 330 -214 24 -52 28 -74 28 -146 0 -72 -4 -94 -28 -146 -36 -77
-104 -145 -182 -181 l-60 -28 -462 -3 -463 -3 0 -79 0 -80 448 0 c494 0 523 3
636 63 34 17 88 59 121 92 205 205 205 525 0 730 -95 95 -231 154 -356 155
-83 0 -147 26 -205 84 -63 64 -84 123 -84 238 l0 78 -80 0 -80 0 0 -83z"
    />
</g>
</svg>
