
<?xml version="1.0" encoding="UTF-8"?> <svg xmlns="http://www.w3.org/2000/svg" width="133" height="132" viewBox="0 0 133 132" fill="none"><path fill-rule="evenodd" clip-rule="evenodd" d="M1 66C1 29.5473 30.5473 0 67 0C103.453 0 133 29.5473 133 66C133 102.453 103.453 132 67 132C30.5473 132 1 102.453 1 66ZM98.0656 79.4743C98.0487 76.0362 100.85 73.2389 104.323 73.2168H104.34C107.812 73.2445 110.608 76.0527 110.58 79.4856C110.591 82.9129 107.796 85.7098 104.323 85.7319C100.85 85.7154 98.0487 82.9181 98.0656 79.4856V79.4743ZM102.562 66.0484C105.552 64.322 106.584 60.494 104.857 57.5046C103.13 54.5151 99.301 53.4835 96.311 55.2103C93.3314 56.9254 92.2998 60.7256 93.9938 63.7151L94.0323 63.7706C95.7591 66.7544 99.5716 67.7747 102.556 66.0484C102.556 66.0512 102.558 66.0526 102.559 66.0526C102.561 66.0526 102.562 66.0512 102.562 66.0484ZM29.3504 57.5172C31.0838 54.5268 34.915 53.5117 37.907 55.2441C40.8881 56.9709 41.9038 60.7891 40.1814 63.7738V63.7959C38.448 66.7859 34.6169 67.801 31.6248 66.0686C28.6327 64.3366 27.617 60.5077 29.3504 57.5172ZM48.1606 53.5168C51.6208 53.5112 54.4229 50.7026 54.4173 47.248C54.4173 46.1665 54.1354 45.107 53.5994 44.1689C51.9027 41.1725 48.0888 40.1131 45.0823 41.8126C45.0809 41.8126 45.0798 41.813 45.0789 41.8135L45.0779 41.8142L45.0767 41.8154C45.0754 41.8168 45.074 41.8182 45.0712 41.8182L44.9662 41.8789C41.9927 43.6447 41.0145 47.4852 42.7831 50.4541C43.9106 52.3467 45.95 53.5112 48.1606 53.5168ZM60.6884 42.1559C60.6884 38.7015 63.4919 35.8983 66.946 35.8983C70.4005 35.8983 73.2035 38.7015 73.2035 42.1559C73.2035 45.6102 70.4005 48.4135 66.946 48.4135C63.4919 48.4135 60.6884 45.6102 60.6884 42.1559ZM46.9832 73.2215C43.5289 73.2215 40.7257 76.0245 40.7257 79.479C40.7257 82.9331 43.5289 85.7366 46.9832 85.7366C50.4375 85.7366 53.241 82.9331 53.241 79.479C53.241 76.0245 50.4375 73.2215 46.9832 73.2215ZM71.1503 62.4008C71.1503 58.9462 73.9537 56.1432 77.4078 56.1432C80.8624 56.1432 83.6654 58.9462 83.6654 62.4008C83.6654 65.8548 80.8624 68.6583 77.4078 68.6583C73.9537 68.6583 71.1503 65.8548 71.1503 62.4008ZM82.6371 52.9057L82.7179 52.9508C85.9418 54.5531 89.8755 53.2848 91.5078 50.1205C93.0129 47.2001 92.0382 43.6338 89.2408 41.845C86.0282 40.2204 82.0832 41.4544 80.4278 44.6074C78.8936 47.5224 79.8453 51.1 82.6371 52.9057ZM23.4195 79.3607C23.4915 75.907 26.3463 73.1614 29.7988 73.2168C33.1959 73.2835 35.9236 76.0564 35.9346 79.4546C35.9457 82.9138 33.1517 85.7201 29.6937 85.7314C26.2357 85.7422 23.4306 82.9472 23.4195 79.488V79.3607ZM86.6957 73.2027C83.2412 73.2027 80.4382 76.0062 80.4382 79.4602C80.4382 82.9148 83.2412 85.7178 86.6957 85.7178C90.1498 85.7178 92.9533 82.9148 92.9533 79.4602C92.9533 76.0062 90.1498 73.2027 86.6957 73.2027ZM61.9774 58.9392C63.8837 61.8164 63.1015 65.697 60.2253 67.6042C60.0045 67.7531 59.7733 67.8907 59.531 68.0068C56.4395 69.5391 52.6872 68.2769 51.1553 65.1845C49.6239 62.0921 50.8857 58.3384 53.9766 56.8056L54.0151 56.7835C56.8308 55.4001 60.2417 56.3208 61.9774 58.9392Z" fill="#2C56DD"></path><g style="mix-blend-mode:hue"><rect x="0.339996" width="132" height="132" fill="white"></rect></g></svg> 