
<?xml version="1.0" encoding="UTF-8"?> <svg xmlns="http://www.w3.org/2000/svg" width="101" height="100" viewBox="0 0 101 100" fill="none"><g clip-path="url(#clip0_4461_18132)"><path d="M100.119 50.1059C100.119 43.5458 91.9034 37.3289 79.308 33.4735C82.2146 20.636 80.9228 10.4224 75.2307 7.15249C73.9186 6.38546 72.3846 6.02214 70.7093 6.02214V10.5234C71.6378 10.5234 72.3846 10.705 73.0103 11.0482C75.7555 12.6226 76.9464 18.6175 76.0179 26.3281C75.7958 28.2255 75.4325 30.2238 74.9884 32.2625C71.0322 31.2936 66.7127 30.5467 62.1711 30.0623C59.4461 26.3281 56.6202 22.937 53.7742 19.9699C60.3544 13.8539 66.531 10.5032 70.7294 10.5032V6.00195C65.1786 6.00195 57.9121 9.95819 50.5648 16.821C43.2175 9.99856 35.9509 6.08269 30.4001 6.08269V10.5839C34.5784 10.5839 40.7751 13.9144 47.3554 19.9901C44.5295 22.9572 41.7036 26.3281 39.019 30.0623C34.4573 30.5467 30.1377 31.2936 26.1815 32.2826C25.7172 30.2642 25.3741 28.3062 25.1318 26.429C24.1832 18.7184 25.3539 12.7235 28.0788 11.1289C28.6844 10.7656 29.4716 10.6041 30.4001 10.6041V6.10288C28.7046 6.10288 27.1705 6.4662 25.8383 7.23323C20.1664 10.5032 18.8947 20.6965 21.8215 33.4937C9.26654 37.3692 1.09167 43.566 1.09167 50.1059C1.09167 56.6659 9.30691 62.8829 21.9023 66.7382C18.9956 79.5758 20.2875 89.7893 25.9796 93.0592C27.2916 93.8263 28.8257 94.1896 30.5212 94.1896C36.072 94.1896 43.3386 90.2334 50.6859 83.3705C58.0332 90.193 65.2997 94.1089 70.8505 94.1089C72.5461 94.1089 74.0801 93.7455 75.4123 92.9785C81.0843 89.7086 82.3559 79.5152 79.4291 66.718C91.9437 62.8627 100.119 56.6458 100.119 50.1059ZM73.8379 36.6426C73.0911 39.2464 72.1626 41.931 71.113 44.6156C70.2854 43.0008 69.4174 41.386 68.4687 39.7712C67.5402 38.1564 66.5512 36.582 65.5621 35.048C68.4284 35.4718 71.1937 35.9967 73.8379 36.6426ZM64.5932 58.1394C63.0188 60.8644 61.404 63.4481 59.7287 65.8501C56.7212 66.1125 53.6732 66.2538 50.6051 66.2538C47.5572 66.2538 44.5093 66.1125 41.522 65.8702C39.8466 63.4682 38.2116 60.9048 36.6372 58.2C35.1032 55.5558 33.7104 52.8712 32.4388 50.1664C33.6902 47.4617 35.1032 44.7569 36.617 42.1127C38.1915 39.3877 39.8062 36.804 41.4816 34.402C44.4891 34.1396 47.537 33.9984 50.6051 33.9984C53.6531 33.9984 56.701 34.1396 59.6883 34.3819C61.3637 36.7839 62.9986 39.3473 64.5731 42.0521C66.1071 44.6963 67.4999 47.3809 68.7715 50.0857C67.4999 52.7905 66.1071 55.4952 64.5932 58.1394ZM71.113 55.5154C72.2029 58.2202 73.1314 60.925 73.8985 63.549C71.2543 64.1949 68.4687 64.7399 65.5823 65.1638C66.5714 63.6095 67.5604 62.0149 68.4889 60.38C69.4174 58.7652 70.2854 57.1302 71.113 55.5154ZM50.6455 77.0527C48.7683 75.1149 46.8911 72.9551 45.0341 70.5935C46.8508 70.6742 48.7078 70.7348 50.585 70.7348C52.4823 70.7348 54.3595 70.6944 56.1963 70.5935C54.3797 72.9551 52.5025 75.1149 50.6455 77.0527ZM35.628 65.1638C32.7617 64.7399 29.9964 64.2151 27.3522 63.5692C28.099 60.9653 29.0275 58.2807 30.0771 55.5962C30.9047 57.2109 31.7727 58.8257 32.7214 60.4405C33.67 62.0553 34.6389 63.6297 35.628 65.1638ZM50.5446 23.1591C52.4218 25.0968 54.299 27.2566 56.156 29.6182C54.3393 29.5375 52.4823 29.4769 50.6051 29.4769C48.7078 29.4769 46.8306 29.5173 44.9938 29.6182C46.8104 27.2566 48.6876 25.0968 50.5446 23.1591ZM35.6078 35.048C34.6187 36.6022 33.6297 38.1968 32.7012 39.8318C31.7727 41.4466 30.9047 43.0614 30.0771 44.6761C28.9872 41.9714 28.0586 39.2666 27.2916 36.6426C29.9358 36.0168 32.7214 35.4718 35.6078 35.048ZM17.3405 60.3194C10.1951 57.2715 5.57271 53.2749 5.57271 50.1059C5.57271 46.9368 10.1951 42.9201 17.3405 39.8923C19.0764 39.1455 20.9738 38.4794 22.9317 37.8537C24.0822 41.8099 25.5961 45.9276 27.4733 50.1462C25.6163 54.3447 24.1226 58.4422 22.9923 62.3783C20.994 61.7525 19.0966 61.0662 17.3405 60.3194ZM28.1999 89.1636C25.4548 87.5891 24.2639 81.5942 25.1924 73.8836C25.4144 71.9863 25.7778 69.988 26.2218 67.9493C30.1781 68.9182 34.4976 69.665 39.0392 70.1494C41.7642 73.8836 44.59 77.2747 47.4361 80.2419C40.8559 86.3579 34.6793 89.7086 30.4808 89.7086C29.5725 89.6884 28.8055 89.5067 28.1999 89.1636ZM76.0784 73.7827C77.0271 81.4933 75.8564 87.4882 73.1314 89.0828C72.5259 89.4462 71.7387 89.6076 70.8102 89.6076C66.6319 89.6076 60.4352 86.2771 53.8549 80.2015C56.6808 77.2343 59.5067 73.8634 62.1913 70.1292C66.753 69.6448 71.0726 68.898 75.0288 67.9089C75.4931 69.9476 75.8564 71.9055 76.0784 73.7827ZM83.8496 60.3194C82.1137 61.0662 80.2163 61.7323 78.2584 62.3581C77.1079 58.4018 75.594 54.2841 73.7168 50.0655C75.5738 45.867 77.0675 41.7695 78.1978 37.8335C80.1961 38.4592 82.0935 39.1455 83.8698 39.8923C91.0152 42.9402 95.6376 46.9368 95.6376 50.1059C95.6174 53.2749 90.995 57.2917 83.8496 60.3194Z" fill="#61DAFB"></path><path d="M50.585 59.3318C55.6795 59.3318 59.8094 55.2018 59.8094 50.1073C59.8094 45.0128 55.6795 40.8828 50.585 40.8828C45.4904 40.8828 41.3605 45.0128 41.3605 50.1073C41.3605 55.2018 45.4904 59.3318 50.585 59.3318Z" fill="#61DAFB"></path></g><g style="mix-blend-mode:hue"><rect x="0.5" width="100" height="100" fill="white"></rect></g><defs><clipPath id="clip0_4461_18132"><rect width="99.0269" height="88.1945" fill="white" transform="translate(1.09167 6)"></rect></clipPath></defs></svg> 