
<?xml version="1.0" encoding="UTF-8"?> <svg xmlns="http://www.w3.org/2000/svg" width="53" height="52" viewBox="0 0 53 52" fill="none"><circle cx="26.5" cy="26" r="26" fill="#FFDA44"></circle><path d="M9.30273 31.4668H13.4885" stroke="#121519" stroke-width="1.50905" stroke-miterlimit="10" stroke-linecap="round" stroke-linejoin="round"></path><path d="M9.30286 34.8398H19.5508" stroke="#121519" stroke-width="1.50905" stroke-miterlimit="10" stroke-linecap="round" stroke-linejoin="round"></path><path d="M9.30273 37.582H19.5507" stroke="#121519" stroke-width="1.50905" stroke-miterlimit="10" stroke-linecap="round" stroke-linejoin="round"></path><path d="M37.3099 47.1602H4.51811C2.85131 47.1602 1.5 45.8088 1.5 44.142V42.9348C1.5 42.4903 1.86036 42.13 2.30483 42.13H50.6952C51.1397 42.13 51.5 42.4903 51.5 42.9348V44.142C51.5 45.8088 50.1488 47.1602 48.4819 47.1602H40.7911" stroke="#121519" stroke-width="1.50905" stroke-miterlimit="10" stroke-linecap="round" stroke-linejoin="round"></path><path d="M4.56689 21.5V14.3626C4.56689 13.0296 5.64838 11.9481 6.98138 11.9481H17.9737" stroke="#121519" stroke-width="1.50905" stroke-miterlimit="10" stroke-linecap="round" stroke-linejoin="round"></path><path d="M40.5 11.9498H46.0171C47.35 11.9498 48.4315 13.0313 48.4315 14.3643V39.7164C48.4315 41.0494 47.35 42.1309 46.0171 42.1309H6.98285C5.64985 42.1309 4.56836 41.0494 4.56836 39.7164V20.7786" stroke="#121519" stroke-width="1.50905" stroke-miterlimit="10" stroke-linecap="round" stroke-linejoin="round"></path><path d="M33.417 11.9492H40.754" stroke="#121519" stroke-width="1.50905" stroke-miterlimit="10" stroke-linecap="round" stroke-linejoin="round"></path><path d="M30.6572 44.6445H22.3406C21.748 44.6445 21.2676 44.1641 21.2676 43.5714V42.1294H31.7304V43.5714C31.7304 44.1641 31.2499 44.6445 30.6572 44.6445Z" stroke="#121519" stroke-width="1.50905" stroke-miterlimit="10" stroke-linecap="round" stroke-linejoin="round"></path><path d="M18.1992 12.5703V7.01921H24.2354V9.31357" stroke="#121519" stroke-width="1.50905" stroke-miterlimit="10" stroke-linecap="round" stroke-linejoin="round"></path><path d="M35.5547 16.8482V28.2969H17.446V16.8482" stroke="#121519" stroke-width="1.50905" stroke-miterlimit="10" stroke-linecap="round" stroke-linejoin="round"></path><path d="M30.8372 28.2971H22.1853V18.6392C22.1853 18.4169 22.3655 18.2368 22.5877 18.2368H30.4348C30.6571 18.2368 30.8372 18.4169 30.8372 18.6392V28.2971Z" stroke="#121519" stroke-width="1.50905" stroke-miterlimit="10" stroke-linecap="round" stroke-linejoin="round"></path><path d="M37.8119 14.663L27.2487 8.62694C26.7848 8.36175 26.2153 8.36175 25.7514 8.62694L15.1882 14.663C14.4646 15.0763 14.2132 15.9982 14.6268 16.7217C15.0402 17.4455 15.9621 17.6969 16.6855 17.2833L26.5001 11.6751L36.3146 17.2833C36.5507 17.4183 36.8079 17.4824 37.0619 17.4823C37.5856 17.4823 38.0949 17.2092 38.3734 16.7217C38.7869 15.9982 38.5355 15.0763 37.8119 14.663Z" stroke="#121519" stroke-width="1.50905" stroke-miterlimit="10" stroke-linecap="round" stroke-linejoin="round"></path><path d="M24.8408 7.01953H17.5974C17.3751 7.01953 17.1949 6.83935 17.1949 6.61712V4.40384C17.1949 4.1816 17.3751 4.00142 17.5974 4.00142H24.8408C25.0631 4.00142 25.2432 4.1816 25.2432 4.40384V6.61712C25.2432 6.83935 25.0631 7.01953 24.8408 7.01953Z" stroke="#121519" stroke-width="1.50905" stroke-miterlimit="10" stroke-linecap="round" stroke-linejoin="round"></path><path d="M13.4709 28.2969H39.5273" stroke="#121519" stroke-width="1.50905" stroke-miterlimit="10" stroke-linecap="round" stroke-linejoin="round"></path><path d="M41.3383 37.6035H28.1592C26.6035 37.6035 25.3423 36.3423 25.3423 34.7866C25.3423 33.2309 26.6035 31.9697 28.1592 31.9697H41.3383C42.894 31.9697 44.1552 33.2309 44.1552 34.7866C44.1552 36.3423 42.894 37.6035 41.3383 37.6035Z" stroke="#121519" stroke-width="1.50905" stroke-miterlimit="10" stroke-linecap="round" stroke-linejoin="round"></path></svg> 