
<?xml version="1.0" encoding="UTF-8"?> <svg xmlns="http://www.w3.org/2000/svg" width="53" height="52" viewBox="0 0 53 52" fill="none"><circle cx="26.5" cy="26" r="26" fill="#FFDA44"></circle><path d="M26.5 48.4453V31.9922" stroke="#121519" stroke-width="2" stroke-miterlimit="10" stroke-linecap="round" stroke-linejoin="round"></path><path d="M36.6562 50.4766L26.5 37.2734L16.3438 50.4766" stroke="#121519" stroke-width="2" stroke-miterlimit="10" stroke-linecap="round" stroke-linejoin="round"></path><path d="M47.9297 7.61719H5.07031C3.38762 7.61719 2.02344 6.253 2.02344 4.57031C2.02344 2.88762 3.38762 1.52344 5.07031 1.52344H47.9297C49.6124 1.52344 50.9766 2.88762 50.9766 4.57031C50.9766 6.253 49.6124 7.61719 47.9297 7.61719Z" stroke="#121519" stroke-width="2" stroke-miterlimit="10" stroke-linecap="round" stroke-linejoin="round"></path><path d="M44.7812 31.9922H8.21875C6.53606 31.9922 5.17188 30.628 5.17188 28.9453V7.61719H47.8281V28.9453C47.8281 30.628 46.4639 31.9922 44.7812 31.9922Z" stroke="#121519" stroke-width="2" stroke-miterlimit="10" stroke-linecap="round" stroke-linejoin="round"></path><path d="M11.2656 13.7109V25.8984" stroke="#121519" stroke-width="2" stroke-miterlimit="10" stroke-linecap="round" stroke-linejoin="round"></path><path d="M17.3594 16.7578V25.8984" stroke="#121519" stroke-width="2" stroke-miterlimit="10" stroke-linecap="round" stroke-linejoin="round"></path><path d="M23.4531 19.8047V25.8984" stroke="#121519" stroke-width="2" stroke-miterlimit="10" stroke-linecap="round" stroke-linejoin="round"></path><path d="M29.5469 19.8047C29.5469 16.4392 32.2751 13.7109 35.6406 13.7109C39.0061 13.7109 41.7344 16.4392 41.7344 19.8047C41.7344 23.1702 39.0061 25.8984 35.6406 25.8984C32.2751 25.8984 29.5469 23.1702 29.5469 19.8047Z" stroke="#121519" stroke-width="2" stroke-miterlimit="10" stroke-linecap="round" stroke-linejoin="round"></path><path d="M35.6406 13.7109V19.8047H41.7344" stroke="#121519" stroke-width="2" stroke-miterlimit="10" stroke-linecap="round" stroke-linejoin="round"></path></svg> 