
<?xml version="1.0" encoding="UTF-8"?> <svg xmlns="http://www.w3.org/2000/svg" width="53" height="52" viewBox="0 0 53 52" fill="none"><circle cx="26.5" cy="26" r="26" fill="#FFDA44"></circle><g clip-path="url(#clip0_4982_27982)"><path d="M27.7859 24.7158C27.3888 24.3187 26.7459 24.3187 26.3488 24.7158C25.9527 25.1119 25.9527 25.7548 26.3488 26.1519C26.7459 26.548 27.3888 26.548 27.7859 26.1519C28.182 25.7548 28.182 25.1119 27.7859 24.7158Z" fill="#121519"></path><path d="M40.7122 11.7882C38.7277 9.80374 35.515 9.80363 33.5304 11.7882C31.5511 13.7675 31.551 16.9891 33.5307 18.97C35.5108 20.9489 38.7323 20.9497 40.7122 18.9698C42.6965 16.9855 42.6969 13.7728 40.7122 11.7882ZM39.2759 17.5334C38.0883 18.7211 36.1552 18.7211 34.967 17.5336C33.7792 16.3452 33.7791 14.412 34.9668 13.2245C36.1574 12.0338 38.0851 12.0336 39.2759 13.2245C40.4665 14.415 40.4667 16.3427 39.2759 17.5334Z" fill="#121519"></path><path d="M52.2025 0.297486C52.003 0.0981191 51.7308 -0.00994315 51.4479 0.00072089C51.2182 0.00894744 45.7506 0.228728 39.2511 2.52597C34.043 4.36485 29.7019 6.99765 26.3485 10.3512C25.597 11.1027 24.8658 11.8996 24.1661 12.7274C20.8503 10.7756 18.1932 11.3876 16.5135 12.2865C12.6459 14.3563 10.252 19.9764 10.252 23.9962C10.2523 24.407 10.4998 24.7774 10.8792 24.9345C11.0048 24.9866 11.1369 25.0119 11.2677 25.0119C11.532 25.0119 11.7917 24.9086 11.986 24.7144C14.0257 22.6747 16.5415 22.8023 17.3633 22.9103L17.719 23.266C17.019 24.9316 16.4552 26.5879 16.0416 28.1988C15.8923 28.7817 15.9427 29.3986 16.1646 29.9629C15.1868 30.4136 14.2434 31.0752 13.4219 31.8967C10.8076 34.5111 10.2767 40.8825 10.2554 41.1524C10.232 41.4487 10.3395 41.7404 10.5496 41.9505C10.7409 42.1417 10.9996 42.248 11.2677 42.248C11.2943 42.248 11.321 42.247 11.3477 42.2449C11.6177 42.2236 17.9893 41.6928 20.6036 39.0784C21.4247 38.2573 22.0863 37.314 22.5369 36.3364C23.1343 36.5713 23.7492 36.6002 24.3021 36.4585C25.9123 36.0451 27.5683 35.4814 29.2342 34.7813L29.5898 35.137C29.6978 35.959 29.8253 38.4748 27.7858 40.5142C27.4954 40.8047 27.4085 41.2415 27.5657 41.621C27.7228 42.0005 28.0931 42.2479 28.5039 42.2479C32.5238 42.2479 38.1437 39.854 40.2135 35.9864C41.1125 34.3068 41.7245 31.6498 39.7727 28.3339C40.6001 27.6345 41.397 26.9033 42.1488 26.1515C45.5024 22.7979 48.1351 18.4568 49.974 13.2491C52.2713 6.74933 52.491 1.28162 52.4992 1.05209C52.5094 0.770259 52.4018 0.496954 52.2025 0.297486ZM12.5227 21.8117C13.1536 18.7585 14.9861 15.408 17.4723 14.0774C19.1338 13.1883 20.9498 13.2754 22.8807 14.3324C21.2357 16.4959 19.8056 18.8267 18.6136 21.2881C18.5984 21.2787 18.4156 21.0489 18.076 20.9723C17.9364 20.9407 15.2491 20.3627 12.5227 21.8117ZM19.1673 37.642C17.7708 39.0385 14.4949 39.7751 12.4244 40.0758C12.7252 38.0051 13.4618 34.7293 14.8582 33.333C15.6402 32.5509 16.547 31.958 17.4584 31.6241L20.8762 35.0419C20.5422 35.9533 19.9494 36.86 19.1673 37.642ZM23.7975 34.4909C23.5036 34.5661 23.1632 34.4556 22.9101 34.2029C21.5962 32.889 21.0822 32.375 20.9209 32.2138C20.6251 31.9181 19.8999 31.1928 18.2979 29.5908C18.0446 29.337 17.9341 28.9967 18.0092 28.7032C18.3345 27.4364 18.7599 26.1366 19.2773 24.8243L27.676 33.223C26.3635 33.7404 25.0639 34.1658 23.7975 34.4909ZM38.4229 35.0279C37.0922 37.5141 33.7419 39.3467 30.6887 39.9775C31.6622 38.1456 31.8768 35.8136 31.5211 34.3996C31.4386 34.0711 31.2243 33.906 31.2123 33.8866C33.6734 32.6945 36.0042 31.2644 38.1679 29.6194C39.2248 31.5505 39.3119 33.3668 38.4229 35.0279ZM40.7127 24.7152C39.7975 25.6303 38.8121 26.5144 37.7837 27.3428C35.3114 29.3334 32.5904 31.0196 29.6873 32.3618L20.1384 22.8131C21.4807 19.9099 23.1668 17.1888 25.1572 14.7169C25.9864 13.6878 26.8704 12.7022 27.7852 11.7875C30.7939 8.77865 34.6771 6.38401 39.3299 4.6603L47.84 13.1704C46.1164 17.8231 43.7218 21.7062 40.7127 24.7152ZM48.5707 11.0284L41.4719 3.92956C45.3395 2.72828 48.7042 2.27846 50.3836 2.11677C50.2218 3.79651 49.7719 7.16117 48.5707 11.0284Z" fill="#121519"></path><path d="M24.348 40.0084C23.9516 39.6118 23.3084 39.6118 22.9117 40.0083L16.0319 46.8871C15.6352 47.2837 15.6352 47.9268 16.0318 48.3234C16.4282 48.72 17.0714 48.7202 17.4681 48.3235L24.3479 41.4447C24.7446 41.0481 24.7446 40.405 24.348 40.0084Z" fill="#121519"></path><path d="M9.60683 43.3873C9.21033 42.9907 8.56714 42.9907 8.17054 43.3872L1.2907 50.266C0.894001 50.6626 0.894001 51.3057 1.2906 51.7023C1.687 52.0989 2.33019 52.0991 2.7269 51.7024L9.60673 44.8236C10.0034 44.427 10.0034 43.7839 9.60683 43.3873Z" fill="#121519"></path><path d="M9.92505 32.3911C9.52855 31.9946 8.88535 31.9946 8.48875 32.3912L1.60994 39.271C1.21334 39.6677 1.21334 40.3107 1.61004 40.7074C2.00664 41.104 2.64973 41.104 3.04633 40.7073L9.92515 33.8275C10.3218 33.4308 10.3218 32.7878 9.92505 32.3911Z" fill="#121519"></path><path d="M32.0938 20.4058C31.6971 20.0092 31.0542 20.0092 30.6574 20.4058L29.2213 21.8419C28.8247 22.2385 28.8247 22.8816 29.2213 23.2783C29.618 23.6749 30.261 23.6749 30.6577 23.2783L32.0938 21.8422C32.4904 21.4456 32.4904 20.8026 32.0938 20.4058Z" fill="#121519"></path></g><defs><clipPath id="clip0_4982_27982"><rect width="52" height="52" fill="white" transform="translate(0.5)"></rect></clipPath></defs></svg> 