<?xml version="1.0" encoding="UTF-8"?> <svg xmlns="http://www.w3.org/2000/svg" width="72" height="72" viewBox="0 0 72 72" fill="none"><g clip-path="url(#clip0_4901_27240)"><path d="M37.7801 34.2212C37.2302 33.6714 36.3401 33.6714 35.7902 34.2212C35.2418 34.7697 35.2418 35.6598 35.7902 36.2097C36.3401 36.7581 37.2302 36.7581 37.7801 36.2097C38.3285 35.6598 38.3285 34.7697 37.7801 34.2212Z" fill="white"></path><path d="M55.6782 16.3223C52.9304 13.5746 48.4821 13.5745 45.7342 16.3223C42.9936 19.0629 42.9934 23.5235 45.7346 26.2664C48.4762 29.0063 52.9368 29.0075 55.6782 26.2661C58.4257 23.5186 58.4263 19.0702 55.6782 16.3223ZM53.6895 24.2773C52.0451 25.9217 49.3685 25.9217 47.7233 24.2776C46.0787 22.632 46.0786 19.9553 47.723 18.311C49.3716 16.6624 52.0406 16.6622 53.6895 18.311C55.338 19.9594 55.3383 22.6286 53.6895 24.2773Z" fill="white"></path><path d="M71.5883 0.411904C71.3121 0.135857 70.9352 -0.0137674 70.5434 0.000998155C70.2255 0.0123888 62.6549 0.316701 53.6557 3.49749C46.4444 6.04364 40.4337 9.68906 35.7904 14.3325C34.7499 15.373 33.7374 16.4763 32.7687 17.6225C28.1775 14.92 24.4985 15.7674 22.1727 17.0121C16.8176 19.878 13.5029 27.6596 13.5029 33.2256C13.5034 33.7942 13.8461 34.3071 14.3714 34.5247C14.5454 34.5968 14.7282 34.6318 14.9093 34.6318C15.2754 34.6318 15.6349 34.4888 15.904 34.2199C18.7281 31.3958 22.2115 31.5724 23.3495 31.722L23.8419 32.2145C22.8728 34.5207 22.092 36.814 21.5194 39.0445C21.3127 39.8517 21.3824 40.7058 21.6897 41.4871C20.3357 42.1111 19.0295 43.0272 17.8921 44.1646C14.2723 47.7846 13.5372 56.6065 13.5077 56.9803C13.4754 57.3905 13.6241 57.7944 13.9151 58.0853C14.1799 58.35 14.5381 58.4972 14.9093 58.4972C14.9462 58.4972 14.9831 58.4958 15.0201 58.4929C15.3939 58.4635 24.2161 57.7284 27.836 54.1086C28.9729 52.9717 29.8889 51.6655 30.5129 50.3119C31.3401 50.6371 32.1914 50.6772 32.957 50.4811C35.1864 49.9086 37.4794 49.1281 39.786 48.1588L40.2784 48.6512C40.4279 49.7893 40.6045 53.2727 37.7805 56.0966C37.3785 56.4988 37.2581 57.1036 37.4758 57.629C37.6933 58.1545 38.2061 58.4971 38.7749 58.4971C44.3408 58.4971 52.1223 55.1824 54.9882 49.8273C56.2329 47.5018 57.0803 43.8228 54.3778 39.2315C55.5234 38.2632 56.6269 37.2507 57.6678 36.2098C62.3112 31.5663 65.9565 25.5556 68.5027 18.3449C71.6836 9.34523 71.9878 1.77456 71.9992 1.45675C72.0132 1.06651 71.8643 0.688091 71.5883 0.411904ZM16.647 30.2009C17.5206 25.9733 20.0579 21.3342 23.5004 19.4917C25.8008 18.2607 28.3154 18.3814 30.9889 19.8448C28.7112 22.8404 26.7311 26.0678 25.0806 29.4758C25.0596 29.4629 24.8065 29.1446 24.3362 29.0386C24.1429 28.9949 20.4221 28.1946 16.647 30.2009ZM25.8473 52.1198C23.9137 54.0533 19.3778 55.0732 16.5109 55.4895C16.9274 52.6225 17.9474 48.0868 19.8808 46.1533C20.9636 45.0705 22.2191 44.2496 23.4811 43.7872L28.2134 48.5195C27.751 49.7815 26.9302 51.0369 25.8473 52.1198ZM32.2583 47.7566C31.8514 47.8608 31.38 47.7078 31.0296 47.3579C29.2103 45.5387 28.4986 44.827 28.2753 44.6038C27.8658 44.1943 26.8616 43.1901 24.6435 40.9719C24.2928 40.6204 24.1398 40.1492 24.2437 39.743C24.6941 37.9888 25.2832 36.1891 25.9995 34.3721L37.6285 46.001C35.8112 46.7175 34.0118 47.3065 32.2583 47.7566ZM52.5089 48.5002C50.6664 51.9426 46.0275 54.48 41.8 55.3534C43.1479 52.817 43.445 49.5881 42.9526 47.6302C42.8382 47.1754 42.5415 46.9467 42.5249 46.9199C45.9327 45.2694 49.1599 43.2892 52.1557 41.0115C53.6192 43.6854 53.7397 46.2002 52.5089 48.5002ZM55.6794 34.221C54.4122 35.4881 53.0477 36.7122 51.6238 37.8593C48.2007 40.6155 44.4331 42.9502 40.4134 44.8087L27.1919 31.5874C29.0504 27.5675 31.3851 23.7999 34.141 20.3772C35.2891 18.9523 36.5131 17.5877 37.7797 16.3212C41.9457 12.1551 47.3223 8.8394 53.7646 6.45272L65.5479 18.2359C63.1615 24.6781 59.8458 30.0548 55.6794 34.221ZM66.5597 15.27L56.7306 5.44093C62.0857 3.77762 66.7444 3.15479 69.0698 2.93091C68.8458 5.25671 68.2228 9.91546 66.5597 15.27Z" fill="white"></path><path d="M33.0204 55.3961C32.4715 54.847 31.5809 54.847 31.0316 55.396L21.5057 64.9205C20.9564 65.4696 20.9564 66.3601 21.5056 66.9092C22.0544 67.4584 22.945 67.4586 23.4943 66.9094L33.0202 57.3848C33.5695 56.8357 33.5695 55.9453 33.0204 55.3961Z" fill="white"></path><path d="M12.6092 60.0748C12.0602 59.5257 11.1697 59.5257 10.6205 60.0747L1.09459 69.5992C0.545315 70.1483 0.545315 71.0388 1.09445 71.5879C1.64331 72.1371 2.53389 72.1373 3.08317 71.5881L12.6091 62.0636C13.1584 61.5144 13.1584 60.624 12.6092 60.0748Z" fill="white"></path><path d="M13.0501 44.8491C12.5011 44.3001 11.6105 44.3001 11.0614 44.8492L1.53684 54.3752C0.987698 54.9245 0.987698 55.8147 1.53698 56.364C2.08612 56.9132 2.97655 56.9132 3.52569 56.3639L13.0502 46.838C13.5993 46.2887 13.5993 45.3984 13.0501 44.8491Z" fill="white"></path><path d="M43.7456 28.2541C43.1963 27.705 42.3062 27.705 41.7567 28.2541L39.7683 30.2426C39.2192 30.7917 39.2192 31.6821 39.7683 32.2314C40.3176 32.7806 41.2079 32.7806 41.7572 32.2314L43.7456 30.243C44.2947 29.6939 44.2947 28.8034 43.7456 28.2541Z" fill="white"></path></g><defs><clipPath id="clip0_4901_27240"><rect width="72" height="72" fill="white"></rect></clipPath></defs></svg> 