
<svg width="151" height="113" viewBox="0 0 151 113" fill="none" xmlns="http://www.w3.org/2000/svg">
<path d="M129.988 64.8878C124.708 64.9175 120.137 66.1834 116.302 68.0683C114.887 65.2709 113.471 62.8265 113.235 61.0012C112.97 58.881 112.645 57.5851 112.97 55.053C113.294 52.5203 114.769 48.9279 114.769 48.6334C114.739 48.3684 114.444 47.0727 111.406 47.0433C108.369 47.0138 105.743 47.6322 105.448 48.4273C105.153 49.2223 104.564 51.048 104.18 52.9326C103.649 55.7005 98.1042 65.5061 94.9483 70.6593C93.9159 68.6569 93.0311 66.8901 92.8538 65.4764C92.5887 63.3566 92.2639 62.0606 92.5887 59.5285C92.9131 56.9959 94.3879 53.4037 94.3879 53.1092C94.3584 52.8442 94.0634 51.5486 91.0258 51.5191C87.9875 51.4897 85.3628 52.1081 85.0678 52.9031C84.7729 53.6982 84.4484 55.5827 83.7995 57.4084C83.1798 59.2341 75.8062 75.6062 73.889 79.876C72.9157 82.055 72.0606 83.7923 71.4409 84.9702C70.8215 86.148 71.4114 85.0585 71.3524 85.1763C70.8215 86.1775 70.5266 86.737 70.5266 86.737V86.7667C70.1137 87.5029 69.6712 88.2093 69.4645 88.2093C69.317 88.2093 69.0221 86.2364 69.5235 83.5276C70.6148 77.8442 73.2693 68.9811 73.2401 68.6572C73.2401 68.51 73.7412 66.949 71.5291 66.1543C69.376 65.3592 68.6094 66.6843 68.4322 66.6843C68.2552 66.6843 68.1077 67.1554 68.1077 67.1554C68.1077 67.1554 70.4968 57.1734 63.536 57.1734C59.1708 57.1734 53.1539 61.9143 50.1749 66.2429C48.2872 67.2735 44.276 69.4522 40.0287 71.7788C38.4065 72.6622 36.7253 73.6045 35.1326 74.4584L34.8084 74.1045C26.3729 65.1233 10.7702 58.7629 11.4191 46.6899C11.6551 42.3024 13.1888 30.73 41.3861 16.7136C64.4805 5.22949 82.9737 8.38025 86.1883 15.3885C90.76 25.4002 76.3076 44.0103 52.2991 46.6899C43.1558 47.7206 38.3478 44.187 37.1388 42.8619C35.8705 41.4779 35.6936 41.419 35.2217 41.6841C34.4548 42.0963 34.9267 43.333 35.2217 44.0692C35.9295 45.9243 38.879 49.2223 43.8931 50.8713C48.2875 52.3142 59.0239 53.1092 72.0016 48.1034C86.5425 42.4791 97.898 26.8726 94.5651 13.8278C91.1732 0.547523 69.1111 -3.81054 48.2583 3.5805C35.8408 7.99745 22.3911 14.8879 12.7169 23.9279C1.21391 34.6464 -0.61477 44.0103 0.152094 47.8972C2.83641 61.7665 21.9782 70.8065 29.6469 77.4908C29.2634 77.6966 28.9095 77.9028 28.585 78.0797C24.7507 79.964 10.1508 87.5909 6.49347 95.6589C2.3642 104.787 7.14235 111.354 10.3278 112.237C20.179 114.976 30.2662 110.058 35.7228 101.961C41.1495 93.863 40.5009 83.3506 37.9939 78.5509L37.9051 78.3742L40.9136 76.6074C42.8605 75.459 44.7777 74.3989 46.4586 73.4858C45.515 76.0476 44.8364 79.0806 44.4827 83.4976C44.0698 88.6804 46.1934 95.3939 48.9954 98.0441C50.2342 99.1922 51.7089 99.2219 52.6233 99.2219C55.8677 99.2219 57.3424 96.542 58.9646 93.3326C60.9703 89.4163 62.74 84.8815 62.74 84.8815C62.74 84.8815 60.5279 97.1607 66.5743 97.1607C68.7864 97.1607 70.9985 94.3044 72.0013 92.8321V92.8615C72.0013 92.8615 72.0603 92.7732 72.1783 92.567C72.3021 92.3844 72.4201 92.1979 72.5322 92.0079V91.949C73.4171 90.4178 75.3932 86.9136 78.3427 81.1127C82.1472 73.6333 85.8049 64.2694 85.8049 64.2694C85.8049 64.2694 86.1588 66.5662 87.2501 70.3354C87.8987 72.5736 89.3145 75.0173 90.4058 77.4025C89.5209 78.6392 88.99 79.3462 88.99 79.3462L89.0195 79.3757C88.3119 80.318 87.5153 81.3194 86.6897 82.3203C83.6813 85.9128 80.0829 90.0061 79.611 91.184C79.0506 92.5676 79.1686 93.5983 80.2599 94.423C81.0562 95.012 82.472 95.1295 83.9762 95.012C86.6897 94.835 88.5774 94.158 89.5212 93.7455C90.996 93.2155 92.6772 92.4204 94.2994 91.2425C97.2489 89.0638 99.048 85.9719 98.8711 81.8495C98.7826 79.5821 98.0452 77.3442 97.1309 75.224C97.3963 74.8412 97.6621 74.4581 97.9272 74.0462C102.587 67.2438 106.186 59.7647 106.186 59.7647C106.186 59.7647 106.54 62.0615 107.631 65.8306C108.191 67.7447 109.312 69.8356 110.315 71.8969C105.95 75.4599 103.207 79.5824 102.263 82.2915C100.523 87.2973 101.88 89.5647 104.446 90.0947C105.596 90.3303 107.248 89.8003 108.486 89.2702C110.02 88.7696 111.878 87.9154 113.589 86.6495C116.538 84.4705 119.37 81.4375 119.222 77.3445C119.134 75.4599 118.633 73.6048 117.954 71.838C121.671 70.3068 126.478 69.4234 132.584 70.1596C145.709 71.6908 148.304 79.8768 147.803 83.2926C147.302 86.7087 144.559 88.593 143.644 89.1819C142.73 89.7414 142.435 89.9478 142.523 90.3597C142.641 90.9784 143.054 90.9487 143.851 90.8312C144.942 90.6542 150.752 88.0338 150.988 81.7326C151.342 73.6336 143.644 64.7997 129.988 64.8878ZM28.762 98.9572C24.4263 103.698 18.3209 105.494 15.7253 103.963C12.9233 102.344 14.0143 95.3647 19.3532 90.3294C22.5976 87.267 26.8154 84.4401 29.5879 82.7028C30.2073 82.32 31.1511 81.7608 32.2719 81.0833C32.4489 80.9658 32.5668 80.9066 32.5668 80.9066C32.7733 80.7888 33.0093 80.6416 33.2452 80.4943C35.2214 87.6792 33.3337 93.9808 28.762 98.9572ZM60.4689 77.4319C58.9646 81.1127 55.7792 90.565 53.8621 90.035C52.2101 89.5933 51.2075 82.4378 53.5373 75.3707C54.7171 71.8074 57.2242 67.5674 58.6989 65.9181C61.0883 63.2679 63.6835 62.3845 64.3327 63.4741C65.0996 64.8878 61.4127 75.1351 60.4689 77.4319ZM86.6307 89.9172C85.9819 90.2414 85.392 90.4766 85.1265 90.3003C84.92 90.1825 85.3917 89.7408 85.3917 89.7408C85.3917 89.7408 88.6656 86.2367 89.9633 84.6171C90.7007 83.6751 91.5856 82.5856 92.5294 81.3486V81.7019C92.5297 85.9419 88.4594 88.7688 86.6307 89.9172ZM106.805 85.3235C106.333 84.9702 106.392 83.8807 107.985 80.4649C108.604 79.1104 110.02 76.843 112.468 74.6934C112.763 75.5768 112.94 76.4305 112.91 77.2258C112.881 82.5261 109.106 84.499 106.805 85.3235Z" fill="#CF649A"/>
</svg>
