
<?xml version="1.0" encoding="UTF-8"?> <svg xmlns="http://www.w3.org/2000/svg" width="61" height="55" viewBox="0 0 61 55" fill="none"><path d="M27.114 48.6128C24.7203 48.5977 22.41 48.1962 20.1831 47.4085C17.9712 46.6207 15.9866 45.3405 14.2293 43.5681C12.472 41.7956 11.0782 39.4474 10.048 36.5235C9.03303 33.5997 8.52552 30.0093 8.52552 25.7522C8.54067 21.8437 8.98758 18.3517 9.86625 15.2764C10.7601 12.1859 12.0326 9.565 13.6839 7.41377C15.3504 5.26254 17.3425 3.6264 19.6604 2.50533C21.9783 1.36912 24.5764 0.801017 27.4548 0.801017C30.5605 0.801017 33.3025 1.407 35.681 2.61896C38.0595 3.81577 39.9683 5.44434 41.4075 7.50467C42.8619 9.565 43.7405 11.8753 44.0435 14.4356H34.3403C33.9615 12.8146 33.1662 11.542 31.9542 10.6179C30.7423 9.69378 29.2425 9.23172 27.4548 9.23172C24.4249 9.23172 22.1222 10.5497 20.5466 13.1857C18.9862 15.8217 18.1909 19.4046 18.1606 23.9343H18.4787C19.1756 22.5557 20.1149 21.3816 21.2965 20.412C22.4934 19.4273 23.8492 18.6774 25.3642 18.1623C26.8943 17.6321 28.5077 17.367 30.2045 17.367C32.9617 17.367 35.4159 18.0184 37.5671 19.3213C39.7183 20.609 41.4151 22.3815 42.6573 24.6388C43.8996 26.896 44.5207 29.479 44.5207 32.3877C44.5207 35.5388 43.786 38.3415 42.3165 40.7957C40.8621 43.2499 38.8245 45.1739 36.2037 46.5677C33.5979 47.9463 30.568 48.628 27.114 48.6128ZM27.0685 40.8866C28.5835 40.8866 29.9393 40.523 31.1361 39.7958C32.333 39.0687 33.2722 38.0839 33.954 36.8417C34.6357 35.5994 34.9765 34.2057 34.9765 32.6604C34.9765 31.1152 34.6357 29.729 33.954 28.5019C33.2874 27.2748 32.3633 26.2976 31.1816 25.5705C29.9999 24.8433 28.6516 24.4797 27.1367 24.4797C26.0005 24.4797 24.9476 24.6918 23.978 25.116C23.0236 25.5402 22.1828 26.131 21.4556 26.8885C20.7436 27.6459 20.1831 28.5246 19.774 29.5245C19.365 30.5092 19.1605 31.5621 19.1605 32.6831C19.1605 34.1829 19.5013 35.554 20.1831 36.7962C20.8799 38.0385 21.8192 39.0308 23.0009 39.7731C24.1977 40.5154 25.5536 40.8866 27.0685 40.8866ZM55.3091 48.5674C53.8093 48.5674 52.5216 48.0372 51.4459 46.9767C50.3855 45.9011 49.8553 44.6134 49.8553 43.1136C49.8553 41.6289 50.3855 40.3564 51.4459 39.2959C52.5216 38.2354 53.8093 37.7052 55.3091 37.7052C56.7634 37.7052 58.036 38.2354 59.1267 39.2959C60.2175 40.3564 60.7629 41.6289 60.7629 43.1136C60.7629 44.1134 60.5053 45.03 59.9903 45.8632C59.4903 46.6813 58.8313 47.3403 58.0133 47.8402C57.1952 48.325 56.2938 48.5674 55.3091 48.5674Z" fill="#FFDA44"></path><path d="M24.3718 51.355L24.3654 52.355L24.3674 52.355L24.3718 51.355ZM17.4409 50.1506L17.1054 51.0927L17.1074 51.0934L17.4409 50.1506ZM11.4871 46.3102L10.777 47.0143V47.0143L11.4871 46.3102ZM7.30586 39.2657L6.36115 39.5937L6.36269 39.598L7.30586 39.2657ZM5.78333 28.4944L4.78333 28.4906V28.4944H5.78333ZM7.12406 18.0186L6.16343 17.7407L6.16254 17.7438L7.12406 18.0186ZM10.9417 10.156L10.1512 9.54356L10.1485 9.54706L10.9417 10.156ZM16.9182 5.24752L17.3536 6.14777L17.3584 6.14544L16.9182 5.24752ZM32.9388 5.36115L32.4848 6.25215L32.4893 6.25443L32.9388 5.36115ZM38.6653 10.2469L37.8455 10.8195L37.8484 10.8235L38.6653 10.2469ZM41.3013 17.1778V18.1778H42.4267L42.2944 17.0602L41.3013 17.1778ZM31.5981 17.1778L30.6243 17.4053L30.8048 18.1778H31.5981V17.1778ZM17.8045 15.9279L16.9461 15.4149L16.9439 15.4185L17.8045 15.9279ZM15.4184 26.6765L14.4184 26.6698L14.4117 27.6765H15.4184V26.6765ZM15.7366 26.6765V27.6765H16.3516L16.629 27.1276L15.7366 26.6765ZM18.5544 23.1542L19.1887 23.9273L19.1897 23.9264L18.5544 23.1542ZM22.622 20.9045L22.9439 21.8513L22.9494 21.8494L22.622 20.9045ZM34.8249 22.0635L34.3069 22.9188L34.3113 22.9215L34.8249 22.0635ZM39.5743 43.5379L38.7163 43.0242L38.714 43.0281L39.5743 43.5379ZM33.4615 49.3098L33.9291 50.1938L33.931 50.1928L33.4615 49.3098ZM28.394 42.538L28.9132 43.3926L28.394 42.538ZM31.2118 39.5839L32.0884 40.065H32.0884L31.2118 39.5839ZM31.2118 31.2441L30.333 31.7214L30.3376 31.7297L31.2118 31.2441ZM28.4394 28.3126L28.9635 27.461L28.4394 28.3126ZM21.2358 27.8582L20.835 26.942L20.8297 26.9443L21.2358 27.8582ZM18.7134 29.6306L17.992 28.9381L17.9848 28.9457L18.7134 29.6306ZM17.0318 32.2667L17.9553 32.6503L17.9574 32.6453L17.0318 32.2667ZM17.4409 39.5384L16.5642 40.0195L16.5687 40.0277L17.4409 39.5384ZM20.2587 42.5153L19.7267 43.3621L19.7316 43.3651L20.2587 42.5153ZM24.3781 50.355C22.0944 50.3406 19.8948 49.958 17.7744 49.2079L17.1074 51.0934C19.4409 51.9188 21.8618 52.3392 24.3654 52.355L24.3781 50.355ZM17.7764 49.2086C15.7145 48.4742 13.8559 47.2791 12.1973 45.6062L10.777 47.0143C12.633 48.8863 14.7436 50.2515 17.1054 51.0927L17.7764 49.2086ZM12.1973 45.6062C10.5662 43.9611 9.24161 41.7506 8.24903 38.9334L6.36269 39.598C7.43044 42.6286 8.89331 45.1144 10.777 47.0143L12.1973 45.6062ZM8.25055 38.9378C7.28303 36.1507 6.78333 32.6787 6.78333 28.4944H4.78333C4.78333 32.8242 5.29865 36.533 6.36116 39.5937L8.25055 38.9378ZM6.78332 28.4983C6.79819 24.6619 7.23693 21.2636 8.08559 18.2933L6.16254 17.7438C5.25385 20.9242 4.79877 24.5099 4.78334 28.4906L6.78332 28.4983ZM8.08469 18.2964C8.95018 15.3039 10.1724 12.8006 11.735 10.7649L10.1485 9.54706C8.40852 11.8138 7.08559 14.5522 6.16343 17.7407L8.08469 18.2964ZM11.7323 10.7684C13.3097 8.73208 15.1827 7.19776 17.3536 6.14776L16.4828 4.34729C14.018 5.53941 11.9067 7.27738 10.1512 9.54356L11.7323 10.7684ZM17.3584 6.14544C19.5242 5.08379 21.9691 4.5432 24.7126 4.5432V2.5432C21.6994 2.5432 18.948 3.13883 16.4781 4.3496L17.3584 6.14544ZM24.7126 4.5432C27.6863 4.5432 30.2683 5.12269 32.4848 6.25214L33.3928 4.47015C30.8524 3.17568 27.9503 2.5432 24.7126 2.5432V4.5432ZM32.4893 6.25443C34.7288 7.38129 36.5069 8.9032 37.8455 10.8195L39.4851 9.67421C37.9453 7.46985 35.9058 5.73462 33.3883 4.46786L32.4893 6.25443ZM37.8484 10.8235C39.2045 12.7447 40.0244 14.8965 40.3083 17.2953L42.2944 17.0602C41.9723 14.3385 41.0349 11.8696 39.4823 9.67018L37.8484 10.8235ZM41.3013 16.1778H31.5981V18.1778H41.3013V16.1778ZM32.5719 16.9502C32.1455 15.1254 31.2325 13.6431 29.8184 12.5649L28.6057 14.1553C29.6155 14.9253 30.2932 15.9881 30.6243 17.4053L32.5719 16.9502ZM29.8184 12.5649C28.4033 11.4859 26.68 10.9739 24.7126 10.9739V12.9739C26.3205 12.9739 27.5968 13.386 28.6057 14.1553L29.8184 12.5649ZM24.7126 10.9739C21.325 10.9739 18.6992 12.4819 16.9461 15.4149L18.6628 16.441C20.0609 14.1019 22.0404 12.9739 24.7126 12.9739V10.9739ZM16.9439 15.4185C15.2603 18.2628 14.4494 22.0421 14.4184 26.6698L16.4184 26.6832C16.448 22.2515 17.2279 18.8651 18.665 16.4373L16.9439 15.4185ZM15.4184 27.6765H15.7366V25.6765H15.4184V27.6765ZM16.629 27.1276C17.2638 25.8718 18.1157 24.8077 19.1887 23.9273L17.92 22.3812C16.6297 23.4399 15.603 24.724 14.8441 26.2254L16.629 27.1276ZM19.1897 23.9264C20.2904 23.0208 21.5393 22.3289 22.9439 21.8513L22.3001 19.9578C20.6748 20.5104 19.2119 21.3182 17.919 22.382L19.1897 23.9264ZM22.9494 21.8494C24.3693 21.3574 25.8716 21.1092 27.4623 21.1092V19.1092C25.6594 19.1092 23.9349 19.3912 22.2946 19.9597L22.9494 21.8494ZM27.4623 21.1092C30.055 21.1092 32.3267 21.7196 34.3069 22.9188L35.343 21.2081C33.0207 19.8016 30.384 19.1092 27.4623 19.1092V21.1092ZM34.3113 22.9215C36.3062 24.1156 37.8797 25.7565 39.0391 27.8631L40.7912 26.8988C39.4661 24.4908 37.6461 22.5867 35.3385 21.2054L34.3113 22.9215ZM39.0391 27.8631C40.19 29.9545 40.7785 32.3677 40.7785 35.1299H42.7785C42.7785 32.0747 42.1248 29.322 40.7912 26.8988L39.0391 27.8631ZM40.7785 35.1299C40.7785 38.119 40.0836 40.7407 38.7163 43.0242L40.4323 44.0516C42.004 41.4267 42.7785 38.443 42.7785 35.1299H40.7785ZM38.714 43.0281C37.3571 45.3179 35.4577 47.1157 32.9919 48.4269L33.931 50.1928C36.707 48.7165 38.8828 46.6664 40.4346 44.0477L38.714 43.0281ZM32.9938 48.4259C30.5566 49.7154 27.694 50.3696 24.3762 50.355L24.3674 52.355C27.9577 52.3708 31.1549 51.6615 33.9291 50.1938L32.9938 48.4259ZM24.3263 44.6288C26.0089 44.6288 27.5471 44.2227 28.9132 43.3926L27.8747 41.6834C26.8472 42.3077 25.6737 42.6288 24.3263 42.6288V44.6288ZM28.9132 43.3926C30.2617 42.5733 31.3234 41.459 32.0884 40.065L30.3351 39.1028C29.7367 40.1933 28.9198 41.0484 27.8747 41.6834L28.9132 43.3926ZM32.0884 40.065C32.8583 38.6622 33.2344 37.1004 33.2344 35.4026H31.2344C31.2344 36.7953 30.9287 38.0211 30.3351 39.1028L32.0884 40.065ZM33.2344 35.4026C33.2344 33.7049 32.8583 32.1487 32.0859 30.7584L30.3376 31.7297C30.9287 32.7937 31.2344 34.0098 31.2344 35.4026H33.2344ZM32.0905 30.7667C31.341 29.387 30.2951 28.2804 28.9635 27.461L27.9153 29.1643C28.9471 29.7992 29.7494 30.6469 30.333 31.7214L32.0905 30.7667ZM28.9635 27.461C27.6099 26.628 26.0769 26.2219 24.3945 26.2219V28.2219C25.742 28.2219 26.9056 28.5429 27.9153 29.1643L28.9635 27.461ZM24.3945 26.2219C23.1306 26.2219 21.9401 26.4585 20.835 26.942L21.6366 28.7743C22.4707 28.4094 23.3859 28.2219 24.3945 28.2219V26.2219ZM20.8297 26.9443C19.7562 27.4215 18.8085 28.0877 17.992 28.9381L19.4348 30.3232C20.0727 29.6587 20.8066 29.1432 21.642 28.772L20.8297 26.9443ZM17.9848 28.9457C17.1857 29.7959 16.5598 30.7794 16.1063 31.888L17.9574 32.6453C18.3219 31.7542 18.8171 30.9804 19.4421 30.3156L17.9848 28.9457ZM16.1083 31.8831C15.6462 32.9955 15.4183 34.1795 15.4183 35.4253H17.4183C17.4183 34.429 17.5994 33.5072 17.9553 32.6503L16.1083 31.8831ZM15.4183 35.4253C15.4183 37.0832 15.7968 38.6212 16.5642 40.0195L18.3175 39.0573C17.7215 37.9712 17.4183 36.7671 17.4183 35.4253H15.4183ZM16.5687 40.0277C17.3456 41.4125 18.4006 42.529 19.7267 43.3621L20.7906 41.6685C19.7535 41.017 18.9299 40.1488 18.313 39.0492L16.5687 40.0277ZM19.7316 43.3651C21.0987 44.2131 22.6398 44.6288 24.3263 44.6288V42.6288C22.983 42.6288 21.8123 42.3022 20.7858 41.6655L19.7316 43.3651ZM48.7038 49.7189L47.9917 50.421L47.9966 50.426L48.0017 50.431L48.7038 49.7189ZM48.7038 42.0381L48.0017 41.326L47.9967 41.331L48.7038 42.0381ZM56.3846 42.0381L55.6875 42.7551H55.6875L56.3846 42.0381ZM57.2481 48.6054L56.3975 48.0796L56.3948 48.0839L57.2481 48.6054ZM55.2711 50.5824L55.7809 51.4428L55.7925 51.4357L55.2711 50.5824ZM52.5669 50.3096C51.3319 50.3096 50.2958 49.8842 49.4058 49.0068L48.0017 50.431C49.2629 51.6745 50.8022 52.3096 52.5669 52.3096V50.3096ZM49.4159 49.0168C48.5384 48.1268 48.1131 47.0907 48.1131 45.8558H46.1131C46.1131 47.6204 46.7482 49.1597 47.9917 50.421L49.4159 49.0168ZM48.1131 45.8558C48.1131 44.6393 48.5358 43.6203 49.4109 42.7452L47.9967 41.331C46.7508 42.5768 46.1131 44.1029 46.1131 45.8558H48.1131ZM49.4058 42.7502C50.2958 41.8727 51.3319 41.4474 52.5669 41.4474V39.4474C50.8022 39.4474 49.2629 40.0825 48.0017 41.326L49.4058 42.7502ZM52.5669 41.4474C53.7479 41.4474 54.7738 41.8668 55.6875 42.7551L57.0816 41.3211C55.8137 40.0884 54.2946 39.4474 52.5669 39.4474V41.4474ZM55.6875 42.7551C56.59 43.6325 57.0207 44.6486 57.0207 45.8558H59.0207C59.0207 44.0936 58.3607 42.5646 57.0816 41.3211L55.6875 42.7551ZM57.0207 45.8558C57.0207 46.6739 56.8128 47.4078 56.3975 48.0796L58.0987 49.1312C58.7135 48.1366 59.0207 47.0373 59.0207 45.8558H57.0207ZM56.3948 48.0839C55.9776 48.7667 55.4323 49.3119 54.7496 49.7291L55.7925 51.4357C56.746 50.853 57.5187 50.0803 58.1014 49.1268L56.3948 48.0839ZM54.7613 49.7221C54.1032 50.1121 53.3789 50.3096 52.5669 50.3096V52.3096C53.7243 52.3096 54.8028 52.0223 55.7809 51.4427L54.7613 49.7221Z" fill="#121519"></path></svg> 