
<?xml version="1.0" encoding="UTF-8"?> <svg xmlns="http://www.w3.org/2000/svg" width="53" height="52" viewBox="0 0 53 52" fill="none"><circle cx="26.5" cy="26" r="26" fill="#FFDA44"></circle><g clip-path="url(#clip0_5008_31622)"><path d="M13.1217 38.4349C13.1217 38.4349 14.5652 34.1044 17.4521 34.1044C20.3391 34.1044 17.4521 39.8784 20.3391 39.8784C23.226 39.8784 23.226 35.5479 26.1131 35.5479C27.5565 35.5479 29 36.9914 29 36.9914" stroke="black" stroke-width="2" stroke-miterlimit="10" stroke-linecap="round" stroke-linejoin="round"></path><path d="M39.1045 22.5565V2.34766H18.8956C18.1298 2.34766 17.3958 2.65151 16.8545 3.19354C16.3125 3.73484 16.0086 4.46887 16.0086 5.23461C16.0086 7.75346 16.0086 11.0086 16.0086 11.0086H10.2346C9.46889 11.0086 8.73487 11.3124 8.19356 11.8545C7.65153 12.3958 7.34768 13.1298 7.34768 13.8955C7.34768 22.2159 7.34768 45.6523 7.34768 45.6523H39.1045V31.2174" stroke="black" stroke-width="2" stroke-miterlimit="10" stroke-linecap="round" stroke-linejoin="round"></path><path d="M29 36.9914V36.9907C29 34.2185 30.1014 31.5595 32.0616 29.5992C37.0359 24.625 46.3219 15.3391 46.3219 15.3391L50.6524 19.6695C50.6524 19.6695 41.3664 28.9555 36.3921 33.9298C34.4318 35.8901 31.7729 36.9914 29.0007 36.9914C29 36.9914 29 36.9914 29 36.9914Z" stroke="black" stroke-width="2" stroke-miterlimit="10" stroke-linecap="round" stroke-linejoin="round"></path><path d="M23.2261 29.774L17.4522 19.6695L23.2261 21.113L29.0001 19.6695L23.2261 29.774Z" stroke="black" stroke-width="2" stroke-miterlimit="10" stroke-linecap="round" stroke-linejoin="round"></path><path d="M23.2261 9.56506L17.4522 19.6695L23.2261 21.113L29.0001 19.6695L23.2261 9.56506Z" stroke="black" stroke-width="2" stroke-miterlimit="10" stroke-linecap="round" stroke-linejoin="round"></path><path d="M7.34768 13.8955C7.34768 12.0472 8.0817 10.2746 9.38875 8.96743C10.7695 7.58671 12.5867 5.76945 13.9675 4.38873C15.2746 3.08168 17.0472 2.34766 18.8956 2.34766H18.8941C17.3005 2.34766 16.0086 3.63952 16.0086 5.23317V11.0086H10.2346C9.46889 11.0086 8.73487 11.3124 8.19356 11.8545C7.65153 12.3958 7.34768 13.1298 7.34768 13.8955Z" stroke="black" stroke-width="2" stroke-miterlimit="10" stroke-linecap="round" stroke-linejoin="round"></path></g><defs><clipPath id="clip0_5008_31622"><rect width="46" height="46" fill="white" transform="translate(6 1)"></rect></clipPath></defs></svg> 