
<?xml version="1.0" encoding="UTF-8"?> <svg xmlns="http://www.w3.org/2000/svg" width="101" height="101" viewBox="0 0 101 101" fill="none"><g clip-path="url(#clip0_4461_18082)"><path d="M76.4682 4.48722H13.2896C9.05008 4.48722 5.60928 7.95875 5.60928 12.1676V81.8438C5.60928 86.0833 9.0808 89.5241 13.2896 89.5241H54.9172C54.4563 68.8179 61.5223 28.6343 76.4836 4.42578L76.4682 4.48722Z" fill="#0F80CC"></path><path d="M74.164 6.74609H13.2895C11.8445 6.75015 10.4598 7.32596 9.43807 8.34773C8.4163 9.3695 7.84048 10.7542 7.83643 12.1991V76.7909C21.6303 71.4915 42.3212 66.9294 56.6374 67.1444C61.0509 46.6226 66.9129 26.4393 74.1793 6.74609H74.164Z" fill="url(#paint0_linear_4461_18082)"></path><path d="M91.2146 2.21348C86.8828 -1.6267 81.6448 -0.0906247 76.4683 4.48687L74.1642 6.72953C65.3164 16.0996 57.2674 33.4879 54.5639 46.7749C55.5271 48.8792 56.2883 51.0703 56.8373 53.3186L57.1752 54.8546L57.5132 56.4214C57.5132 56.4214 57.4364 56.1142 57.1138 55.1926L56.8987 54.5781C56.8556 54.4643 56.8095 54.3516 56.7605 54.2402C55.8796 52.3982 54.9213 50.5943 53.888 48.8332C53.3292 50.4666 52.8017 52.1105 52.3059 53.764C54.3335 57.4813 55.5623 63.8406 55.5623 63.8406C55.5623 63.8406 55.4548 63.4259 54.9479 61.9974C54.4871 60.7224 52.2444 56.7747 51.7222 55.8531C50.8005 59.2324 50.4472 61.5058 50.7698 62.0588C51.3842 63.1341 51.9987 65.131 52.5363 67.0357C53.3658 70.4135 54.0424 73.827 54.5639 77.2659L54.6407 78.2183C54.4815 82.0595 54.5584 85.907 54.8711 89.7388C55.2705 94.5467 56.0232 98.6787 56.9755 100.891L57.6207 100.537C56.2382 96.1749 55.6545 90.4761 55.9003 83.8864C56.2843 73.8251 58.5884 61.6901 62.874 49.0483C70.1397 29.8013 80.1548 14.4713 89.3405 7.15963C80.969 14.7171 69.6481 39.1713 66.2688 48.2188C62.4747 58.3569 59.7865 67.8805 58.1583 76.9894C60.954 68.4489 69.9861 64.7623 69.9861 64.7623C69.9861 64.7623 74.4407 59.2939 79.6019 51.4753L69.6942 54.1173L66.4992 55.5305C66.4992 55.5305 74.6403 50.569 81.6602 48.311C91.2914 33.1499 101.783 11.5989 91.2146 2.19812" fill="#003B57"></path></g><g style="mix-blend-mode:hue"><rect x="0.5" width="100" height="100" fill="white"></rect></g><defs><linearGradient id="paint0_linear_4461_18082" x1="46.1" y1="8.17464" x2="46.1" y2="72.9047" gradientUnits="userSpaceOnUse"><stop stop-color="#97D9F6"></stop><stop offset="0.92024" stop-color="#0F80CC"></stop><stop offset="1" stop-color="#0F80CC"></stop></linearGradient><clipPath id="clip0_4461_18082"><rect width="90.2496" height="100.896" fill="white" transform="translate(5.5)"></rect></clipPath></defs></svg> 