
<?xml version="1.0" encoding="UTF-8"?> <svg xmlns="http://www.w3.org/2000/svg" width="53" height="52" viewBox="0 0 53 52" fill="none"><circle cx="26.5" cy="26" r="26" fill="#FFDA44"></circle><path fill-rule="evenodd" clip-rule="evenodd" d="M26.5 50C39.7548 50 50.5 39.2548 50.5 26C50.5 12.7452 39.7548 2 26.5 2C13.2452 2 2.5 12.7452 2.5 26C2.5 39.2548 13.2452 50 26.5 50ZM26.5 52C40.8594 52 52.5 40.3594 52.5 26C52.5 11.6406 40.8594 0 26.5 0C12.1406 0 0.5 11.6406 0.5 26C0.5 40.3594 12.1406 52 26.5 52Z" fill="black"></path><path fill-rule="evenodd" clip-rule="evenodd" d="M19.4206 8.6096C19.6363 9.11806 19.3989 9.70503 18.8904 9.92065C12.4582 12.6483 8.5 18.5278 8.5 26C8.5 33.2321 12.7651 39.4701 18.9215 42.3319C19.4224 42.5647 19.6396 43.1594 19.4068 43.6603C19.174 44.1611 18.5793 44.3783 18.0785 44.1455C11.2428 40.9679 6.5 34.0389 6.5 26C6.5 17.7446 10.9203 11.1281 18.1096 8.07937C18.618 7.86376 19.205 8.10115 19.4206 8.6096Z" fill="black"></path><path fill-rule="evenodd" clip-rule="evenodd" d="M33.5794 8.6096C33.3637 9.11806 33.6011 9.70503 34.1096 9.92065C40.5418 12.6483 44.5 18.5278 44.5 26C44.5 33.2321 40.2349 39.4701 34.0785 42.3319C33.5776 42.5647 33.3604 43.1594 33.5932 43.6603C33.826 44.1611 34.4207 44.3783 34.9215 44.1455C41.7572 40.9679 46.5 34.0389 46.5 26C46.5 17.7446 42.0797 11.1281 34.8904 8.07937C34.382 7.86376 33.795 8.10115 33.5794 8.6096Z" fill="black"></path><path d="M25.1667 39V14H26.8333V39H25.1667ZM30.7764 21.5C30.6545 20.5104 30.1599 19.7422 29.2927 19.1953C28.4255 18.6484 27.3618 18.375 26.1016 18.375C25.1802 18.375 24.374 18.5182 23.6829 18.8047C22.9986 19.0911 22.4634 19.485 22.0772 19.9863C21.6978 20.4876 21.5081 21.0573 21.5081 21.6953C21.5081 22.2292 21.6402 22.6882 21.9045 23.0723C22.1755 23.4499 22.521 23.7656 22.9411 24.0195C23.3611 24.2669 23.8015 24.472 24.2622 24.6348C24.7229 24.791 25.1463 24.918 25.5325 25.0156L27.6463 25.5625C28.1883 25.6992 28.7913 25.888 29.4553 26.1289C30.126 26.3698 30.7663 26.6986 31.376 27.1152C31.9925 27.5254 32.5007 28.0527 32.9004 28.6973C33.3001 29.3418 33.5 30.1328 33.5 31.0703C33.5 32.151 33.2053 33.1276 32.6159 34C32.0332 34.8724 31.1795 35.5658 30.0549 36.0801C28.937 36.5944 27.5786 36.8516 25.9797 36.8516C24.4892 36.8516 23.1985 36.6204 22.1077 36.1582C21.0237 35.696 20.1701 35.0514 19.5467 34.2246C18.9302 33.3978 18.5813 32.4375 18.5 31.3438H21.1016C21.1694 32.099 21.4336 32.724 21.8943 33.2188C22.3618 33.707 22.9512 34.0716 23.6626 34.3125C24.3808 34.5469 25.1531 34.6641 25.9797 34.6641C26.9417 34.6641 27.8056 34.5143 28.5711 34.2148C29.3367 33.9089 29.9431 33.4857 30.3902 32.9453C30.8374 32.3984 31.061 31.7604 31.061 31.0312C31.061 30.3672 30.8679 29.8268 30.4817 29.4102C30.0955 28.9935 29.5874 28.6549 28.9573 28.3945C28.3272 28.1341 27.6463 27.9063 26.9146 27.7109L24.3537 27.0078C22.7276 26.5586 21.4404 25.9173 20.4919 25.084C19.5434 24.2507 19.0691 23.1602 19.0691 21.8125C19.0691 20.6927 19.3841 19.7161 20.0142 18.8828C20.6511 18.043 21.5047 17.3919 22.5752 16.9297C23.6524 16.4609 24.855 16.2266 26.1829 16.2266C27.5244 16.2266 28.7168 16.4577 29.7602 16.9199C30.8035 17.3757 31.6301 18.0007 32.2398 18.7949C32.8564 19.5892 33.1816 20.4909 33.2154 21.5H30.7764Z" fill="black"></path></svg> 