
<?xml version="1.0" encoding="UTF-8"?> <svg xmlns="http://www.w3.org/2000/svg" width="100" height="100" viewBox="0 0 100 100" fill="none"><g clip-path="url(#clip0_4461_18124)"><path d="M22.0724 0H77.0428C79.7177 0 82.315 0.426428 84.8348 1.31805C88.4788 2.6361 91.7739 4.96207 94.255 7.98583C96.7748 11.0096 98.4417 14.7311 99.0232 18.6078C99.2558 20.0421 99.2946 21.4764 99.2946 22.9108V76.5244C99.2946 78.2301 99.217 79.9746 98.8681 81.6415C98.0928 85.4794 96.2708 89.0846 93.6347 91.9921C91.0374 94.8995 87.6259 97.0704 83.9432 98.2334C81.6947 98.9312 79.3688 99.2413 77.004 99.2413C75.9573 99.2413 21.9173 99.2413 21.1032 99.2026C17.1491 99.0088 13.2337 97.7295 9.93859 95.5198C6.721 93.3489 4.0849 90.3251 2.37919 86.8362C0.906073 83.8512 0.169516 80.5173 0.169516 77.1834V22.0579C0.0919838 18.7628 0.789774 15.5065 2.22412 12.5602C3.89107 9.07128 6.4884 6.00875 9.70599 3.83785C13.0011 1.58941 16.8777 0.271363 20.8319 0.0775323C21.2195 0 21.646 0 22.0724 0Z" fill="url(#paint0_linear_4461_18124)"></path><path d="M83.7495 81.1763C83.4007 80.6336 83.013 80.0909 82.5866 79.5869C81.6174 78.4239 80.4932 77.416 79.2527 76.5632C77.702 75.5165 75.88 74.8574 74.0192 74.7799C72.7012 74.7024 71.3831 74.935 70.1426 75.4002C68.9021 75.8266 67.7004 76.4469 66.5374 77.0671C65.1806 77.7649 63.8237 78.4627 62.3894 79.0442C60.6837 79.742 58.9004 80.2847 57.0784 80.6724C54.7912 81.0988 52.4653 81.2539 50.1781 81.2151C46.0301 81.1376 41.8821 80.5173 37.9279 79.3543C34.439 78.3076 31.1051 76.8733 27.965 75.0513C25.2126 73.4619 22.6541 71.6399 20.2506 69.5853C18.2735 67.8795 16.4515 66.0575 14.7458 64.1192C13.5828 62.7624 12.4586 61.3281 11.4119 59.8549C10.9855 59.2734 10.5978 58.6532 10.2489 58.0329L0.0146484 46.9846V21.9804C0.0146484 9.8466 9.82248 0 21.9563 0H41.5332L56.0317 14.7311C88.7504 36.9829 78.1672 61.5219 78.1672 61.5219C78.1672 61.5219 87.4711 71.9887 83.7495 81.1763Z" fill="url(#paint1_linear_4461_18124)"></path><path d="M56.1091 14.7324C88.8278 36.9842 78.2446 61.5232 78.2446 61.5232C78.2446 61.5232 87.5485 72.0288 83.7882 81.2164C83.7882 81.2164 79.9503 74.7812 73.5151 74.7812C67.3126 74.7812 63.6685 81.2164 51.1858 81.2164C23.3905 81.2164 10.2488 57.9955 10.2488 57.9955C35.2917 74.4711 52.3876 62.8025 52.3876 62.8025C41.1066 56.251 17.1104 24.9279 17.1104 24.9279C38.0053 42.7216 47.0379 47.4123 47.0379 47.4123C41.6494 42.9542 26.5306 21.1676 26.5306 21.1676C38.6256 33.4177 62.6606 50.5136 62.6606 50.5136C69.4835 31.5957 56.1091 14.7324 56.1091 14.7324Z" fill="white"></path></g><g style="mix-blend-mode:hue"><rect width="100" height="100" fill="white"></rect></g><defs><linearGradient id="paint0_linear_4461_18124" x1="59.0518" y1="-3.54129" x2="40.3018" y2="102.795" gradientUnits="userSpaceOnUse"><stop stop-color="#FAAE42"></stop><stop offset="1" stop-color="#EF3E31"></stop></linearGradient><linearGradient id="paint1_linear_4461_18124" x1="50.6479" y1="1.60337" x2="36.9251" y2="79.4291" gradientUnits="userSpaceOnUse"><stop stop-color="#E39F3A"></stop><stop offset="1" stop-color="#D33929"></stop></linearGradient><clipPath id="clip0_4461_18124"><rect width="99.281" height="99.2413" fill="white" transform="translate(0.0146484)"></rect></clipPath></defs></svg> 