
<?xml version="1.0" encoding="UTF-8"?> <svg xmlns="http://www.w3.org/2000/svg" width="48" height="48" viewBox="0 0 48 48" fill="none"><g clip-path="url(#clip0_3995_16606)"><circle cx="24" cy="24" r="24" fill="#FFDA44"></circle><g clip-path="url(#clip1_3995_16606)"><path d="M37.6337 18.1995H34.4337C34.1393 18.1995 33.9004 17.9605 33.9004 17.6661C33.9004 17.3717 34.1393 17.1328 34.4337 17.1328H37.6337C37.9281 17.1328 38.1671 17.3717 38.1671 17.6661C38.1671 17.9605 37.9281 18.1995 37.6337 18.1995Z" fill="#121519"></path><path d="M30.1667 47.1513H41.9C43.4538 47.1513 44.7167 45.8873 44.7167 44.3346V26.2013C44.7167 25.8241 44.4106 25.518 44.0333 25.518C43.6561 25.518 43.35 25.8241 43.35 26.2013V44.3346C43.35 45.1339 42.6993 45.7846 41.9 45.7846H30.1667C29.3674 45.7846 28.7167 45.1339 28.7167 44.3346V26.2013C28.7167 25.8241 28.4106 25.518 28.0333 25.518C27.6561 25.518 27.35 25.8241 27.35 26.2013V44.3346C27.35 45.8873 28.6129 47.1513 30.1667 47.1513Z" fill="#121519" stroke="#121519" stroke-width="0.3"></path><path d="M43.35 29.4C43.35 29.7772 43.6561 30.0833 44.0333 30.0833C44.4106 30.0833 44.7167 29.7772 44.7167 29.4V17.6667C44.7167 16.114 43.4538 14.85 41.9 14.85H30.1667C28.6129 14.85 27.35 16.114 27.35 17.6667V29.4C27.35 29.7772 27.6561 30.0833 28.0333 30.0833C28.4106 30.0833 28.7167 29.7772 28.7167 29.4V17.6667C28.7167 16.8674 29.3674 16.2167 30.1667 16.2167H41.9C42.6993 16.2167 43.35 16.8674 43.35 17.6667V29.4Z" fill="#121519" stroke="#121519" stroke-width="0.3"></path><path d="M28 36H5C2.79086 36 1 34.2091 1 32V5C1 2.79086 2.79086 1 5 1H43C45.2091 1 47 2.79086 47 5V33C47 34.6569 45.6569 36 44 36V36" stroke="#121519" stroke-width="1.5"></path><rect x="1" y="6" width="46" height="1.5" fill="#121519"></rect><circle cx="6" cy="4" r="1" fill="#121519"></circle><circle cx="10" cy="4" r="1" fill="#121519"></circle><circle cx="14" cy="4" r="1" fill="#121519"></circle><path d="M21 39.4996C21 39.4521 20.9959 39.4033 20.9851 39.3558C20.9064 38.9893 20.5454 38.7573 20.1789 38.836L18.1025 39.2838C17.8474 39.3381 17.6479 39.5349 17.5868 39.7873C17.4321 40.4279 17.1715 41.0522 16.8119 41.6425C16.6761 41.861 16.6802 42.142 16.8186 42.3605L17.6777 43.704L16.839 44.536L15.5063 43.6769C15.2878 43.5358 15.0069 43.533 14.7856 43.6674C14.1953 44.027 13.571 44.2876 12.9304 44.441C12.678 44.502 12.4826 44.7002 12.4256 44.954L12.0822 46.5011H10.9191L10.5758 44.9553C10.5188 44.7015 10.3234 44.5034 10.0709 44.4423C9.43036 44.289 8.80607 44.027 8.21571 43.6688C7.9945 43.533 7.71493 43.5358 7.49643 43.6769L6.1515 44.5373L5.32093 43.7068L6.18136 42.3618C6.32114 42.1433 6.32386 41.8638 6.18814 41.6439C5.8285 41.0522 5.56793 40.4279 5.41321 39.7887C5.35214 39.5349 5.15129 39.3395 4.8975 39.2852L3.35714 38.9513V38.3583C3.35714 37.9837 3.05314 37.6797 2.67857 37.6797C2.304 37.6797 2 37.9837 2 38.3583L2 39.4983C2 39.8172 2.22393 40.094 2.53607 40.1605L4.20943 40.5229C4.36007 41.0196 4.56364 41.5068 4.81743 41.9764L3.88507 43.434C3.71407 43.7027 3.75207 44.0528 3.97736 44.2795L5.57879 45.8823C5.80407 46.1075 6.15557 46.1455 6.42429 45.9732L7.88186 45.0408C8.35279 45.2946 8.84 45.4982 9.33807 45.6488L9.70993 47.3249C9.77914 47.637 10.056 47.8583 10.3736 47.8583H12.6264C12.944 47.8583 13.2209 47.637 13.2887 47.3263L13.6606 45.6502C14.1586 45.4995 14.6459 45.296 15.1154 45.0422L16.5594 45.9732C16.8268 46.1469 17.1796 46.1103 17.4049 45.885L19.0199 44.2822C19.2466 44.0555 19.2846 43.704 19.1136 43.4353L18.1812 41.9778C18.435 41.5068 18.6386 41.021 18.7892 40.5243L20.4626 40.1619C20.7829 40.0927 21 39.8104 21 39.4996Z" fill="#121519"></path><path d="M15.0004 40.2465C15.0004 40.0293 14.8946 39.8149 14.7005 39.6833C14.3897 39.4743 13.9677 39.5571 13.7587 39.8692C13.2511 40.6224 12.4069 41.073 11.5017 41.073C10.0048 41.073 8.78744 39.8556 8.78744 38.3587C8.78744 38.1741 8.80644 37.9909 8.84173 37.8158C8.91501 37.4521 8.68158 37.0898 8.31244 37.0138C7.94465 36.9391 7.58637 37.1753 7.51173 37.5431C7.4588 37.8091 7.4303 38.0832 7.4303 38.3587C7.4303 40.6034 9.25701 42.4301 11.5017 42.4301C12.8602 42.4301 14.1251 41.7556 14.8851 40.6238C14.9624 40.5084 15.0004 40.3768 15.0004 40.2465Z" fill="#121519"></path></g></g><defs><clipPath id="clip0_3995_16606"><rect width="48" height="48" fill="white"></rect></clipPath><clipPath id="clip1_3995_16606"><rect width="48" height="48" fill="white"></rect></clipPath></defs></svg> 