
<?xml version="1.0" encoding="UTF-8"?> <svg xmlns="http://www.w3.org/2000/svg" width="53" height="52" viewBox="0 0 53 52" fill="none"><circle cx="26.5" cy="26" r="26" fill="#FFDA44"></circle><g clip-path="url(#clip0_3995_16758)"><path d="M32.6182 32.2991H20.1516C19.7418 32.3028 19.3386 32.4026 18.9743 32.5904C18.6101 32.7782 18.295 33.0489 18.0543 33.3806C17.7603 33.7787 17.5625 34.2393 17.4762 34.7266C17.3899 35.2139 17.4175 35.7145 17.5568 36.1893L18.1319 38.1792C18.2776 38.7618 18.6103 39.2805 19.0789 39.6561C19.5476 40.0316 20.1263 40.2433 20.7267 40.2586H32.0432C32.643 40.2426 33.2211 40.0307 33.6891 39.6552C34.1572 39.2797 34.4894 38.7613 34.635 38.1792L35.21 36.1893C35.3494 35.7145 35.377 35.2139 35.2907 34.7266C35.2044 34.2393 35.0065 33.7787 34.7126 33.3806C34.4722 33.0493 34.1576 32.7789 33.7939 32.5911C33.4302 32.4033 33.0275 32.3033 32.6182 32.2991ZM33.2988 35.6361L32.7237 37.626C32.6925 37.7911 32.6099 37.9421 32.4876 38.0574C32.3654 38.1726 32.2098 38.2463 32.0432 38.2677H20.7267C20.5599 38.2462 20.4042 38.1724 20.282 38.057C20.1597 37.9415 20.0771 37.7903 20.0461 37.625L19.4711 35.6351C19.4179 35.4568 19.4059 35.2688 19.436 35.0852C19.4662 34.9017 19.5377 34.7274 19.6452 34.5755C19.7013 34.4914 19.7763 34.4217 19.8643 34.3719C19.9523 34.3222 20.0507 34.2938 20.1516 34.289H32.6182C32.7193 34.2939 32.8177 34.3224 32.9057 34.3724C32.9937 34.4223 33.0687 34.4922 33.1247 34.5765C33.2321 34.7284 33.3036 34.9027 33.3338 35.0862C33.364 35.2698 33.352 35.4578 33.2988 35.6361Z" fill="#121519"></path><path d="M7.47991 29.3142H45.2877C45.4577 29.3143 45.6248 29.2708 45.7733 29.1879C45.9217 29.105 46.0464 28.9855 46.1355 28.8407C46.2246 28.696 46.2751 28.5308 46.2822 28.3609C46.2893 28.1911 46.2528 28.0223 46.1762 27.8705L40.7537 17.1351C40.5166 16.6133 40.1343 16.1708 39.6525 15.8605C39.1707 15.5501 38.6097 15.3851 38.0365 15.385H14.731C14.1646 15.3837 13.6096 15.5442 13.1314 15.8478C12.6532 16.1513 12.2716 16.5852 12.0318 17.0983L6.59143 27.8705C6.51476 28.0223 6.47825 28.1911 6.48537 28.3609C6.49249 28.5308 6.54301 28.696 6.63211 28.8407C6.72121 28.9855 6.84591 29.105 6.99433 29.1879C7.14274 29.2708 7.30992 29.3143 7.47991 29.3142ZM13.8256 17.9579C13.9047 17.7841 14.0321 17.6367 14.1926 17.5333C14.3532 17.43 14.5401 17.375 14.731 17.3749H38.0365C38.2341 17.3771 38.4267 17.437 38.5907 17.5471C38.7547 17.6572 38.883 17.8128 38.9599 17.9947L43.6709 27.3243H9.09669L13.8256 17.9579Z" fill="#121519"></path><path d="M10.963 32.2991H7.48073C6.95298 32.2991 6.44684 32.5087 6.07367 32.8819C5.70049 33.2551 5.49084 33.7612 5.49084 34.289V36.7763C5.49084 37.3041 5.70049 37.8102 6.07367 38.1834C6.44684 38.5565 6.95298 38.7662 7.48073 38.7662H15.4403C15.7041 38.7662 15.9572 38.6614 16.1438 38.4748C16.3304 38.2882 16.4352 38.0351 16.4352 37.7712C16.4336 36.3204 15.8566 34.9295 14.8307 33.9036C13.8048 32.8777 12.4138 32.3007 10.963 32.2991ZM7.48073 36.7763V34.289H10.963C11.7127 34.2898 12.4422 34.5322 13.0433 34.9802C13.6444 35.4283 14.0851 36.0581 14.3001 36.7763H7.48073Z" fill="#121519"></path><path d="M47.2796 36.7763V34.289C47.2796 33.7612 47.0699 33.2551 46.6967 32.8819C46.3236 32.5087 45.8174 32.2991 45.2897 32.2991H41.8074C40.3566 32.3007 38.9656 32.8777 37.9397 33.9036C36.9138 34.9295 36.3368 36.3204 36.3352 37.7712C36.3352 38.0351 36.44 38.2882 36.6266 38.4748C36.8132 38.6614 37.0663 38.7662 37.3301 38.7662H45.2897C45.8174 38.7662 46.3236 38.5565 46.6967 38.1834C47.0699 37.8102 47.2796 37.3041 47.2796 36.7763ZM41.8074 34.289H45.2897V36.7763H38.4703C38.6853 36.0581 39.126 35.4283 39.7271 34.9802C40.3282 34.5322 41.0577 34.2898 41.8074 34.289Z" fill="#121519"></path><path d="M48.0248 20.3596H45.8628L43.667 15.5013C43.1139 14.2813 42.2214 13.2463 41.0959 12.5199C39.9705 11.7935 38.6597 11.4065 37.3202 11.4051H37.0904L35.0816 4.17385C35.0234 3.96448 34.8982 3.77993 34.7251 3.64841C34.5521 3.51689 34.3408 3.44565 34.1235 3.44556H18.6462C18.4288 3.44565 18.2175 3.51689 18.0445 3.64841C17.8715 3.77993 17.7463 3.96448 17.688 4.17385L15.6793 11.4051H15.4494C14.1099 11.4065 12.7992 11.7935 11.6737 12.5199C10.5483 13.2463 9.65573 14.2813 9.1027 15.5013L6.90686 20.3596H4.74486C1.62373 20.3596 0.516357 22.1017 0.516357 23.5931C0.517411 24.4504 0.858426 25.2722 1.46461 25.8784C2.07079 26.4846 2.89265 26.8256 3.74992 26.8267H3.98373L3.30717 28.3191C2.77718 29.4872 2.50406 30.7555 2.50624 32.0382V40.2584C2.50961 41.3274 2.86056 42.3663 3.50616 43.2183C3.50616 43.2273 3.50118 43.2342 3.50118 43.2432V46.228C3.50118 47.0196 3.81565 47.7788 4.37541 48.3386C4.93518 48.8984 5.69438 49.2128 6.486 49.2128H10.4658C11.2574 49.2128 12.0166 48.8984 12.5764 48.3386C13.1361 47.7788 13.4506 47.0196 13.4506 46.228V45.2331H39.3191V46.228C39.3191 47.0196 39.6335 47.7788 40.1933 48.3386C40.7531 48.8984 41.5123 49.2128 42.3039 49.2128H46.2836C47.0753 49.2128 47.8345 48.8984 48.3942 48.3386C48.954 47.7788 49.2685 47.0196 49.2685 46.228V43.2432C49.2685 43.2342 49.2635 43.2273 49.2635 43.2183C49.9091 42.3663 50.26 41.3274 50.2634 40.2584V32.0382C50.2672 30.7558 49.9957 29.4876 49.4675 28.3191L48.7909 26.8267H49.0247C49.8811 26.8243 50.7017 26.4827 51.3068 25.8767C51.9119 25.2706 52.2522 24.4495 52.2533 23.5931C52.2533 22.1017 51.1459 20.3596 48.0248 20.3596ZM2.50624 23.5931C2.50624 22.4708 4.07228 22.3494 4.74486 22.3494H5.94973L4.84435 24.8368H3.74992C3.42023 24.8363 3.10421 24.7051 2.87109 24.4719C2.63796 24.2388 2.50677 23.9228 2.50624 23.5931ZM19.4023 5.43544H33.3673L35.0259 11.4051H17.7438L19.4023 5.43544ZM11.4607 46.228C11.4607 46.4919 11.3559 46.745 11.1693 46.9316C10.9827 47.1181 10.7296 47.223 10.4658 47.223H6.486C6.22213 47.223 5.96906 47.1181 5.78247 46.9316C5.59589 46.745 5.49106 46.4919 5.49106 46.228V44.8112C6.11777 45.0888 6.79552 45.2325 7.48094 45.2331H11.4607V46.228ZM7.48094 43.2432C6.68932 43.2432 5.93012 42.9287 5.37036 42.369C4.81059 41.8092 4.49612 41.05 4.49612 40.2584V32.0382C4.49469 31.0399 4.70742 30.0529 5.11995 29.1439L10.9165 16.3201C11.3115 15.4488 11.949 14.7097 12.7528 14.191C13.5566 13.6723 14.4928 13.3959 15.4494 13.395H37.3202C38.277 13.3959 39.2133 13.6723 40.0171 14.1912C40.821 14.7101 41.4584 15.4496 41.8532 16.3211L47.6497 29.1439C48.0622 30.0529 48.275 31.0399 48.2735 32.0382V40.2584C48.2735 41.05 47.9591 41.8092 47.3993 42.369C46.8395 42.9287 46.0803 43.2432 45.2887 43.2432H7.48094ZM46.2836 47.223H42.3039C42.04 47.223 41.7869 47.1181 41.6004 46.9316C41.4138 46.745 41.3089 46.4919 41.3089 46.228V45.2331H45.2887C45.9741 45.2325 46.6519 45.0888 47.2786 44.8112V46.228C47.2786 46.4919 47.1738 46.745 46.9872 46.9316C46.8006 47.1181 46.5475 47.223 46.2836 47.223ZM49.0197 24.8368H47.9253L46.8199 22.3494H48.0248C48.6974 22.3494 50.2634 22.4708 50.2634 23.5931C50.2629 23.9228 50.1317 24.2388 49.8986 24.4719C49.6654 24.7051 49.3494 24.8363 49.0197 24.8368Z" fill="#121519"></path><path d="M21.4099 8.42017H23.3997V10.41H21.4099V8.42017Z" fill="#121519"></path><path d="M23.3992 6.42993H25.3891V8.41981H23.3992V6.42993Z" fill="#121519"></path><path d="M25.3885 8.42017H27.3784V10.41H25.3885V8.42017Z" fill="#121519"></path><path d="M27.3799 6.42993H29.3698V8.41981H27.3799V6.42993Z" fill="#121519"></path><path d="M29.3693 8.42017H31.3592V10.41H29.3693V8.42017Z" fill="#121519"></path></g><defs><clipPath id="clip0_3995_16758"><rect width="51.9992" height="46.3265" fill="white" transform="translate(0.5 3.00024)"></rect></clipPath></defs></svg> 