
<?xml version="1.0" encoding="UTF-8"?> <svg xmlns="http://www.w3.org/2000/svg" width="60" height="52" viewBox="0 0 60 52" fill="none"><path d="M9.1619 9.76896L17.1609 13.6336C17.1609 13.6336 18.1878 8.10502 23.8088 8.10502C26.6733 8.10502 29.3216 10.1984 29.3216 13.0432C29.3216 16.2637 26.6733 18.6254 23.9709 18.6254H21.755V25.2275C21.755 25.2275 22.6197 24.9055 23.7007 24.9055C27.2678 24.9055 30.1323 27.5893 30.1323 31.4002C30.1323 35.1575 27.4299 37.2509 23.7007 37.2509C16.9988 37.2509 16.4043 30.4877 16.4043 30.4877L7 35.0502C7 35.0502 10.0267 45.9463 23.7547 45.9463C33.3211 45.9463 40.2932 39.881 40.2932 31.4002C40.2932 26.7305 38.0773 23.3489 34.6183 21.2555C37.0504 19.3769 38.5637 16.5858 38.5637 12.9358C38.5637 5.42124 32.4023 0 23.9169 0C11.4319 0 9.1619 9.76896 9.1619 9.76896Z" fill="#FFDA44"></path><path d="M51.4291 33.7083C48.0242 33.7083 45.2677 36.4457 45.2677 39.881C45.2677 43.2625 48.0242 46 51.4291 46C54.8882 46 57.6446 43.2625 57.6446 39.881C57.6446 36.4457 54.8882 33.7083 51.4291 33.7083Z" fill="#FFDA44"></path><path fill-rule="evenodd" clip-rule="evenodd" d="M9.04549 7.01612C11.2491 4.47233 15.0272 2 21.2672 2C29.7735 2 36.1919 7.52394 36.1919 15.3681C36.1919 18.6385 35.0197 21.2878 33.0611 23.2288C35.9975 25.4303 37.8374 28.7213 37.8374 33.0394C37.8374 41.8137 30.6415 47.9486 21.1129 47.9486C14.279 47.9486 10.0338 45.2052 7.50963 42.4081C6.25808 41.0212 5.44112 39.6351 4.93563 38.5927C4.68253 38.0707 4.5063 37.6324 4.39194 37.3196C4.33472 37.1631 4.29289 37.0378 4.26459 36.9487C4.25043 36.9042 4.23965 36.8687 4.23201 36.8429L4.22288 36.8116L4.22002 36.8016L4.21901 36.798L4.21861 36.7965C4.21844 36.7959 4.21828 36.7953 5.17159 36.5326L4.21828 36.7953L4 36.0049L14.9792 30.647L15.1042 32.0773L15.1043 32.0786L15.1045 32.0802L15.1048 32.0833C15.1055 32.0903 15.1069 32.103 15.1091 32.121C15.1134 32.1572 15.121 32.2147 15.1329 32.2905C15.1569 32.4423 15.1982 32.6658 15.2664 32.9367C15.4037 33.4824 15.6444 34.1994 16.0549 34.9072C16.8531 36.2836 18.2934 37.6509 21.0615 37.6509C22.6565 37.6509 23.9351 37.2012 24.8002 36.4444C25.6486 35.7022 26.192 34.5855 26.192 33.0394C26.192 29.9432 23.9147 27.8115 21.0615 27.8115C20.6422 27.8115 20.2565 27.8749 19.9725 27.9403C19.8322 27.9727 19.7209 28.0046 19.648 28.0272C19.6116 28.0385 19.585 28.0474 19.5695 28.0527L19.5571 28.057L19.5561 28.0573L19.5551 28.0577C19.554 28.0581 19.5534 28.0584 19.5538 28.0582L18.2213 28.5574V19.8254H21.3186C23.3436 19.8254 25.4206 18.0074 25.4206 15.4708C25.4206 13.4209 23.4802 11.7327 21.1643 11.7327C18.8842 11.7327 17.5814 12.8338 16.8105 13.951C16.4162 14.5224 16.1626 15.1002 16.008 15.5378C15.9313 15.7551 15.8804 15.9338 15.8495 16.0541C15.8341 16.1141 15.8238 16.1593 15.8177 16.187C15.8147 16.2009 15.8127 16.2104 15.8118 16.2152L15.8114 16.2167L15.8112 16.2179L15.5758 17.4925L6.08789 12.8815L6.26494 12.1151L7.22853 12.3373C6.26494 12.1151 6.26508 12.1145 6.26523 12.1139L6.26557 12.1124L6.2664 12.1089L6.26871 12.0992L6.27598 12.0697C6.28202 12.0457 6.29052 12.0129 6.3017 11.972C6.32406 11.8902 6.3572 11.7757 6.40306 11.6332C6.49471 11.3484 6.63754 10.9503 6.84721 10.4768C7.26584 9.5313 7.95568 8.27415 9.04549 7.01612ZM8.43138 11.8232L14.231 14.6417C14.4316 14.1213 14.7348 13.4778 15.182 12.8297C16.2367 11.3013 18.0964 9.75689 21.1643 9.75689C24.2993 9.75689 27.3984 12.0755 27.3984 15.4708C27.3984 19.0986 24.4359 21.8012 21.3186 21.8012H20.1991V25.8937C20.4613 25.8591 20.7525 25.8358 21.0615 25.8358C24.9961 25.8358 28.1698 28.8411 28.1698 33.0394C28.1698 35.0893 27.4275 36.7722 26.1033 37.9308C24.7958 39.0746 23.0147 39.6267 21.0615 39.6267C17.453 39.6267 15.4222 37.7576 14.3435 35.8977C13.8661 35.0746 13.5757 34.259 13.4002 33.6165L6.40164 37.0318C6.48484 37.2338 6.58864 37.4695 6.71563 37.7313C7.15826 38.6442 7.87758 39.8651 8.97866 41.0852C11.1598 43.5022 14.8852 45.9729 21.1129 45.9729C29.7882 45.9729 35.8596 40.4981 35.8596 33.0394C35.8596 28.9347 33.9484 26.0088 30.9344 24.1741L29.711 23.4293L30.8419 22.5507C32.914 20.9407 34.214 18.5578 34.214 15.3681C34.214 8.8286 28.9079 3.97578 21.2672 3.97578C15.6283 3.97578 12.387 6.17813 10.5411 8.30902C9.60607 9.38834 9.01354 10.4685 8.656 11.276C8.56677 11.4776 8.49247 11.6614 8.43138 11.8232ZM40.5926 41.1559C40.5926 37.3283 43.6523 34.2605 47.4438 34.2605C51.281 34.2605 54.3464 37.3226 54.3464 41.1559C54.3464 44.9434 51.2754 48 47.4438 48C43.6579 48 40.5926 44.9378 40.5926 41.1559ZM47.4438 36.2362C44.7559 36.2362 42.5704 38.4082 42.5704 41.1559C42.5704 43.8466 44.7502 46.0242 47.4438 46.0242C50.1944 46.0242 52.3686 43.841 52.3686 41.1559C52.3686 38.4138 50.1887 36.2362 47.4438 36.2362Z" fill="#121519"></path></svg> 