
<?xml version="1.0" encoding="UTF-8"?> <svg xmlns="http://www.w3.org/2000/svg" width="132" height="132" viewBox="0 0 132 132" fill="none"><g clip-path="url(#clip0_5008_32701)"><path d="M66 132C102.451 132 132 102.451 132 66C132 29.5492 102.451 0 66 0C29.5492 0 0 29.5492 0 66C0 102.451 29.5492 132 66 132Z" fill="#3F3F3F"></path><path d="M109.365 46.4598C105.622 43.8414 101.618 41.0499 97.7016 38.2801C97.6151 38.2152 97.5285 38.1503 97.4203 38.0853C96.9875 37.7607 96.4898 37.4145 95.8839 37.2198L95.8407 37.1981C85.3672 34.6663 74.7207 32.0696 64.4203 29.5594C55.0721 27.2873 45.7456 25.0152 36.3974 22.743C36.1594 22.6781 35.9213 22.6132 35.6617 22.5483C34.8177 22.3103 33.8439 22.0506 32.8053 22.1804C32.5023 22.2237 32.2426 22.3319 32.0046 22.4834L31.7449 22.6998C31.3338 23.0893 31.1174 23.587 31.0092 23.8683L30.9443 24.0414V25.0368L30.9876 25.1883C36.8951 41.7424 42.9541 58.5345 48.7967 74.7857C53.2977 87.2932 57.9718 100.255 62.5377 112.979C62.819 113.845 63.6197 114.407 64.6151 114.494H64.8315C65.762 114.494 66.5843 114.039 66.9954 113.304L84.1338 88.3103C88.3102 82.2296 92.4866 76.1273 96.663 70.0467C98.3725 67.5581 100.082 65.048 101.791 62.5594C104.605 58.448 107.504 54.2066 110.382 50.0735L110.534 49.8571V49.5975C110.599 48.8401 110.62 47.2821 109.365 46.4598ZM89.2839 55.5699C85.259 57.6689 81.1475 59.8329 77.0144 61.9752C79.4164 59.4001 81.84 56.8034 84.242 54.2283C87.2498 50.9824 90.3875 47.6283 93.4603 44.3391L93.5253 44.2742C93.7849 43.928 94.1095 43.6034 94.4557 43.2571C94.6938 43.0191 94.9534 42.7811 95.1915 42.4998C96.7928 43.6034 98.4157 44.7286 99.9738 45.8322C101.099 46.6329 102.246 47.4335 103.414 48.2342C98.6538 50.6578 93.8931 53.1463 89.2839 55.5699ZM78.9403 54.5312C75.8459 57.8853 72.6433 61.326 69.4623 64.7234C63.2951 57.2362 56.998 49.6407 50.8957 42.305C48.1259 38.9726 45.3344 35.6185 42.5646 32.286L42.543 32.2644C41.9154 31.5503 41.3095 30.7712 40.7036 30.0355C40.3141 29.5378 39.903 29.0617 39.4918 28.564C42.002 29.2132 44.5338 29.8191 47.0223 30.4034C49.2079 30.9227 51.48 31.4637 53.7089 32.0263C66.2597 35.0775 78.8321 38.1286 91.383 41.1798C87.2066 45.6375 83.0085 50.1601 78.9403 54.5312ZM68.0557 96.7063C68.2938 94.4342 68.5534 92.0971 68.7698 89.8034C68.9646 87.964 69.1594 86.0814 69.3541 84.2853C69.6571 81.4073 69.9816 78.4211 70.2413 75.4998L70.3062 74.9804C70.5226 73.1194 70.739 71.1935 70.8689 69.2676C71.1069 69.1378 71.3666 69.008 71.6479 68.8998C71.9725 68.7483 72.2971 68.6185 72.6216 68.4237C77.6203 65.8053 82.619 63.187 87.6393 60.5903C92.638 57.9935 97.7666 55.3103 102.852 52.6486C98.221 59.3568 93.5685 66.1299 89.0675 72.7299C85.1941 78.3778 81.2125 84.1988 77.2525 89.9332C75.6944 92.227 74.0715 94.564 72.5351 96.8145C70.8039 99.3247 69.0295 101.9 67.2984 104.475C67.5148 101.878 67.7744 99.2598 68.0557 96.7063ZM37.8905 33.6709C37.6092 32.8919 37.3062 32.0912 37.0466 31.3339C42.8892 38.3883 48.7751 45.486 54.5095 52.3673C57.4741 55.9378 60.4387 59.4867 63.4033 63.0788C63.9875 63.7496 64.5718 64.4637 65.1344 65.1562C65.8702 66.0434 66.6059 66.9739 67.4066 67.8611C67.1469 70.0899 66.9305 72.3404 66.6925 74.5044C66.541 76.0191 66.3895 77.5339 66.2164 79.0703V79.0919C66.1515 80.0657 66.0216 81.0394 65.9135 81.9916C65.762 83.3116 65.4157 86.2978 65.4157 86.2978L65.3941 86.4493C65.0046 90.8204 64.5285 95.2348 64.0741 99.5194C63.8794 101.294 63.7062 103.112 63.5115 104.929C63.4033 104.605 63.2734 104.28 63.1653 103.977C62.8407 103.112 62.5161 102.203 62.2131 101.316L59.8977 94.8886C52.562 74.4827 45.2262 54.0985 37.8905 33.6709Z" fill="white"></path></g><defs><clipPath id="clip0_5008_32701"><rect width="132" height="132" fill="white"></rect></clipPath></defs></svg> 