
<?xml version="1.0" encoding="UTF-8"?> <svg xmlns="http://www.w3.org/2000/svg" width="60" height="52" viewBox="0 0 60 52" fill="none"><path d="M5.21121 12.9358L13.5011 17.0152C13.5011 17.0152 16.5108 8.53442 21.263 8.53442C25.2759 8.53442 27.4408 11.1645 27.4408 15.6196C27.4408 23.7783 5 39.3979 5 39.3979V45.1412H38.9516V36.2847H22.7942C22.7942 36.2847 38.1596 25.979 38.1596 15.6196C38.1596 10.0373 36.2059 0 21.263 0C9.43536 0 5.21121 12.9358 5.21121 12.9358Z" fill="#FFDA44"></path><path d="M51.0395 33.7083C47.713 33.7083 45.0201 36.4457 45.0201 39.881C45.0201 43.2625 47.713 46 51.0395 46C54.4189 46 57.1117 43.2625 57.1117 39.881C57.1117 36.4457 54.4189 33.7083 51.0395 33.7083Z" fill="#FFDA44"></path><path fill-rule="evenodd" clip-rule="evenodd" d="M5.88982 8.56243C8.44121 5.32584 12.5583 2 18.6501 2C26.0778 2 30.4678 4.49485 32.9603 7.86767C35.4125 11.186 35.8931 15.1768 35.8931 17.9366C35.8931 20.6596 34.8802 23.3137 33.441 25.7205C31.9986 28.1325 30.0906 30.3586 28.2081 32.2448C26.3647 34.0918 24.5249 35.6334 23.1273 36.7262H36.6555V47.1781H2.01713V40.1727L2.44238 39.8785L2.45648 39.8687L2.50119 39.8375C2.54099 39.8098 2.60052 39.7681 2.67849 39.7132C2.83443 39.6034 3.06405 39.4408 3.35683 39.2306C3.94245 38.8102 4.78036 38.2001 5.78638 37.4434C7.79976 35.9288 10.4802 33.8316 13.157 31.4955C15.8391 29.1548 18.4916 26.5967 20.4655 24.1606C21.4523 22.9427 22.2516 21.7771 22.8004 20.703C23.3537 19.6202 23.6197 18.6938 23.6197 17.9366C23.6197 15.9544 23.1347 14.5218 22.3359 13.5969C21.5549 12.6927 20.3614 12.1436 18.6501 12.1436C17.8061 12.1436 16.98 12.5163 16.1738 13.1867C15.3658 13.8587 14.6383 14.7817 14.0199 15.7498C13.4052 16.712 12.9221 17.6811 12.5918 18.4137C12.4273 18.7786 12.3021 19.0816 12.2187 19.2915C12.1771 19.3964 12.1459 19.4778 12.1256 19.5318C12.1155 19.5588 12.1081 19.5789 12.1034 19.5917L12.0984 19.6053L12.0977 19.6075L11.7293 20.6394L2 15.8796L2.27023 15.0569L3.19794 15.3681C2.27023 15.0569 2.27007 15.0573 2.27023 15.0569L2.27199 15.0515L2.27528 15.0417L2.28646 15.0088C2.29598 14.9811 2.30964 14.9419 2.32754 14.892C2.36334 14.7923 2.41615 14.6498 2.48681 14.4706C2.62804 14.1122 2.84099 13.6061 3.13235 13.0013C3.71391 11.794 4.61415 10.1807 5.88982 8.56243ZM4.43535 14.8759L10.6669 17.9245C10.7119 17.8206 10.7606 17.7103 10.8129 17.5944C11.1688 16.8051 11.6959 15.7451 12.3774 14.6782C13.0552 13.6172 13.9097 12.511 14.9316 11.6611C15.9553 10.8098 17.2068 10.1679 18.6501 10.1679C20.8019 10.1679 22.5819 10.8774 23.8087 12.2976C25.0176 13.6973 25.5747 15.6551 25.5747 17.9366C25.5747 19.1315 25.1656 20.3803 24.5375 21.6095C23.9049 22.8475 23.0165 24.1308 21.978 25.4124C19.9014 27.9753 17.1533 30.6183 14.4348 32.9909C11.7109 35.368 8.99075 37.4959 6.95366 39.0283C5.93444 39.795 5.08465 40.4138 4.48888 40.8414C4.28614 40.9869 4.11278 41.1104 3.97211 41.21V45.2023H34.7005V38.702H16.8677L19.5856 36.8897L19.5936 36.8843L19.6222 36.865C19.6482 36.8474 19.6876 36.8206 19.7396 36.7847C19.8436 36.7131 19.9979 36.6055 20.1954 36.4644C20.5903 36.1821 21.1573 35.7661 21.8388 35.2355C23.2035 34.173 25.0195 32.6574 26.8317 30.8417C28.647 29.0228 30.4368 26.9243 31.7678 24.6985C33.102 22.4675 33.9381 20.1708 33.9381 17.9366C33.9381 15.3539 33.4782 11.8703 31.3939 9.04995C29.3499 6.28403 25.6072 3.97578 18.6501 3.97578C13.3561 3.97578 9.74712 6.84004 7.41888 9.79355C6.25473 11.2703 5.42677 12.752 4.89008 13.8661C4.70304 14.2544 4.55215 14.5964 4.43535 14.8759ZM40.5423 41.1559C40.5423 37.3283 43.5667 34.2605 47.3144 34.2605C51.1073 34.2605 54.1373 37.3226 54.1373 41.1559C54.1373 44.9434 51.1018 48 47.3144 48C43.5723 48 40.5423 44.9378 40.5423 41.1559ZM52.1823 41.1559C52.1823 38.4138 50.0276 36.2362 47.3144 36.2362C44.6575 36.2362 42.4973 38.4082 42.4973 41.1559C42.4973 43.8466 44.652 46.0242 47.3144 46.0242C50.0332 46.0242 52.1823 43.841 52.1823 41.1559Z" fill="#121519"></path></svg> 